<svg height="457pt" viewBox="0 0 457 457.95217" width="457pt" xmlns="http://www.w3.org/2000/svg"><path d="m278.453125 97.597656c-7.3125 0-13.289063 6.429688-13.570313 14.449219 0 10.5-.007812 20.515625-.011718 29.367187v17.03125l27.175781-27.171874-.011719-18.648438c-.007812-8.285156-6.101562-15.027344-13.582031-15.027344zm0 0"/><path d="m250.882812 112.976562h-.007812c0-1 0-.707031.007812-.972656 0-10.144531 0-20.65625 0-31.074218 0-8.289063-6.089843-14.953126-13.574218-14.953126h-.484375c-7.480469 0-13.371094 6.417969-13.371094 14.710938v119.375l27.515625-27.53125c0-5.332031-.097656-16.5625-.09375-30.953125.003906-8.683594.007812-18.601563.007812-28.601563zm0 0"/><path d="m195.976562 83.710938c-7.535156 0-13.523437 6.75-13.523437 15.042968v121.222656h-14v-71.277343c0-8.292969-6.492187-14.722657-13.976563-14.722657h-.457031c-7.46875 0-13.558593 6.566407-13.574219 14.835938-.078124 32.570312.050782 86.96875.089844 134.148438l68.917969-68.898438v-115.308594c0-8.292968-5.992187-15.042968-13.476563-15.042968zm0 0"/><path d="m92.753906 92.285156c-68.703125 68.722656-75.738281 177.75-16.441406 254.734375l50.128906-50.109375v-1.101562c-.042968-49.796875-.082031-111.441406 0-147.03125.039063-15.964844 12.410156-28.800782 27.578125-28.800782h.457031c4.882813-.109374 9.707032 1.082032 13.976563 3.453126v-24.675782c0-16.011718 12.167969-28.960937 27.375-28.960937 5.042969.03125 9.96875 1.535156 14.171875 4.328125 2.890625-12.777344 13.824219-22.144532 26.828125-22.144532h.484375c15.203125 0 27.140625 12.695313 27.140625 28.699219v6.679688c4.175781-2.464844 8.933594-3.761719 13.78125-3.761719 15.199219 0 27.785156 13.019531 27.796875 29.019531v4.664063l41.441406-41.4375c-76.980468-59.296875-186.007812-52.257813-254.71875 16.445312zm0 0"/><path d="m306.082031 187.457031.03125 45.265625 4.277344-5.210937c6.441406-8.019531 15.925781-13 26.183594-13.75 10.042969-.699219 19.925781 2.789062 27.308593 9.632812l6.097657 5.035157c2.535156 2.085937 3.261719 5.664062 1.738281 8.578124l-59.578125 114.375c-11.160156 21.441407-32.414063 34.597657-55.464844 34.597657h-66.824219c-21.253906 0-41.035156-11.316407-52.6875-29.765625l-25.738281 25.898437c58.367188 44.976563 137.222657 52.867188 203.339844 20.34375 66.117187-32.519531 108.003906-99.796875 108.003906-173.480469.230469-42.734374-13.921875-84.304687-40.179687-118.023437zm0 0"/><path d="m229.453125 0c-92.613281 0-176.105469 55.789062-211.546875 141.351562s-15.851562 184.050782 49.636719 249.535157c89.421875 89.421875 234.398437 89.421875 323.820312 0 89.417969-89.421875 89.417969-234.398438 0-323.820313-42.847656-43.082031-101.148437-67.230468-161.910156-67.066406zm-153.691406 364.457031c-.101563 0-.203125 0-.308594-.007812-1.960937-.085938-3.796875-.996094-5.054687-2.5-68.839844-82.363281-63.429688-203.652344 12.476562-279.554688 75.902344-75.902343 197.191406-81.316406 279.554688-12.472656 1.503906 1.261719 2.410156 3.097656 2.492187 5.058594.085937 1.957031-.652344 3.867187-2.042969 5.253906l-282.167968 282.171875c-1.3125 1.3125-3.09375 2.050781-4.949219 2.050781zm300.289062 11.121094c-75.910156 75.90625-197.207031 81.3125-279.570312 12.457031-1.503907-1.261718-2.410157-3.09375-2.492188-5.054687-.085937-1.960938.652344-3.867188 2.042969-5.257813l282.164062-282.171875c1.386719-1.390625 3.292969-2.132812 5.253907-2.046875 1.960937.085938 3.796875.992188 5.058593 2.496094 68.859376 82.363281 63.453126 203.664062-12.457031 279.578125zm0 0"/><path d="m189.851562 371.976562h66.820313c17.8125 0 34.308594-10.265624 43.046875-27.058593l56.96875-109.28125-1.875-1.554688c-.089844-.078125-.179688-.152343-.269531-.234375-4.570313-4.304687-10.730469-6.519531-17-6.109375-6.414063.496094-12.332031 3.636719-16.34375 8.667969l-16.671875 20.296875c-1.875 2.285156-4.984375 3.144531-7.765625 2.148437-2.78125-.996093-4.640625-3.628906-4.640625-6.585937l-.035156-50.898437-144.699219 144.625c8.835937 16.027343 25.042969 25.984374 42.464843 25.984374zm0 0"/></svg>