<svg height="457pt" viewBox="0 0 457 457.95217" width="457pt" xmlns="http://www.w3.org/2000/svg"><path d="m92.753906 92.277344c-68.703125 68.714844-75.738281 177.742187-16.441406 254.71875l50.140625-50.136719-36.867187-70.828125c-1.523438-2.921875-.796876-6.511719 1.738281-8.617188l6.558593-5.4375c7.828126-7.261718 18.308594-10.964843 28.957032-10.230468 10.875.796875 20.933594 6.074218 27.761718 14.578125l5.515626 6.707031.097656-130.453125c.011718-16.898437 13.078125-30.648437 29.113281-30.648437 16.050781 0 29.128906 13.757812 29.128906 30.671874v65.164063c4.417969-3.0625 9.65625-4.730469 15.035157-4.789063h.519531c9.421875.160157 18.171875 4.90625 23.445312 12.714844l90.015625-89.933594c-33.929687-26.316406-74.570312-40.097656-118.019531-40.097656-51.300781-.140625-100.523437 20.246094-136.699219 56.617188zm0 0"/><path d="m234.011719 166.976562h-.519531c-8.105469 0-15.039063 7.425782-15.039063 16.277344v21.65625l28.84375-29.035156c-2.601563-5.269531-7.695313-8.898438-13.285156-8.898438zm0 0"/><path d="m212.695312 371.976562h71.769532c29.503906 0 53.535156-25.90625 53.566406-57.789062.015625-17.324219.035156-30.222656.046875-40.71875.035156-28.242188.050781-38.800781-.023437-69.886719-.019532-9.164062-6.800782-16.605469-15.097657-16.605469h-.492187c-8.328125 0-15.011719 7.441407-15.011719 16.636719v14.363281h-14v-17.800781l-132.535156 132.480469 5.078125 9.824219c9.480468 18.210937 27.375 29.496093 46.699218 29.496093zm0 0"/><path d="m189.328125 75.929688c-8.324219 0-15.121094 7.472656-15.125 16.660156l-.101563 149.980468c0 2.953126-1.859374 5.589844-4.640624 6.585938-2.785157.996094-5.890626.136719-7.769532-2.148438l-17.90625-21.800781c-4.394531-5.515625-10.886718-8.957031-17.917968-9.5-6.875-.453125-13.628907 1.976563-18.640626 6.699219-.085937.082031-.175781.160156-.269531.234375l-2.332031 1.9375 32.222656 61.902344 67.574219-67.570313v-34.929687c0-.324219.039063-.644531.039063-.960938v-90.417969c-.007813-9.195312-6.808594-16.671874-15.132813-16.671874zm0 0"/><path d="m229.453125 0c-92.613281 0-176.105469 55.789062-211.546875 141.351562s-15.851562 184.050782 49.636719 249.535157c89.421875 89.421875 234.398437 89.421875 323.820312 0 89.417969-89.421875 89.417969-234.398438 0-323.820313-42.847656-43.082031-101.148437-67.230468-161.910156-67.066406zm-153.691406 364.457031c-.101563 0-.203125 0-.308594-.007812-1.960937-.085938-3.796875-.996094-5.054687-2.5-68.839844-82.363281-63.429688-203.652344 12.476562-279.554688 75.902344-75.902343 197.191406-81.316406 279.554688-12.472656 1.503906 1.261719 2.410156 3.097656 2.492187 5.058594.085937 1.957031-.652344 3.867187-2.042969 5.253906l-282.167968 282.171875c-1.3125 1.3125-3.09375 2.050781-4.949219 2.050781zm300.289062 11.121094c-75.910156 75.90625-197.207031 81.3125-279.570312 12.457031-1.503907-1.261718-2.410157-3.09375-2.492188-5.054687-.085937-1.960938.652344-3.867188 2.042969-5.257813l282.164062-282.171875c1.386719-1.390625 3.292969-2.132812 5.253907-2.046875 1.960937.085938 3.796875.992188 5.058593 2.496094 68.859376 82.363281 63.453126 203.664062-12.457031 279.578125zm0 0"/><path d="m320.527344 173.03125c.640625-.042969 1.285156-.054688 1.9375-.054688h.492187c16.003907 0 29.058594 13.699219 29.097657 30.566407.074218 31.113281.058593 41.660156.023437 69.921875-.011719 10.5-.03125 23.410156-.046875 40.730468-.039062 39.59375-30.347656 71.78125-67.566406 71.78125h-71.769532c-24.566406 0-47.21875-14.175781-59.117187-37.03125l-3.082031-5.902343-39.066406 39.066406c58.363281 44.972656 137.214843 52.863281 203.332031 20.34375 66.117187-32.519531 108.003906-99.789063 108.007812-173.472656.230469-42.730469-13.921875-84.300781-40.179687-118.015625zm0 0"/></svg>