<svg height="427pt" viewBox="-27 0 427 427.966" width="427pt" xmlns="http://www.w3.org/2000/svg"><path d="m352.847656 188.964844h-.625c-11.648437 0-20.957031 9.863281-20.957031 22.621094v18.050781c0 3.867187-3.136719 7-7 7-3.867187 0-7-3.132813-7-7v-33.332031c0-12.757813-9.316406-23.132813-20.96875-23.132813-11.714844-.007813-21.03125 10.375-21.03125 23.132813v35.332031c0 3.867187-3.136719 7-7 7-3.867187 0-7-3.132813-7-7v-45.03125c0-12.757813-9.976563-22.640625-21.625-22.640625h-.664063c-11.351562 0-20.710937 9.359375-20.710937 21.664062v50.699219c0 3.867187-3.136719 7-7 7-3.867187 0-7-3.132813-7-7v-49.222656c0-.167969-.019531-.339844-.019531-.511719 0-.398438.019531-.800781.019531-1.199219v-115.109375c0-12.757812-9.679687-23.132812-21.332031-23.132812-11.648438 0-21.324219 10.367187-21.335938 23.113281l-.132812 190.898437c0 2.957032-1.859375 5.59375-4.640625 6.589844-2.785157.996094-5.894531.136719-7.769531-2.148437l-22.789063-27.738281c-5.929687-7.429688-14.675781-12.058594-24.152344-12.78125-9.273437-.613282-18.382812 2.660156-25.152343 9.027343-.085938.082031-.175782.164063-.269532.242188l-4.160156 3.464843 78.839844 151.492188c12.394531 23.808594 35.820312 38.652344 61.136718 38.652344h91.347657c38.609375 0 70.050781-33.925782 70.09375-75.554688.019531-22.089844.039062-38.617187.058593-51.992187.046876-35.917969.0625-49.101563-.027343-88.644531-.03125-12.71875-9.511719-22.808594-21.132813-22.808594zm0 0"/><path d="m58.832031 187.839844-15.566406 15.570312v-189.480468c0-3.867188-3.136719-7-7-7-3.867187 0-7 3.132812-7 7v190.742187l-16.832031-16.832031c-2.734375-2.734375-7.167969-2.734375-9.898438 0-2.734375 2.734375-2.734375 7.167968 0 9.898437l28.148438 28.152344c2.734375 2.734375 7.164062 2.734375 9.898437 0l28.148438-28.152344c2.734375-2.730469 2.734375-7.164062 0-9.898437s-7.164063-2.734375-9.898438 0zm0 0"/><path d="m130.585938 66.050781c0-28.746093 23.304687-52.050781 52.050781-52.050781 28.746093 0 52.046875 23.304688 52.046875 52.050781 0 3.863281 3.136718 7 7 7 3.867187 0 7-3.136719 7-7 0-36.480469-29.570313-66.050781-66.046875-66.050781-36.480469 0-66.050781 29.570312-66.050781 66.050781 0 3.863281 3.132812 7 7 7 3.867187 0 7-3.136719 7-7zm0 0"/></svg>