<svg height="427pt" viewBox="-27 0 427 427.966" width="427pt" xmlns="http://www.w3.org/2000/svg"><path d="m352.847656 188.964844h-.625c-11.648437 0-20.960937 9.863281-20.960937 22.621094v18.050781c0 3.867187-3.132813 7-7 7-3.863281 0-7-3.132813-7-7v-33.332031c0-12.757813-9.3125-23.132813-20.964844-23.132813-11.71875-.007813-21.035156 10.375-21.035156 23.132813v35.332031c0 3.867187-3.132813 7-7 7-3.863281 0-7-3.132813-7-7v-45.03125c0-12.757813-9.972657-22.640625-21.625-22.640625h-.660157c-11.355468 0-20.714843 9.359375-20.714843 21.664062v50.699219c0 3.867187-3.132813 7-7 7-3.863281 0-7-3.132813-7-7v-49.222656c0-.167969-.015625-.339844-.015625-.511719 0-.398438.015625-.800781.015625-1.199219v-115.109375c0-12.757812-9.675781-23.132812-21.328125-23.132812-11.648438 0-21.328125 10.367187-21.335938 23.113281l-.132812 190.898437c-.003906 2.957032-1.859375 5.59375-4.644532 6.589844-2.78125.996094-5.890624.136719-7.765624-2.148437l-22.792969-27.738281c-5.925781-7.429688-14.675781-12.058594-24.148438-12.78125-9.273437-.613282-18.386719 2.660156-25.152343 9.027343-.089844.082031-.175782.164063-.269532.242188l-4.160156 3.464843 78.839844 151.492188c12.390625 23.808594 35.820312 38.652344 61.132812 38.652344h91.351563c38.609375 0 70.050781-33.925782 70.089843-75.554688.023438-22.089844.042969-38.617187.0625-51.992187.042969-35.917969.0625-49.101563-.03125-88.644531-.027343-12.71875-9.507812-22.808594-21.128906-22.808594zm0 0"/><path d="m42.316406 10.425781c-1.195312-1.925781-3.175781-3.226562-5.414062-3.558593-2.242188-.335938-4.515625.332031-6.21875 1.824218l-28.148438 28.148438c-2.734375 2.734375-2.734375 7.167968 0 9.898437 2.730469 2.734375 7.164063 2.734375 9.898438 0l16.828125-16.832031v179.023438c0 3.867187 3.136719 7 7 7 3.867187 0 7-3.132813 7-7v-177.765626l15.570312 15.570313c2.734375 2.734375 7.167969 2.734375 9.898438 0 2.734375-2.734375 2.734375-7.164063 0-9.898437zm0 0"/><path d="m123.585938 73.050781c3.863281 0 7-3.136719 7-7 0-28.746093 23.300781-52.050781 52.046874-52.050781 28.746094 0 52.050782 23.304688 52.050782 52.050781 0 3.863281 3.136718 7 7 7 3.867187 0 7-3.136719 7-7 0-36.480469-29.570313-66.050781-66.050782-66.050781-36.476562 0-66.046874 29.570312-66.046874 66.050781 0 3.863281 3.132812 7 7 7zm0 0"/></svg>