<svg height="462pt" viewBox="-51 0 462 462.25743" width="462pt" xmlns="http://www.w3.org/2000/svg"><path d="m271.011719 263.851562v-33.332031c0-12.757812-9.816407-23.132812-21.46875-23.132812-11.714844 0-21.53125 10.375-21.53125 23.132812v35.332031c0 3.867188-3.132813 7-7 7-3.867188 0-7-3.132812-7-7v-45.03125c0-12.757812-9.109375-23.5625-20.757813-23.5625h-.664062c-11.351563 0-20.578125 10.28125-21.578125 22.585938v50.699219c0 3.867187-3.132813 7-7 7-3.867188 0-7-3.132813-7-7v-49.222657c0-.167968-.019531-.339843-.019531-.511718 0-.398438.019531-.800782.019531-1.199219v-115.109375c0-12.757812-9.246094-23.132812-20.898438-23.132812-11.65625 0-20.925781 10.371093-20.933593 23.113281l-.117188 190.902343c0 2.953126-1.855469 5.59375-4.636719 6.589844s-5.890625.136719-7.765625-2.152344l-22.789062-27.742187c-5.929688-7.425781-14.675782-12.054687-24.152344-12.773437-9.273438-.609376-18.386719 2.664062-25.152344 9.035156-.085937.082031-.175781.183594-.265625.257812l-4.164062 3.5 78.851562 151.460938c12.390625 23.808594 35.816407 38.699218 61.132813 38.699218h91.347656c38.609375 0 70.054688-33.964843 70.09375-75.601562.019531-22.105469.042969-38.734375.058594-52.113281.046875-35.902344.0625-49.515625-.027344-89.046875-.03125-12.71875-9.507812-23.242188-21.132812-23.242188h-.625c-11.648438.003906-20.824219 10.789063-20.824219 23.546875v18.050781c0 3.867188-3.132813 7-7 7-3.867188 0-7-3.132812-7-7zm0 0"/><path d="m4.15625 51.800781 38.621094 38.621094c2.730468 2.734375 7.164062 2.734375 9.898437 0 2.734375-2.773437 2.734375-7.230469 0-10.007813l-28.050781-28.15625h253.386719v-14h-251.820313l26.484375-26.378906c2.710938-2.730468 2.691407-7.144531-.042969-9.859375-2.730468-2.710937-7.144531-2.691406-9.855468.042969l-36.433594 36.445312c-3.113281.351563-5.613281 2.730469-6.121094 5.820313-.507812 3.089844 1.097656 6.144531 3.933594 7.472656zm0 0"/><path d="m336.820312 11.722656c19.070313 7.902344 28.128907 29.765625 20.226563 48.839844-7.898437 19.070312-29.761719 28.128906-48.835937 20.226562-19.070313-7.898437-28.128907-29.765624-20.226563-48.835937 7.898437-19.070313 29.761719-28.128906 48.835937-20.230469zm0 0"/></svg>