<svg height="462pt" viewBox="0 0 462.86072 462" width="462pt" xmlns="http://www.w3.org/2000/svg"><path d="m452.792969 287.839844c-6.210938-40.625-8.535157-55.828125-15.53125-100.523438-2.335938-14.914062-15.367188-25.335937-29.042969-23.222656l-.707031.109375c-6.632813 1.0625-12.519531 4.859375-16.222657 10.464844-4.039062 6.019531-5.636718 13.351562-4.464843 20.503906l.007812.046875 3.136719 20.351562c.589844 3.820313-2.03125 7.398438-5.851562 7.988282-3.820313.585937-7.394532-2.03125-7.984376-5.851563l-5.808593-37.671875c-2.304688-14.960937-15.339844-25.414062-29.054688-23.296875-13.761719 2.121094-23.03125 15.964844-20.777343 30.890625l6.171874 40.015625c.589844 3.824219-2.03125 7.398438-5.851562 7.988281-3.820312.589844-7.394531-2.03125-7.984375-5.851562l-6.152344-39.894531-.003906-.035157c0-.03125-.011719-.058593-.015625-.089843l-1.675781-10.871094c-1.035157-7.175781-4.769531-13.6875-10.433594-18.210937-5.21875-4.226563-11.972656-6.074219-18.621094-5.089844l-.746093.113281c-13.371094 2.0625-22.527344 15.316406-20.839844 29.839844l8.835937 57.324219c.589844 3.820312-2.03125 7.394531-5.851562 7.984374-3.820313.589844-7.394531-2.03125-7.984375-5.851562l-8.582032-55.664062c-.042968-.175782-.074218-.355469-.105468-.539063-.066406-.453125-.132813-.90625-.1875-1.355469l-1.066406-6.910156c-2.304688-14.960938-15.339844-25.417969-29.050782-23.300781l-.050781.007812c-13.679687 2.136719-22.941406 16-20.648437 30.945313l4.730468 31.015625c.011719.066406.019532.136719.03125.207031l9.359375 61.355469c.582031 3.824219-2.042969 7.394531-5.867187 7.976562-3.820313.582031-7.390625-2.042969-7.972656-5.863281l-7.351563-48.199219-25.261719 24.023438c-18.707031 17.792969-22.078125 46.390625-8.019531 68.042969l65.679687 101.125c18.386719 24.949218 47.738282 37.671874 76.660157 33.214843l103.234375-15.917969c44.179687-6.8125 74.1875-51.082031 66.898437-98.683593-3.824219-24.929688-6.667969-43.535157-8.976562-58.640625zm0 0"/><path d="m172.292969 86.578125c0-47.578125-38.566407-86.148437-86.144531-86.148437-47.578126 0-86.148438 38.570312-86.148438 86.148437s38.570312 86.144531 86.148438 86.144531c47.554687-.050781 86.09375-38.589844 86.144531-86.144531zm-86.144531 72.207031c-39.882813 0-72.210938-32.328125-72.210938-72.207031s32.328125-72.210937 72.210938-72.210937c39.878906 0 72.207031 32.332031 72.207031 72.210937-.042969 39.859375-32.347657 72.164063-72.207031 72.207031zm0 0"/><path d="m86.148438 28.367188c-32.148438 0-58.210938 26.0625-58.210938 58.210937s26.0625 58.207031 58.210938 58.207031c32.148437 0 58.207031-26.058594 58.207031-58.207031-.035157-32.132813-26.074219-58.171875-58.207031-58.210937zm27.355468 70.832031h-31.265625c-1.808593.046875-3.5625-.648438-4.847656-1.925781-1.285156-1.273438-1.992187-3.023438-1.957031-4.832032v-41.035156c0-3.867188 3.132812-7 7-7 3.863281 0 7 3.132812 7 7v33.792969h24.070312c3.863282 0 7 3.132812 7 7 0 3.863281-3.136718 7-7 7zm0 0"/></svg>