<svg height="466pt" viewBox="0 -67 466.30655 466" width="466pt" xmlns="http://www.w3.org/2000/svg"><path d="m208.097656 330.054688c-.527344.527343-1.078125 1.027343-1.636718 1.511718 3.292968-1.074218 6.28125-2.914062 8.71875-5.371094l8.074218-8.074218-5.945312-5.945313c-.980469 6.621094-4.070313 12.746094-8.804688 17.476563zm0 0"/><path d="m390.09375 17.644531c-16.113281-16.113281-40.445312-21.597656-63.507812-14.332031l-91.433594 28.832031-.019532.003907-56.179687 17.71875.410156 4.386718c.011719.117188.019531.234375.023438.351563.25 8.277343 3.929687 16.074219 10.15625 21.53125 6.429687 5.511719 14.859375 8.105469 23.277343 7.160156l32.5-3.1875c2.941407-.289063 5.746094 1.300781 7.007813 3.972656 1.265625 2.671875.714844 5.851563-1.375 7.941407l-7.90625 7.921874 104.90625 105.050782c13.382813 13.398437 13.964844 34.605468 1.316406 47.304687l-.050781.050781c-4.734375 4.722657-10.859375 7.800782-17.476562 8.785157l8.113281 8.117187c.917969.925782 1.789062 1.898438 2.609375 2.914063 31.03125-31.03125 67.6875-67.746094 102.898437-103.027344 26.5-26.550781 28.066407-68.15625 3.480469-92.742187zm0 0"/><path d="m135.070312 306.714844.429688.429687c2.230469 2.21875 5.027344 3.785157 8.082031 4.527344-4.148437-4.140625-8.496093-8.480469-13.039062-13.019531.75 3.050781 2.316406 5.835937 4.527343 8.0625zm0 0"/><path d="m128.792969 277.113281c1.050781.605469 1.921875 1.480469 2.53125 2.527344 11.964843 11.960937 22.929687 22.910156 32.382812 32.332031l.039063.035156c2.40625 2.402344 4.714844 4.703126 6.925781 6.902344 7.949219 7.914063 20.296875 8.472656 27.527344 1.246094l.402343-.402344c3.472657-3.519531 5.3125-8.335937 5.070313-13.277344-.226563-5.398437-2.5-10.507812-6.359375-14.292968-.015625-.011719-.027344-.027344-.039062-.039063l-63.019532-63.027343c-2.734375-2.734376-2.734375-7.167969 0-9.898438 2.734375-2.734375 7.167969-2.734375 9.898438 0l93.953125 93.949219 13.023437 13.023437c3.785156 3.859375 8.894532 6.132813 14.292969 6.359375 4.957031.269531 9.789063-1.582031 13.300781-5.09375 3.507813-3.507812 5.359375-8.34375 5.089844-13.296875-.226562-5.402344-2.5-10.511718-6.359375-14.296875l-.050781-.046875-106.921875-106.925781c-2.734375-2.734375-2.734375-7.164063 0-9.898437 2.730469-2.734376 7.164062-2.734376 9.898437 0l122.859375 122.863281c7.957031 7.953125 20.324219 8.53125 27.574219 1.285156l.421875-.421875c7.246094-7.246094 6.671875-19.613281-1.28125-27.570312-7.714844-7.714844-17.167969-17.164063-27.371094-27.367188-.246093-.234375-.5-.472656-.738281-.71875-.105469-.105469-.207031-.214844-.308594-.324219-12.226562-12.226562-25.476562-25.472656-38.085937-38.070312-28.953125-28.941407-53.957031-53.9375-56.390625-56.390625-1.789063-1.769532-2.492188-4.363282-1.839844-6.792969s2.558594-4.324219 4.992188-4.957031c2.4375-.636719 5.023437.085937 6.78125 1.886718 2.417968 2.433594 27.414062 27.417969 56.355468 56.351563 12.914063 12.90625 26.5 26.488281 38.976563 38.960937 7.953125 7.40625 19.878906 7.800782 26.957031.761719l.039062-.039062c7.242188-7.242188 6.667969-19.601563-1.277343-27.5625l-109.832031-109.988281-8.222657-8.230469-5.800781.566406c-12.25 1.339844-24.507812-2.476563-33.832031-10.527344-9.097657-7.929687-14.507813-19.269531-14.953125-31.324219l-.917969-9.84375c-.304687-3.28125 1.722656-6.335937 4.867187-7.324218l40.523438-12.78125-70.152344-22.121094c-23.0625-7.273438-47.394531-1.78125-63.507812 14.332031l-58.75 58.75c-24.585938 24.585938-23.023438 66.191407 3.480468 92.746094 36.300782 36.371094 75.507813 75.640625 107.847657 107.972656zm0 0"/></svg>