<svg height="470pt" viewBox="0 -65 470.23718 470" width="470pt" xmlns="http://www.w3.org/2000/svg"><path d="m167.34375 273.285156 7.890625 8.472656c6.035156 6.5625 14.53125 10.316407 23.445313 10.359376h41.121093c8.90625-.019532 17.402344-3.75 23.441407-10.296876l7.894531-8.582031c1.339843-1.402343 3.207031-2.167969 5.140625-2.121093h33.890625l-11.347657-22h-247.144531c-1.832031-.027344-3.574219-.792969-4.828125-2.125-1.257812-1.332032-1.921875-3.113282-1.847656-4.941407v-207.328125c-.058594-1.78125.628906-3.503906 1.894531-4.757812s3-1.921875 4.78125-1.847656h335.125c3.863281 0 7.199219 2.742187 7.199219 6.605468v119.632813c7.207031.734375 13.699219 4.667969 17.683594 10.71875 1.945312-1.457031 4.066406-2.667969 6.316406-3.59375v-128.992188c0-17.582031-14.132812-32.371093-31.710938-32.371093h-334.101562c-17.582031 0-32.1875 14.789062-32.1875 32.371093v238.628907h142.199219c1.945312-.03125 3.808593.753906 5.144531 2.167968zm0 0"/><path d="m281.511719 203.84375 5-4.164062c6.328125-5.855469 14.796875-8.835938 23.398437-8.242188 8.792969.640625 16.921875 4.90625 22.449219 11.773438l1.351563 1.632812.09375-95.527344c.007812-13.863281 10.800781-25.144531 24-25.144531 9.925781 0 18.191406 6.371094 22.191406 15.425781v-57.480468h-320.996094v193h232.53125l-11.761719-22.632813c-1.523437-2.933594-.796875-6.527344 1.742188-8.640625zm0 0"/><path d="m328.859375 306.917969-11.398437-21.800781h-38.113282l-5.8125 6.261718c-8.703125 9.398438-20.929687 14.738282-33.734375 14.738282h-41.121093c-12.808594.003906-25.039063-5.339844-33.738282-14.738282l-5.8125-6.261718h-159.128906v22.632812c0 17.582031 14.0625 32.367188 31.644531 32.367188h375.183594c5.230469 0 10.234375-2 14.683594-4h-45.855469c-19.457031 0-37.386719-11.121094-46.796875-29.199219zm0 0"/><path d="m460.242188 183.117188h-.375c-5.488282 0-9.867188 5.226562-9.867188 11.378906v10.878906c0 3.867188-3.132812 7-7 7s-7-3.132812-7-7v-20.089844c0-6.152344-4.492188-11.160156-9.980469-11.160156-5.527343 0-10.019531 5.007812-10.019531 11.160156v21.300782c0 3.867187-3.132812 7-7 7s-7-3.132813-7-7v-27.144532c0-6.15625-4.5-11.324218-9.988281-11.324218h-.402344c-5.332031 0-9.609375 4.886718-9.609375 10.800781v30.5c0 3.867187-3.136719 7-7 7-3.867188 0-7-3.132813-7-7v-29.59375c0-.128907-.011719-.257813-.011719-.390625 0-.253906.011719-.5.011719-.753906v-69.347657c0-6.152343-4.632812-11.160156-10.121094-11.160156-5.488281 0-10.121094 5-10.125 11.152344l-.078125 115.058593c-.003906 2.957032-1.859375 5.589844-4.644531 6.585938-2.78125.996094-5.890625.136719-7.765625-2.148438l-13.738281-16.722656c-3.089844-3.882812-7.652344-6.304687-12.597656-6.691406-4.828126-.316406-9.570313 1.394531-13.085938 4.710938-.085938.082031-.175781.164062-.269531.238281l-.777344.652343 46.480469 89.3125c6.992187 13.425782 20.164062 21.796876 34.378906 21.796876h55.058594c21.738281 0 39.441406-19.191407 39.464844-42.753907.011718-13.195312.023437-23.089843.035156-31.113281.027344-21.742188.039062-29.988281-.019532-53.898438-.011718-6.132812-4.476562-11.234374-9.953124-11.234374zm0 0"/></svg>