<svg height="434pt" viewBox="-45 0 434 434.163" width="434pt" xmlns="http://www.w3.org/2000/svg"><path d="m319.675781 60.164062h-.707031c-13.757812 0-24.578125 12.546876-24.578125 27.558594v120.5c0 3.867188-3.132813 7-7 7-3.863281 0-7-3.132812-7-7v-37.859375c0-15.011719-11.199219-27.226562-24.960937-27.226562-13.835938.003906-25.039063 12.214843-25.039063 27.226562v40.132813c0 3.867187-3.132813 7-7 7-3.863281 0-7-3.132813-7-7v-51.148438c0-15.011718-11.542969-27.183594-25.296875-27.183594h-.753906c-13.417969 0-24.949219 11.570313-24.949219 26.0625v57.601563c0 3.867187-3.132813 7-7 7-3.863281 0-7-3.132813-7-7v-55.949219c0-.179687-.019531-.359375-.019531-.542968 0-.449219.019531-.898438.019531-1.34375v-130.765626c0-15.011718-11.183594-27.226562-24.941406-27.226562-13.757813 0-24.945313 12.199219-24.953125 27.207031l-.152344 216.832031c0 2.957032-1.859375 5.59375-4.644531 6.589844-2.78125.992188-5.890625.132813-7.765625-2.152344l-25.886719-31.511718c-6.898437-8.640625-17.078125-14.027344-28.101563-14.867188-10.792968-.71875-21.398437 3.082032-29.28125 10.496094-.085937.078125-.175781.144531-.265624.222656l-5.3164068 4.386719 89.9101568 172.683594c14.238281 27.359375 41.167968 44.277343 70.277343 44.277343h103.757813c44.378906 0 80.519531-38.816406 80.566406-86.628906.09375-98.800781.171875-200.382812.035156-260.097656-.035156-14.96875-11.226562-27.273438-24.953125-27.273438zm0 0"/></svg>