<svg height="424pt" viewBox="-47 0 424 424" width="424pt" xmlns="http://www.w3.org/2000/svg"><path d="m303.417969 0h-.753907c-14.882812 0-27.410156 13.023438-27.410156 29.238281v153.984375c0 3.863282-3.136718 7-7 7-3.867187 0-7-3.136718-7-7v-40.273437c0-16.214844-12.082031-29.40625-26.960937-29.40625-14.960938 0-27.039063 13.191406-27.039063 29.40625v42.6875c0 3.867187-3.136718 7-7 7-3.867187 0-7-3.132813-7-7v-54.40625c0-16.214844-11.734375-29.230469-26.613281-29.230469h-.800781c-14.511719 0-26.585938 12.367188-26.585938 28.027344v61.28125c0 3.867187-3.136718 7-7 7-3.867187 0-7-3.132813-7-7v-59.53125c0-.183594-.023437-.371094-.023437-.558594 0-.476562.023437-.953125.023437-1.425781v-17.941407c0-16.214843-12.296875-29.445312-27.175781-29.445312s-27.171875 13.144531-27.183594 29.347656l-.160156 109.410156c-.011719 1.839844-.757813 3.597657-2.070313 4.882813-1.316406 1.285156-3.09375 1.988281-4.929687 1.953125h-.011719c-1.839844.03125-3.617187-.675781-4.929687-1.964844-1.316407-1.289062-2.058594-3.054687-2.058594-4.894531l.105469-73.585937-45.148438 42.460937c-11 10.285156-14.640625 26.222656-9.203125 40.261719l56.394531 146.722656c15.269532 29.054688 43.96875 47 74.96875 47h110.375c47.449219 0 86.09375-41.492188 86.140626-92.59375.144531-149.914062.15625-251.507812.039062-302.210938-.039062-16.167968-12.144531-29.195312-26.988281-29.195312zm0 0"/></svg>