<svg height="451pt" viewBox="-68 0 451 451.717" width="451pt" xmlns="http://www.w3.org/2000/svg"><path d="m.933594 451.71875 149.785156-1.535156v-55.109375l-150.359375 1.535156zm0 0"/><path d="m164.871094 178.734375-.082032 15.816406h-.070312v186.523438l102.640625 1.046875-9.316406-18.816406c-5.773438-10.414063-7.328125-22.648438-4.34375-34.175782l10.585937-56.75c5.222656-33.351562 2-67.480468-9.363281-99.265625l-62.035156-173.113281-6.265625.84375c-12.109375 1.699219-21.066406 12.136719-20.902344 24.367188v.109374l-.539062 120.078126c1.25-1.34375 2.40625-2.644532 3.8125-3.894532 10.921874-9.757812 25.0625-15.144531 39.710937-15.128906 3.859375.042969 6.957031 3.203125 6.921875 7.058594l-1.144531 134.867187c-.035157 3.867188-3.195313 6.972657-7.0625 6.941407-3.867188-.03125-6.976563-3.195313-6.945313-7.0625l1.074219-127.3125c-19.574219 2.992187-35.75 19.335937-36.675781 37.867187zm0 0"/><path d="m113.878906 140.953125 1.082032 127.386719c.050781 3.898437-3.042969 7.117187-6.941407 7.210937h-.058593c-3.875-.070312-6.988282-3.222656-7.007813-7.097656l-1.15625-135.019531c-.042969-3.855469 3.042969-7.015625 6.898437-7.0625 14.636719-.011719 28.761719 5.375 39.671876 15.128906 1.402343 1.25 2.644531 2.550781 3.898437 3.894531l-.546875-120.074219v-.109374c.167969-12.230469-8.789062-22.667969-20.898438-24.367188l-6.183593-.84375-62.078125 173.113281c-11.371094 31.785157-14.597656 65.910157-9.382813 99.265625l10.574219 56.75c2.984375 11.527344 1.429688 23.761719-4.347656 34.175782l-9.316406 18.816406 102.632812-1.046875v-187.003907l-.117188-15.601562c-.917968-18.46875-17.148437-34.53125-36.722656-37.515625zm0 0"/><path d="m164.71875 450.183594 149.789062 1.535156.574219-55.109375-150.363281-1.535156zm0 0"/></svg>