<svg height="490pt" viewBox="-65 0 490 490.76483" width="490pt" xmlns="http://www.w3.org/2000/svg"><path d="m194.261719 489.53125 2.183593-24.730469 13.945313 1.230469-2.183594 24.734375zm0 0"/><path d="m.382812 262.46875h51v212h-51zm0 0"/><path d="m244.191406 459.46875c10.335938 0 18.765625-7.917969 18.800782-17.316406v-.695313c.03125-9.394531-8.316407-17.132812-18.628907-17.230469l-15.59375-.101562c-2.480469.054688-4.792969-1.234375-6.046875-3.375s-1.25-4.792969.011719-6.929688c1.261719-2.132812 3.578125-3.417968 6.058594-3.355468h28.652343c10.34375 0 18.773438-7.738282 18.800782-17.148438.03125-9.480468-8.375-17.175781-18.746094-17.214844l-30.28125-.144531c-2.476562.101563-4.8125-1.164062-6.078125-3.296875-1.265625-2.132812-1.261719-4.785156.011719-6.914062 1.273437-2.128906 3.613281-3.386719 6.089844-3.277344h.023437l30.242187.050781c.007813 0 .019532-.050781.03125-.050781h8.382813c4.988281-.035156 9.78125-1.953125 13.421875-5.363281 3.382812-3.089844 5.332031-7.445313 5.375-12.027344v-.628906c.035156-9.179688-7.941406-16.757813-17.9375-17.179688l-43.417969-.175781c-2.480469.066406-4.796875-1.222656-6.054687-3.359375-1.253906-2.136719-1.25-4.789063.011718-6.921875 1.261719-2.132812 3.585938-3.414062 6.0625-3.34375h.023438l42.136719-.039062c.15625-.007813.3125-.078126.472656-.082032.351563 0 .703125-.050781 1.054687-.035156l5.210938-.011719c4.984375.042969 9.804688-1.796875 13.5-5.144531 3.375-2.992188 5.328125-7.273438 5.378906-11.785156.03125-9.425782-8.375-17-18.742187-17.046875l-23.496094.144531h-.191406l-46.484375-.5c-3.894532-.089844-6.996094-3.289062-6.960938-7.183594.007813-3.878906 3.15625-7.023437 7.039063-7.019531l33.175781.136719-12.898438-18.746094c-10.484374-15.222656-30.335937-20.800781-47.21875-13.269531-.144531.0625-.199218.117187-.347656.175781l-109.652344 40.34375v185.101562c70 .289063 140.269532.960938 178.789063.960938zm0 0"/><path d="m233.539062 255.976562 33.90625-119.957031 13.472657 3.808594-33.90625 119.957031zm0 0"/><path d="m262.292969 212.808594-.828125 2.519531 2.53125.601563c33.476562 8.257812 68.785156-11.464844 78.757812-43.941407.011719-.042969.027344-.085937.039063-.128906l.8125-2.46875-2.527344-.601563c-33.113281-8.152343-68.429687 11.601563-78.785156 44.019532zm0 0"/><path d="m241.96875 209.703125 2.523438.828125.597656-2.527344.015625-.054687c8.148437-33.039063-11.605469-68.359375-44.035157-78.730469l-2.519531-.824219-.597656 2.527344c-.011719.042969-.023437.085937-.035156.128906-8.503907 32.894531 11.257812 68.179688 44.050781 78.652344zm0 0"/><path d="m299.140625 49.617188c-9.070313-2.566407-18.503906 2.710937-21.066406 11.78125-2.5625 9.066406 2.710937 18.5 11.78125 21.0625 9.070312 2.5625 18.5-2.710938 21.0625-11.78125 2.566406-9.070313-2.710938-18.5-11.78125-21.0625zm0 0"/><path d="m354.066406 55.15625c3.53125-7.011719 3.351563-15.3125-.480468-22.164062-3.832032-6.847657-10.8125-11.347657-18.632813-12.007813-2.777344-.242187-5.148437-2.113281-6.03125-4.761719-2.460937-7.453125-8.457031-13.199218-16.011719-15.332031-7.550781-2.132813-15.667968-.378906-21.664062 4.683594-2.136719 1.792969-5.136719 2.148437-7.632813.898437-7.007812-3.53125-15.3125-3.351562-22.160156.480469-6.851563 3.828125-11.351563 10.8125-12.011719 18.628906-.242187 2.78125-2.113281 5.152344-4.761718 6.035157-7.453126 2.457031-13.195313 8.457031-15.332032 16.007812-2.132812 7.554688-.378906 15.671875 4.683594 21.667969 1.792969 2.136719 2.148438 5.136719.898438 7.632812-3.175782 6.300781-3.367188 13.6875-.523438 20.144531 2.84375 6.457032 8.425781 11.304688 15.21875 13.214844 1.441406.410156 2.921875.679688 4.417969.808594 2.78125.246094 5.148437 2.117188 6.03125 4.761719 2.460937 7.453125 8.457031 13.199219 16.011719 15.332031 7.550781 2.136719 15.667968.378906 21.664062-4.683594 2.140625-1.792968 5.136719-2.148437 7.632812-.898437 1.34375.671875 2.746094 1.214843 4.1875 1.625 6.789063 1.925781 14.082032.71875 19.882813-3.292969 5.804687-4.015625 9.507813-10.414062 10.101563-17.441406.242187-2.78125 2.113281-5.152344 4.761718-6.035156 7.453125-2.457032 13.195313-8.457032 15.332032-16.007813 2.132812-7.550781.378906-15.671875-4.683594-21.667969-1.792969-2.136718-2.148438-5.136718-.898438-7.628906zm-29.675781 19.332031c-3.785156 13.359375-15.960937 22.59375-29.847656 22.628907-12.128907.019531-23.164063-7.023438-28.25-18.039063-5.089844-11.011719-3.304688-23.980469 4.574219-33.207031 7.875-9.226563 20.402343-13.023438 32.078124-9.726563 16.511719 4.664063 26.113282 21.832031 21.445313 38.34375zm0 0"/></svg>