<svg height="463pt" viewBox="-11 0 463 463.50385" width="463pt" xmlns="http://www.w3.org/2000/svg"><path d="m425.433594 297.351562c-8.972656-34.722656-12.332032-47.71875-22.351563-85.925781-3.226562-12.300781-15-19.933593-26.253906-17.011719l-.601563.15625c-5.445312 1.449219-10.027343 5.113282-12.640624 10.105469-2.878907 5.398438-3.59375 11.691407-2 17.597657l.011718.046874 4.527344 17.425782c.96875 3.738281-1.273438 7.558594-5.015625 8.53125-3.738281.972656-7.558594-1.273438-8.535156-5.011719l-8.382813-32.261719c-1.480468-5.933594-5.167968-11.082031-10.308594-14.398437-4.707031-3.117188-10.519531-4.085938-15.988281-2.667969-5.464843 1.421875-10.070312 5.097656-12.667969 10.113281-2.878906 5.402344-3.59375 11.695313-2 17.601563l.007813.027344 8.878906 34.167968c.664063 2.433594-.027343 5.039063-1.820312 6.816406-1.789063 1.777344-4.394531 2.457032-6.824219 1.773438s-4.304688-2.617188-4.90625-5.070312l-11.324219-43.582032c-1.480469-5.9375-5.167969-11.085937-10.308593-14.398437-4.710938-3.089844-10.5-4.058594-15.957032-2.675781l-.644531.167968c-10.988281 2.851563-17.5 14.726563-14.859375 26.753906l12.75 49.070313c.664062 2.433594-.027344 5.035156-1.816406 6.816406-1.792969 1.777344-4.398438 2.453125-6.828125 1.773438-2.429688-.683594-4.304688-2.621094-4.90625-5.070313l-12.378907-47.644531c-.054687-.160156-.101562-.320313-.144531-.488281-.101562-.390625-.199219-.78125-.285156-1.167969l-28.941406-111.414063c-1.480469-5.9375-5.167969-11.085937-10.308594-14.402343-4.710937-3.085938-10.5-4.058594-15.957031-2.675781l-.054688.015624c-11.238281 2.949219-17.785156 15.351563-14.589844 27.671876l47.875 184.800781c.742188 2.859375-.394531 5.878906-2.839843 7.542969-2.441407 1.664062-5.667969 1.613281-8.054688-.128907l-29.039062-21.121093c-7.605469-5.699219-17.234375-7.980469-26.585938-6.300782-9.132812 1.738282-17.128906 7.191406-22.078125 15.058594-.0625.101562-.128906.203125-.199218.292969l-3.160157 4.386719 114.394531 126.777343c17.984376 19.929688 44.378907 28.355469 68.878907 21.988281l88.414062-22.96875c37.367188-9.710937 59.28125-50.398437 48.851563-90.699218-5.550782-21.445313-9.679688-37.425782-13.03125-50.394532zm0 0"/><path d="m234.996094 15.132812c24.066406 3.09375 48.398437 12.824219 70.378906 28.136719 22.835938 15.929688 41.726562 36.871094 55.226562 61.222657 1.867188 3.382812 6.125 4.613281 9.507813 2.746093 3.386719-1.867187 4.617187-6.125 2.75-9.511719-14.539063-26.226562-34.882813-48.785156-59.476563-65.945312-23.820312-16.59375-50.308593-27.152344-76.601562-30.535156-40.179688-5.164063-84.5625 5.878906-121.773438 30.304687-40.71875 26.65625-69.800781 67.777344-81.367187 115.054688l13.601563 3.339843c10.722656-43.839843 37.6875-81.972656 75.449218-106.691406 34.457032-22.617187 75.394532-32.867187 112.304688-28.121094zm0 0"/><path d="m30.644531 214.503906 45.21875-52.78125-75.613281-9.726562zm0 0"/></svg>