<svg height="450pt" viewBox="-29 0 450 450.71135" width="450pt" xmlns="http://www.w3.org/2000/svg"><path d="m305.121094 313.714844c-2.164063-35.960938-2.972656-49.414063-5.5-88.964844-.808594-12.695312-10.90625-22.429688-22.503906-21.726562l-.621094.039062c-11.582032.710938-20.382813 11.5625-19.683594 24.222656l1.117188 18.179688c.191406 2.519531-.984376 4.945312-3.085938 6.351562-2.097656 1.40625-4.792969 1.570313-7.046875.433594s-3.722656-3.402344-3.839844-5.925781l-1.097656-17.933594-.007813-.082031-.011718-.203125-.925782-15.054688c-.316406-6.109375-2.949218-11.871093-7.359374-16.109375-4.027344-3.9375-9.527344-6-15.148438-5.683594-11.695312.71875-20.519531 11.660157-19.738281 24.390626l.007812.078124 2.160157 35.1875c.175781 2.507813-1.003907 4.921876-3.097657 6.316407s-4.773437 1.558593-7.023437.433593c-2.25-1.128906-3.71875-3.378906-3.851563-5.890624l-2.761719-44.945313c-.785156-12.734375-10.882812-22.527344-22.511718-21.792969l-.65625.039063c-11.101563.683593-19.644532 10.671875-19.722656 22.644531l8.046874 50.707031c.582032 3.808594-2.019531 7.371094-5.824218 7.976563-3.804688.601562-7.382813-1.980469-8.003906-5.785156l-7.625-48.050782c-.296876-.71875-.472657-1.480468-.519532-2.253906-.027344-.472656-.046875-.941406-.0625-1.410156l-17.949218-113.128906c-2.5-13.566407-13.042969-23.242188-24.601563-22.539063-9.449219.582031-18.527344 9.074219-17.691406 24.183594l22.535156 189.550781c.359375 3.007812-1.25 5.910156-3.992187 7.195312-2.742188 1.285157-6 .671876-8.082032-1.527343l-24.453125-26.199219c-6.371093-7.027344-15.40625-11.050781-24.886719-11.082031h-.285156c-9.171875-.035157-17.949218 3.710937-24.265625 10.359375-.085937.085937-.167969-.027344-.253906.054687l-3.941406 3.699219 87.988281 146.34375c13.832031 23 38.109375 36.328125 63.386719 34.777344l91.179687-5.609375c38.535156-2.367188 67.839844-38.097657 65.324219-79.660157-1.324219-21.917968-2.3125-38.296874-3.113281-51.605468zm0 0"/><path d="m385.367188 27.355469h-180.535157l15.40625-15.40625c2.730469-2.734375 2.730469-7.164063 0-9.898438-2.734375-2.734375-7.167969-2.734375-9.902343 0l-28.148438 28.148438c-2.734375 2.734375-2.734375 7.167969 0 9.902343l28.148438 28.148438c2.734374 2.734375 7.167968 2.734375 9.902343 0 2.730469-2.734375 2.730469-7.167969 0-9.902344l-16.996093-16.992187h182.125c3.867187 0 7-3.132813 7-7 0-3.863281-3.132813-7-7-7zm0 0"/><path d="m385.367188 117.355469h-180.535157l15.40625-15.40625c2.730469-2.734375 2.730469-7.164063 0-9.898438-2.734375-2.734375-7.167969-2.734375-9.902343 0l-28.148438 28.148438c-2.734375 2.734375-2.734375 7.167969 0 9.898437l28.148438 28.152344c2.734374 2.730469 7.167968 2.730469 9.902343 0 2.730469-2.734375 2.730469-7.167969 0-9.902344l-16.996093-16.992187h182.125c3.867187 0 7-3.132813 7-7 0-3.863281-3.132813-7-7-7zm0 0"/></svg>