<svg height="450pt" viewBox="-29 0 450 450.70435" width="450pt" xmlns="http://www.w3.org/2000/svg"><path d="m305.101562 313.472656c-2.160156-35.851562-2.964843-49.265625-5.484374-88.730468-.808594-12.691407-10.890626-22.425782-22.507813-21.726563l-.621094.039063c-11.582031.710937-20.378906 11.5625-19.679687 24.226562l1.117187 18.175781c.175781 2.511719-1.003906 4.925781-3.097656 6.320313-2.09375 1.394531-4.777344 1.5625-7.027344.433594-2.25-1.128907-3.71875-3.378907-3.847656-5.894532l-1.101563-17.929687-.003906-.085938-.011718-.199219-.925782-15.050781c-.316406-6.109375-2.949218-11.867187-7.359375-16.109375-4.027343-3.960937-9.546875-6.027344-15.183593-5.679687-5.636719.34375-10.863282 3.070312-14.371094 7.5-3.859375 4.746093-5.765625 10.785156-5.332032 16.886719v.085937l2.164063 35.179687c.175781 2.511719-1.007813 4.921876-3.097656 6.316407-2.09375 1.398437-4.777344 1.5625-7.023438.433593-2.25-1.128906-3.71875-3.375-3.851562-5.890624l-2.765625-44.949219c-.785156-12.730469-10.863282-22.507813-22.511719-21.792969l-.65625.042969c-11.101563.679687-19.640625 10.667969-19.71875 22.636719l8.042969 50.710937c.585937 3.808594-2.015625 7.375-5.824219 7.976563-3.804687.605468-7.378906-1.980469-8.003906-5.78125l-7.621094-48.050782c-.300781-.71875-.476563-1.480468-.523437-2.257812-.027344-.472656-.046876-.941406-.0625-1.414063l-17.945313-113.128906c-2.5-13.5625-13.042969-23.242187-24.59375-22.539063-9.449219.582032-18.527344 9.074219-17.691406 24.183594l22.535156 189.554688c.359375 3.007812-1.246094 5.90625-3.992187 7.195312-2.742188 1.285156-6 .667969-8.082032-1.53125l-24.453125-26.199218c-6.371093-7.027344-15.40625-11.050782-24.890625-11.078126h-.285156c-9.167969-.039062-17.949219 3.710938-24.265625 10.359376-.082031.082031-.167969-.027344-.253906.054687l-3.941407 3.699219 87.988282 146.339844c13.832031 23 38.128906 36.328124 63.386718 34.777343l91.179688-5.605469c38.535156-2.371093 67.839844-38.101562 65.324219-79.664062-1.335938-22.046875-2.324219-38.488281-3.128907-51.839844zm0 0"/><path d="m361.625 92.050781c-2.734375-2.734375-7.164062-2.734375-9.898438 0-2.734374 2.734375-2.734374 7.164063 0 9.898438l17.40625 17.402343h-182c-3.867187 0-7 3.132813-7 7 0 3.863282 3.132813 7 7 7h179.585938l-14.992188 14.992188c-2.734374 2.734375-2.734374 7.167969 0 9.902344 2.734376 2.730468 7.164063 2.730468 9.898438 0l28.152344-28.152344c2.734375-2.730469 2.734375-7.164062 0-9.898438zm0 0"/><path d="m361.625 2.050781c-2.734375-2.734375-7.164062-2.734375-9.898438 0-2.734374 2.734375-2.734374 7.164063 0 9.898438l17.40625 17.402343h-182c-3.867187 0-7 3.132813-7 7 0 3.863282 3.132813 7 7 7h179.585938l-14.992188 14.992188c-2.734374 2.734375-2.734374 7.167969 0 9.902344 2.734376 2.730468 7.164063 2.730468 9.898438 0l28.152344-28.152344c2.734375-2.730469 2.734375-7.164062 0-9.898438zm0 0"/></svg>