<svg height="438pt" viewBox="-3 0 438 438.16502" width="438pt" xmlns="http://www.w3.org/2000/svg"><path d="m357.550781 199.164062h-.625c-11.648437 0-21.40625 10.390626-21.40625 23.144532v18.054687c0 3.867188-3.132812 7-7 7-3.863281 0-7-3.132812-7-7v-33.335937c0-12.753906-9.316406-23.132813-20.964843-23.132813-11.71875 0-21.035157 10.378907-21.035157 23.132813v35.335937c0 3.867188-3.132812 7-7 7-3.863281 0-7-3.132812-7-7v-184.035156c0-12.753906-9.527343-23.164063-21.175781-23.164063h-.664062c-11.648438 0-21.160157 10.40625-21.160157 23.15625v188.734376c0 3.867187-3.132812 7-7 7-3.863281 0-7-3.132813-7-7v-167.011719c0-12.308594-9.738281-22.167969-21.097656-22.167969-11.648437 0-21.113281 10.371094-21.121094 23.117188l-.132812 190.898437c-.003907 2.957031-1.863281 5.589844-4.644531 6.585937-2.78125.996094-5.890626.136719-7.765626-2.148437l-22.792968-27.75c-5.925782-7.429687-14.675782-12.058594-24.148438-12.785156-9.273437-.617188-18.386718 2.648437-25.15625 9.015625-.085937.082031-.175781.140625-.265625.214844l-4.160156 3.417968 78.839844 151.328125c12.394531 23.8125 35.820312 38.394531 61.136719 38.394531h91.347656c38.609375 0 70.054687-33.660156 70.09375-75.292968.019531-22.074219.042968-38.367188.058594-51.734375.046874-35.933594.0625-49.363281-.027344-88.917969-.03125-12.71875-9.507813-23.054688-21.132813-23.054688zm0 0"/><path d="m398.78125 92.074219c-2.734375-2.730469-7.167969-2.730469-9.902344 0-1.3125 1.300781-2.050781 3.070312-2.050781 4.917969 0 1.847656.738281 3.617187 2.050781 4.914062l20.332032 20.257812h-105.691407c-3.863281 0-7 3.136719-7 7 0 3.867188 3.136719 7 7 7h105.390625l-20.027344 20.101563c-2.003906 2.007813-2.601562 5.023437-1.519531 7.648437 1.082031 2.621094 3.632813 4.335938 6.46875 4.351563 1.855469.003906 3.636719-.730469 4.949219-2.042969l32.125-32.121094c2.734375-2.734374 2.734375-7.167968 0-9.902343zm0 0"/><path d="m398.78125 2.074219c-2.734375-2.734375-7.167969-2.734375-9.902344 0-1.308594 1.300781-2.046875 3.070312-2.046875 4.914062 0 1.847657.738281 3.617188 2.046875 4.917969l20.332032 20.257812h-105.691407c-3.863281 0-7 3.136719-7 7 0 3.867188 3.136719 7 7 7h105.390625l-20.027344 20.101563c-2.003906 2.007813-2.601562 5.023437-1.519531 7.648437 1.082031 2.621094 3.632813 4.335938 6.46875 4.351563 1.855469.003906 3.636719-.730469 4.949219-2.042969l32.125-32.121094c2.734375-2.734374 2.734375-7.167968 0-9.902343zm0 0"/><path d="m44.160156 2.042969c-2.738281-2.730469-7.171875-2.722657-9.902344.015625l-32.125 32.136718c-2.734374 2.734376-2.734374 7.167969 0 9.90625l32.128907 32.128907c2.734375 2.734375 7.164062 2.734375 9.898437 0 2.734375-2.761719 2.734375-7.207031 0-9.96875l-20.027344-20.097657h106.386719c3.867188 0 7-3.132812 7-7 0-3.863281-3.132812-7-7-7h-106.6875l20.328125-20.257812c1.3125-1.304688 2.050782-3.082031 2.050782-4.933594 0-1.851562-.738282-3.625-2.050782-4.929687zm0 0"/><path d="m24.132812 136.164062h106.386719c3.867188 0 7-3.132812 7-7 0-3.863281-3.132812-7-7-7h-106.6875l20.328125-20.257812c2.722656-2.730469 2.714844-7.15625-.023437-9.878906-2.734375-2.71875-7.160157-2.707032-9.878907.03125l-32.125 32.136718c-2.734374 2.734376-2.734374 7.167969 0 9.90625l32.128907 32.128907c2.734375 2.734375 7.164062 2.734375 9.898437 0 2.734375-2.761719 2.734375-7.210938 0-9.96875zm0 0"/></svg>