<svg height="428pt" viewBox="-24 0 428 428" width="428pt" xmlns="http://www.w3.org/2000/svg"><path d="m291 205.398438v-166.398438h-251v316h183.554688l-46.445313-88.976562c-1.523437-2.847657-.789063-6.375 1.742187-8.375l5.34375-4.433594c6.664063-6.167969 15.578126-9.308594 24.636719-8.6875 9.253907.675781 17.8125 5.167968 23.621094 12.402344l2.273437 2.761718.070313-103.300781c.011719-14.539063 11.269531-26.367187 25.101563-26.367187 13.828124 0 25.101562 11.832031 25.101562 26.382812v51.171875c1.90625-.960937 3.921875-1.691406 6-2.179687zm0 0"/><path d="m331 398h-51.945312c-19.664063 0-37.851563-11-48.125-29h-198.21875c-1.773438.101562-3.507813-.546875-4.785157-1.78125-1.273437-1.238281-1.972656-2.949219-1.925781-4.726562v-330.660157c-.058594-1.808593.625-3.5625 1.890625-4.851562 1.269531-1.292969 3.007813-2.007813 4.820313-1.980469h265.398437c1.828125-.035156 3.589844.675781 4.886719 1.960938 1.300781 1.285156 2.023437 3.042968 2.003906 4.871093v174.636719c5.035156 1.996094 9.304688 5.546875 12.183594 10.136719 3.933594-3.195313 8.757812-5.097657 13.816406-5.441407v-178.023437c0-18.136719-14.5625-33.140625-32.71875-33.140625h-265.78125c-18.132812 0-32.5 15.003906-32.5 33.160156v361.699219c0 18.140625 14.367188 33.140625 32.523438 33.140625h276.160156c6.1875 0 12.105468-2.527344 16.386718-6.992188 4.128907-4.285156 6.328126-10.074218 6.082032-16.019531 0-.070312-.152344-.175781-.152344-.25zm-153.039062 7h-25.101563c-3.867187 0-7-3.132812-7-7s3.132813-7 7-7h25.101563c3.863281 0 7 3.132812 7 7s-3.136719 7-7 7zm0 0"/><path d="m369.355469 235h-.398438c-6.121093 0-10.953125 5.492188-10.953125 12.324219v11.613281c0 3.867188-3.136718 7-7 7-3.867187 0-7-3.132812-7-7v-21.445312c0-6.832032-4.859375-12.390626-10.980468-12.390626-6.164063 0-11.019532 5.558594-11.019532 12.390626v22.734374c0 3.863282-3.136718 7-7 7-3.867187 0-7-3.136718-7-7v-28.976562c0-6.832031-5.367187-12.25-11.488281-12.25h-.425781c-5.949219 0-11.089844 5.109375-11.089844 11.671875v32.574219c0 3.863281-3.132812 7-7 7s-7-3.136719-7-7v-31.59375c0-.136719-.011719-.269532-.011719-.410156 0-.269532.011719-.542969.011719-.8125v-74.023438c0-6.832031-4.980469-12.386719-11.101562-12.386719-6.121094 0-11.097657 5.550781-11.097657 12.378907l-.085937 122.828124c-.003906 2.957032-1.859375 5.59375-4.644532 6.585938-2.78125.996094-5.890624.136719-7.765624-2.148438l-14.664063-17.851562c-3.382813-4.246094-8.375-6.894531-13.785156-7.316406-5.28125-.347656-10.472657 1.519531-14.320313 5.152344-.089844.082031-.175781.160156-.269531.238281l-1.125.933593 49.800781 95.675782c7.542969 14.492187 21.765625 23.5 37.121094 23.5h58.777344c23.464844 0 42.574218-20.683594 42.597656-46.097656.011719-14.238282.027344-24.859376.039062-33.472657.03125-23.085937.039063-31.691406-.019531-57.113281-.019531-6.804688-4.996093-12.3125-11.101562-12.3125zm0 0"/></svg>