<svg height="449pt" viewBox="-74 0 449 449.77474" width="449pt" xmlns="http://www.w3.org/2000/svg"><path d="m280.703125 209.773438h-.625c-11.652344 0-20.933594 10.296874-20.933594 23.050781v18.050781c0 3.867188-3.136719 7-7 7-3.867187 0-7-3.132812-7-7v-33.332031c0-12.757813-9.816406-23.132813-21.46875-23.132813-11.714843 0-21.53125 10.375-21.53125 23.132813v35.332031c0 3.867188-3.136719 7-7 7-3.867187 0-7-3.132812-7-7v-184.03125c0-12.757812-9-23.070312-20.648437-23.070312h-.664063c-11.648437 0-21.6875 10.308593-21.6875 23.0625v188.734374c0 3.863282-3.136719 7-7 7-3.867187 0-7-3.136718-7-7v-167.023437c0-12.304687-9.480469-22.15625-20.832031-22.15625-11.648438 0-20.851562 10.371094-20.859375 23.113281l-.132813 190.902344c0 2.957031-1.859374 5.59375-4.640624 6.589844s-5.890626.136718-7.769532-2.148438l-22.789062-27.742187c-5.929688-7.425781-14.679688-12.050781-24.152344-12.769531-9.277344-.605469-18.386719 2.671874-25.15625 9.042968-.085938.082032-.175781.203125-.265625.277344l-4.160156 3.539062 78.839843 151.632813c12.394532 23.816406 35.816407 38.945313 61.136719 38.945313h91.347657c38.609374 0 70.050781-34.207032 70.089843-75.839844.023438-22.078125.042969-38.886719.0625-52.257813.046875-35.925781.0625-49.328125-.03125-88.878906-.027343-12.71875-9.503906-23.023437-21.128906-23.023437zm0 0"/><path d="m50.933594 91.414062c3.867187 0 7-3.136718 7-7 0-15.304687 7.042968-29.757812 19.101562-39.179687 12.058594-9.425781 27.78125-12.769531 42.632813-9.070313 2.707031.675782 5.558593-.324218 7.253906-2.542968 12.914063-16.980469 35.226563-23.824219 55.441406-17.007813 20.214844 6.816407 33.824219 25.773438 33.816407 47.109375 0 3.863282 3.132812 7 7 7 3.867187 0 7-3.136718 7-7 .011718-26.515625-16.40625-50.265625-41.214844-59.625-24.804688-9.355468-52.816406-2.367187-70.320313 17.550782-18.542969-3.253907-37.570312 1.863281-51.984375 13.972656-14.410156 12.105468-22.730468 29.96875-22.726562 48.792968 0 3.863282 3.136718 7 7 7zm0 0"/></svg>