<svg height="458pt" viewBox="-72 0 458 458" width="458pt" xmlns="http://www.w3.org/2000/svg"><path d="m110.730469 281.078125c-1.523438-2.859375-.792969-6.402344 1.742187-8.429687l5.347656-4.433594c6.664063-6.167969 15.578126-9.3125 24.640626-8.6875 9.257812.675781 17.820312 5.167968 23.636718 12.402344l2.292969 2.761718.121094-103.300781c.007812-14.539063 11.367187-26.367187 25.191406-26.367187 13.847656 0 25.300781 11.835937 25.300781 26.386718v51.175782c3.28125-1.78125 6.972656-2.671876 10.703125-2.585938h.425781c8.476563.050781 16.332032 4.460938 20.789063 11.675781 2.195313-1.640625 4.570313-3.03125 7.078125-4.136719v-148.539062h-258v284h153.46875zm0 0"/><path d="m142.972656 417.503906c0 7.703125-6.246094 13.945313-13.945312 13.945313-7.703125 0-13.945313-6.242188-13.945313-13.945313 0-7.699218 6.242188-13.945312 13.945313-13.945312 7.699218 0 13.945312 6.246094 13.945312 13.945312zm0 0"/><path d="m258 33.367188c0-18.195313-14.636719-33.367188-32.832031-33.367188h-192.285157c-18.195312 0-32.882812 15.171875-32.882812 33.367188v31.632812h258zm-94.9375 3.632812h-68.070312c-3.867188 0-7-3.132812-7-7s3.132812-7 7-7h68.070312c3.867188 0 7 3.132812 7 7s-3.132812 7-7 7zm0 0"/><path d="m302.972656 250h-.398437c-6.121094 0-11.570313 5.492188-11.570313 12.324219v11.613281c0 3.867188-3.136718 7-7 7-3.867187 0-7-3.132812-7-7v-21.445312c0-6.832032-4.859375-12.390626-10.980468-12.390626-6.164063 0-11.019532 5.558594-11.019532 12.390626v22.734374c0 3.863282-3.136718 7-7 7-3.867187 0-7-3.136718-7-7v-28.976562c0-6.832031-4.75-12.25-10.871094-12.25h-.425781c-5.949219 0-10.707031 5.109375-10.707031 11.671875v32.574219c0 3.863281-3.132812 7-7 7s-7-3.136719-7-7v-31.59375c0-.136719-.011719-.273438-.011719-.410156 0-.269532.011719-.539063.011719-.808594v-74.027344c0-6.832031-5.171875-12.386719-11.289062-12.386719-6.121094 0-11.289063 5.550781-11.296876 12.378907l-.085937 122.828124c0 2.957032-1.859375 5.59375-4.640625 6.585938-2.785156.996094-5.890625.136719-7.765625-2.148438l-14.667969-17.851562c-3.378906-4.242188-8.375-6.890625-13.785156-7.3125-5.28125-.34375-10.46875 1.523438-14.320312 5.15625-.085938.078125-.175782.15625-.265626.234375l-1.128906.9375 49.800782 95.675781c7.546874 14.484375 21.765624 23.496094 37.121093 23.496094h58.773438c23.46875 0 42.578125-20.683594 42.601562-46.101562.011719-14.234376.027344-24.859376.039063-33.46875.027344-23.085938.039062-31.695313-.019532-57.117188-.011718-6.804688-4.992187-12.3125-11.097656-12.3125zm0 0"/><path d="m163.136719 381.769531-2.382813-4.769531h-160.753906v47.632812c0 18.195313 14.6875 33.367188 32.882812 33.367188h192.285157c18.199219 0 32.832031-15.171875 32.832031-33.367188v-11.632812h-45.324219c-20.597656 0-39.574219-12.089844-49.539062-31.230469zm-34.109375 63.679688c-15.433594 0-27.945313-12.511719-27.945313-27.945313s12.511719-27.945312 27.945313-27.945312 27.945312 12.511718 27.945312 27.945312c-.019531 15.429688-12.519531 27.929688-27.945312 27.945313zm0 0"/></svg>