<svg height="434pt" viewBox="-68 0 434 434" width="434pt" xmlns="http://www.w3.org/2000/svg"><path d="m274.828125 170h-.6875c-13.152344 0-23.753906 11.40625-23.753906 25.773438v19.800781c0 3.863281-3.132813 7-7 7-3.863281 0-7-3.136719-7-7v-36.5625c0-14.367188-10.808594-26.054688-23.960938-26.054688-13.226562 0-24.039062 11.6875-24.039062 26.054688v38.753906c0 3.867187-3.132813 7-7 7-3.863281 0-7-3.132813-7-7v-191.394531c0-14.363282-10.585938-26.371094-23.742188-26.371094h-.722656c-13.152344 0-23.535156 12-23.535156 26.359375v196.558594c0 3.863281-3.132813 7-7 7-3.863281 0-7-3.136719-7-7v-183.214844c-1-13.867187-11.144531-24.976563-23.96875-24.976563-13.152344 0-23.988281 11.675782-24 26.03125l-.03125 127.757813v.050781l-.113281 81.515625c-.015626 1.855469-.769532 3.625-2.09375 4.921875-1.324219 1.296875-3.105469 2.015625-4.960938 1.996094-1.847656.019531-3.628906-.699219-4.941406-2-1.316406-1.296875-2.058594-3.070312-2.058594-4.917969l.046875-65.320312-39.855469 37.507812c-9.792968 9.183594-13.035156 23.390625-8.191406 35.914063l51.183594 133.292968c13.757812 26.140626 39.585937 42.523438 67.484375 42.523438h100.203125c42.722656 0 77.515625-37.617188 77.5625-83.65625.023437-24.207031.046875-42.425781.066406-57.089844.046875-39.414062.066406-54.023437-.03125-97.414062-.035156-14.324219-10.738281-25.839844-23.859375-25.839844zm0 0"/></svg>