<svg height="404pt" viewBox="-69 0 404 404" width="404pt" xmlns="http://www.w3.org/2000/svg"><path d="m245.152344 164h-.625c-11.652344 0-21.34375 10.664062-21.34375 23.421875v18.050781c0 3.867188-3.132813 7-7 7-3.867188 0-7-3.132812-7-7v-33.332031c0-12.757813-9.371094-23.136719-21.023438-23.136719-6.027344.035156-11.722656 2.777344-15.507812 7.472656l-5.621094 51.746094c-.421875 3.84375-3.878906 6.617188-7.722656 6.195313s-6.617188-3.878907-6.195313-7.722657l5.816407-53.550781c.011718-.125.023437-.285156.039062-.40625l14.101562-129.808593c-.175781-12.589844-9.585937-22.929688-21.128906-22.929688h-.660156c-11.648438 0-21.125 10.527344-21.128906 23.277344 0 .246094-.011719.648437-.039063.894531l-19.980469 187.28125c.394532 3.828125-2.367187 7.253906-6.191406 7.679687-3.824218.425782-7.273437-2.3125-7.722656-6.132812l-20-166.046875c-.035156-.277344-.050781-.554687-.050781-.835937 0-12.753907-9.480469-23.132813-21.128907-23.132813-11.542968 0-20.957031 10.183594-21.136718 22.773437l12.742187 122.441407c.007813.050781.011719.101562.015625.148437l7.070313 67.929688c.402343 3.84375-2.390625 7.289062-6.234375 7.691406s-7.289063-2.390625-7.691406-6.234375l-5.507813-52.917969-25.074219 26.304688c-8.632812 8.957031-11.484375 22.015625-7.367187 33.753906l42.050781 120.808594c12.449219 23.550781 35.742188 38.316406 60.902344 38.316406h91.347656c38.609375 0 70.054688-34.023438 70.09375-75.65625.019531-22.078125.042969-38.699219.058594-52.074219.046875-35.921875.0625-49.507812-.027344-89.058593-.03125-12.71875-9.507812-23.210938-21.128906-23.210938zm0 0"/></svg>