<svg height="433pt" viewBox="-67 0 433 433.42" width="433pt" xmlns="http://www.w3.org/2000/svg"><path d="m236.566406 419.445312-27.734375-2.386718 1.371094-15.476563-13.945313-1.238281-1.375 15.515625-27.785156-2.390625c-2.503906-.234375-4.941406.890625-6.386718 2.945312-1.445313 2.058594-1.675782 4.734376-.601563 7.007813 1.070313 2.277344 3.28125 3.800781 5.789063 3.996094l69.464843 5.976562c.203125.015625.40625.027344.609375.027344 3.75 0 6.835938-2.957031 6.992188-6.707031.160156-3.746094-2.664063-6.953125-6.402344-7.269532zm0 0"/><path d="m222.285156 157.488281c17.144532 1.472657 33.707032-3.101562 46.652344-12.875 12.136719-9.171875 19.730469-21.964843 21.578125-36.21875-9.953125-2.726562-15.554687-8.945312-20.199219-14.128906-5.007812-5.582031-8.964844-9.992187-17.964844-10.765625-9.023437-.773438-13.652343 2.894531-19.539062 7.539062-6.632812 5.230469-14.90625 11.742188-29.410156 10.5-14.519532-1.25-21.542969-9.074218-27.183594-15.363281-3.464844-3.863281-6.429688-7.160156-10.898438-9.082031l-1.746093 18.179688c-1.285157 14.945312 4.03125 29.679687 14.972656 41.421874 11.496094 12.117188 27.085937 19.527344 43.738281 20.792969zm0 0"/><path d="m166.6875 62.753906c9.796875 2.761719 15.335938 8.925782 19.949219 14.066406 5.007812 5.582032 8.960937 9.992188 17.964843 10.765626 9 .773437 13.652344-2.894532 19.539063-7.539063 6.632813-5.230469 14.886719-11.746094 29.40625-10.5 14.523437 1.246094 21.542969 9.074219 27.183594 15.363281 3.539062 3.941406 6.558593 7.292969 11.191406 9.199219l7.972656-83.167969-127.195312-10.941406zm0 0"/><path d="m.210938 197.710938h50v212h-50zm0 0"/><path d="m272.074219 214.453125-23.496094-.105469c-.0625 0-.125.019532-.1875.019532l-46.492187-.191407c-2.457032.078125-4.765626-1.195312-6.015626-3.316406s-1.242187-4.753906.019532-6.867187c1.257812-2.113282 3.574218-3.375 6.03125-3.28125h33.175781l-12.945313-19.042969c-10.515624-15.246094-30.394531-20.847657-47.324218-13.339844-.144532.0625-.40625.085937-.554688.140625l-110.074218 40.316406v185.101563c71 .289062 141.167968.824219 179.617187.824219h.023437c10.335938 0 18.761719-7.878907 18.800782-17.277344v-.566406c.03125-9.425782-8.382813-17.15625-18.757813-17.15625h-.035156l-15.429687-.148438c-1.84375.019531-3.621094-.699219-4.929688-1.996094-1.3125-1.296875-2.046875-3.066406-2.046875-4.910156.015625-3.851562 3.148437-6.960938 7-6.945312h28.65625c4.96875.03125 9.761719-1.820313 13.421875-5.179688 3.40625-3.035156 5.363281-7.375 5.378906-11.9375.015625-4.566406-1.910156-8.917969-5.296875-11.976562-3.65625-3.386719-8.464843-5.253907-13.445312-5.226563l-30.285157-.089844c-2.492187.09375-4.839843-1.179687-6.113281-3.324219-1.273437-2.144531-1.269531-4.816406.011719-6.957031 1.277344-2.144531 3.625-3.414062 6.117188-3.308593h.019531l30.25.050781c.019531 0 .019531-.050781.027343-.050781h8.382813c4.980469-.011719 9.777344-1.90625 13.421875-5.300782 3.382812-3.078125 5.332031-7.425781 5.378906-12v-.601562c.03125-9.183594-7.949218-16.75-17.949218-17.164063l-43.410157-.164062c-3.800781-.007813-6.878906-3.097657-6.871093-6.898438.003906-3.800781 3.09375-6.878906 6.894531-6.871093h42.167969c.152343-.039063.308593-.066407.46875-.085938.34375 0 .691406.058594 1.035156.070312l5.226562.011719h.074219c4.964844.039063 9.761719-1.804687 13.421875-5.160156 3.382812-3.042969 5.332031-7.363281 5.378906-11.914063.03125-9.421874-8.378906-17.136718-18.742187-17.179687zm0 0"/></svg>