<svg height="432pt" viewBox="0 0 432.8546 432" width="432pt" xmlns="http://www.w3.org/2000/svg"><path d="m412.894531 203.007812h-.597656c-10.96875 0-19.867187 10.066407-19.867187 22.09375v17.257813c0 3.867187-3.136719 7-7 7-3.867188 0-7-3.132813-7-7v-31.871094c0-12.027343-9-21.8125-19.96875-21.8125-11.03125 0-20.03125 9.785157-20.03125 21.8125v33.785157c0 3.867187-3.136719 7-7 7-3.867188 0-7-3.132813-7-7v-43.058594c0-12.027344-8.8125-22.207032-19.785157-22.207032h-.632812c-10.699219 0-19.582031 9.695313-19.582031 21.300782v48.449218c0 3.867188-3.136719 7-7 7-3.867188 0-7-3.132812-7-7v-47.066406c0-.160156-.019532-.324218-.019532-.484375 0-.378906.019532-.753906.019532-1.128906v-110.085937c0-12.027344-9.074219-21.8125-20.046876-21.8125-10.96875 0-20.042968 9.777343-20.050781 21.800781l-.128906 182.527343c0 2.957032-1.855469 5.59375-4.640625 6.589844-2.78125.996094-5.890625.136719-7.765625-2.148437l-21.792969-26.527344c-5.617187-7.035156-13.902344-11.417969-22.878906-12.101563-8.785156-.574218-17.414062 2.527344-23.820312 8.5625-.089844.082032-.175782.183594-.269532.261719l-3.785156 3.191407 75.269531 144.714843c11.796875 22.667969 34.09375 36.957031 58.179688 36.957031h87.347656c36.75 0 66.675781-32.457031 66.714844-72.097656.019531-21.140625.039062-37.109375.058593-49.902344.042969-34.328124.058594-47.3125-.03125-85.109374-.027343-11.988282-8.949218-21.890626-19.894531-21.890626zm0 0"/><path d="m86.148438 28.367188c-32.148438 0-58.207032 26.0625-58.207032 58.210937 0 32.144531 26.058594 58.207031 58.207032 58.207031 32.148437 0 58.210937-26.0625 58.210937-58.207031-.039063-32.132813-26.078125-58.175781-58.210937-58.210937zm27.355468 70.640624h-31.265625c-1.789062.089844-3.535156-.5625-4.828125-1.808593-1.289062-1.242188-2.007812-2.964844-1.980468-4.757813v-41.03125c0-3.867187 3.132812-7 7-7 3.863281 0 7 3.132813 7 7v33.597656h24.074218c3.867188 0 7 3.132813 7 7 0 3.867188-3.132812 7-7 7zm0 0"/><path d="m172.296875 86.578125c0-47.582031-38.570313-86.152344-86.148437-86.152344-47.578126 0-86.148438 38.570313-86.148438 86.148438s38.570312 86.148437 86.148438 86.148437c47.554687-.054687 86.09375-38.589844 86.148437-86.144531zm-86.148437 72.207031c-39.878907 0-72.207032-32.328125-72.207032-72.207031 0-39.882813 32.328125-72.210937 72.207032-72.210937 39.878906 0 72.210937 32.328124 72.210937 72.210937-.046875 39.859375-32.347656 72.164063-72.210937 72.207031zm0 0"/></svg>