<svg height="459pt" viewBox="-39 0 459 459.13787" width="459pt" xmlns="http://www.w3.org/2000/svg"><path d="m374.355469 306.710938-.441407-.324219c-7.761718-5.699219-19.167968-3.417969-25.46875 5.078125l-9.371093 12.761718c-2.289063 3.117188-6.671875 3.789063-9.785157 1.5-3.117187-2.289062-3.789062-6.671874-1.5-9.785156l9.285157-12.640625.03125-.042969.066406-.09375 7.820313-10.644531c3.0625-4.085937 4.457031-9.183593 3.898437-14.257812-.453125-4.652344-2.867187-8.894531-6.636719-11.660157-3.765625-2.769531-8.535156-3.804687-13.113281-2.84375-4.996094.980469-9.433594 3.824219-12.417969 7.953126l-18.257812 24.855468c-2.289063 3.117188-6.671875 3.789063-9.785156 1.5-3.117188-2.289062-3.789063-6.671875-1.5-9.789062l18.222656-24.808594.011718-.019531.035157-.042969 4.972656-6.773438c6.289063-8.5625 5.070313-20.179687-2.71875-25.898437l-.464844-.34375c-7.582031-5.566406-18.640625-3.519531-25.019531 4.5l-26.15625 35.613281c-2.289062 3.113282-6.667969 3.785156-9.785156 1.496094-3.117188-2.289062-3.785156-6.667969-1.5-9.785156l25.386718-34.5625c.082032-.132813.171876-.261719.269532-.390625.210937-.289063.421875-.570313.640625-.847657l59.394531-80.863281c6.289062-8.566406 5.070312-20.183593-2.71875-25.902343-7.785156-5.714844-19.230469-3.410157-25.523438 5.144531l-108.011718 149.503906c-1.660156 2.300781-4.542969 3.367187-7.300782 2.710937-2.757812-.660156-4.847656-2.914062-5.289062-5.714843l-11.011719-69.644531c-.039062-.238282-.0625-.476563-.078125-.714844-.316406-8.03125-3.960937-15.566406-10.054687-20.808594-6.011719-5.054688-13.855469-7.382812-21.652344-6.429688-.117187.011719-.234375.023438-.351563.03125l-3.214843.1875-4.589844 168.441407c-.007813.296875-.035156.589843-.082031.878906-3.527344 22.796875 5.160156 44.949219 22.675781 57.8125l64.183594 47.140625c26.730469 19.632812 65.738281 12.144531 86.957031-16.683594 11.421875-15.519531 19.941406-27.089844 26.859375-36.480468 18.558594-25.199219 25.503906-34.632813 45.839844-62.457032 6.25-8.550781 5.019531-20.152344-2.75-25.855468zm0 0"/><path d="m368.300781 4.359375c-1.457031-3.578125-5.539062-5.300781-9.121093-3.84375l-98.164063 39.953125 11.019531-26.140625c1.007813-2.3125.691406-4.984375-.820312-7-1.515625-2.015625-3.996094-3.0625-6.496094-2.738281-2.5.324218-4.632812 1.964844-5.585938 4.300781l-17.652343 41.863281c-1.5 3.5625.167969 7.667969 3.730469 9.167969l41.871093 17.644531c2.308594 1.007813 4.984375.695313 7-.816406 2.015625-1.515625 3.0625-3.996094 2.738281-6.496094-.324218-2.5-1.96875-4.636718-4.300781-5.585937l-26.445312-11.148438 98.382812-40.035156c3.582031-1.457031 5.300781-5.542969 3.84375-9.125zm0 0"/><path d="m122.832031 99.039062-41.867187-17.644531c-2.308594-1.007812-4.984375-.695312-7 .820313-2.015625 1.511718-3.0625 3.992187-2.738282 6.496094.324219 2.5 1.96875 4.632812 4.304688 5.582031l26.136719 11.019531-97.238281 39.570312c-3.578126 1.457032-5.300782 5.542969-3.84375 9.121094 1.457031 3.582032 5.539062 5.304688 9.121093 3.847656l97.457031-39.660156-11.144531 26.449219c-1 2.308594-.683593 4.976563.828125 6.988281 1.511719 2.011719 3.988282 3.054688 6.488282 2.734375 2.496093-.320312 4.625-1.957031 5.582031-4.285156l17.648437-41.867187c1.5-3.5625-.171875-7.667969-3.734375-9.171876zm0 0"/></svg>