<svg height="476pt" viewBox="-48 0 476 476.59946" width="476pt" xmlns="http://www.w3.org/2000/svg"><path d="m374.5 324.175781-.433594-.320312c-3.777344-2.734375-8.527344-3.761719-13.09375-2.828125-4.992187.980468-9.421875 3.820312-12.402344 7.941406l-9.347656 12.722656c-2.296875 3.101563-6.664062 3.757813-9.769531 1.476563-3.109375-2.28125-3.785156-6.648438-1.515625-9.761719l9.300781-12.660156.015625-.023438.039063-.050781 7.847656-10.6875c6.289063-8.5625 5.074219-20.183594-2.714844-25.898437-7.785156-5.71875-19.179687-3.460938-25.488281 5l-18.320312 24.945312c-1.46875 2.042969-3.925782 3.140625-6.425782 2.871094-2.503906-.265625-4.671875-1.859375-5.675781-4.167969s-.691406-4.976563.820313-6.992187l18.175781-24.753907c.015625-.023437.03125-.046875.050781-.070312.035156-.054688.074219-.101563.113281-.15625l4.890625-6.660157c6.289063-8.5625 5.070313-20.183593-2.714844-25.898437l-.460937-.335937c-7.585937-5.574219-18.640625-3.53125-25.019531 4.480468l-26.164063 35.621094c-1.46875 2.042969-3.925781 3.140625-6.425781 2.871094-2.503906-.269532-4.671875-1.859375-5.675781-4.167969-1.003907-2.308594-.691407-4.976563.820312-6.992187l25.378907-34.554688c.085937-.136719.175781-.269531.273437-.402344.210937-.289062.429687-.574218.648437-.855468l59.386719-80.851563c6.289063-8.566406 5.070313-20.1875-2.714843-25.902344l-.042969-.03125c-7.785157-5.679687-19.199219-3.363281-25.484375 5.175781l-108.011719 149.503907c-1.660156 2.300781-4.542969 3.371093-7.300781 2.710937-2.757813-.65625-4.847656-2.914062-5.289063-5.714844l-11.015625-69.644531c-.035156-.234375-.0625-.472656-.074218-.714843-.316407-8.03125-3.960938-15.570313-10.054688-20.8125-6.011719-5.054688-13.855469-7.386719-21.652344-6.429688-.117187.011719-.234375.023438-.351562.03125l-3.214844.1875-4.589844 168.441406c-.007812.296875-.035156.589844-.082031.878906-3.527344 22.796876 5.160156 44.949219 22.675781 57.8125l64.183594 47.140626c26.730469 19.632812 65.742188 12.148437 86.957031-16.683594 11.382813-15.46875 19.882813-27.007813 26.785157-36.382813 18.59375-25.246093 25.550781-34.695312 45.914062-62.554687 6.253906-8.546875 5.019531-20.148438-2.75-25.851563zm0 0"/><path d="m248.039062 77.828125c.90625 0 1.800782-.175781 2.636719-.515625l98.269531-39.992188-11.148437 26.449219c-1 2.308594-.683594 4.980469.828125 6.988281 1.515625 2.011719 3.988281 3.058594 6.488281 2.734376 2.496094-.320313 4.625-1.957032 5.582031-4.285157l17.648438-41.867187c1.5-3.5625-.171875-7.667969-3.734375-9.167969l-41.863281-17.648437c-3.554688-1.457032-7.617188.21875-9.109375 3.757812-1.492188 3.539062.148437 7.617188 3.671875 9.144531l26.136718 11.015625-98.046874 39.902344c-3.105469 1.257812-4.882813 4.542969-4.238282 7.832031.644532 3.285157 3.53125 5.65625 6.878906 5.652344zm0 0"/><path d="m117.578125 116.363281-97.199219 39.554688 11.019532-26.140625c1.007812-2.3125.691406-4.984375-.820313-7-1.515625-2.015625-3.996094-3.0625-6.496094-2.738282-2.5.324219-4.632812 1.964844-5.585937 4.300782l-17.648438 41.867187c-1.5 3.5625.171875 7.667969 3.734375 9.167969l41.867188 17.648438c2.308593 1.007812 4.984375.695312 7-.820313 2.015625-1.511719 3.0625-3.996094 2.738281-6.496094s-1.96875-4.632812-4.300781-5.582031l-26.449219-11.148438 97.417969-39.648437c3.582031-1.457031 5.300781-5.539063 3.84375-9.121094s-5.539063-5.300781-9.121094-3.84375zm0 0"/></svg>