<svg height="487pt" viewBox="0 0 487 487.95208" width="487pt" xmlns="http://www.w3.org/2000/svg" xmlns:xlink="http://www.w3.org/1999/xlink"><linearGradient id="a"><stop offset="0" stop-color="#00efd1"/><stop offset="1" stop-color="#00acea"/></linearGradient><linearGradient id="b" gradientUnits="userSpaceOnUse" x1="208.533286" x2="208.533286" xlink:href="#a" y1="33.690904" y2="451.260904"/><linearGradient id="c" gradientUnits="userSpaceOnUse" x1="280.371286" x2="280.371286" xlink:href="#a" y1="33.690904" y2="451.260904"/><linearGradient id="d" gradientUnits="userSpaceOnUse" x1="244.452286" x2="244.452286" xlink:href="#a" y1="33.690904" y2="451.260904"/><path d="m380.921875 89.933594c-.097656-2.238282-1.132813-4.335938-2.847656-5.777344-82.761719-69.191406-204.648438-63.761719-280.925781 12.515625-76.277344 76.277344-81.707032 198.167969-12.519532 280.925781 1.441406 1.71875 3.539063 2.753906 5.78125 2.851563.117188 0 .234375.007812.351563.007812 2.121093 0 4.15625-.84375 5.65625-2.34375l282.167969-282.171875c1.585937-1.585937 2.433593-3.765625 2.335937-6.007812zm-162.46875 108.074218c0 .320313-.039063.644532-.039063.972657v34.515625l-66.316406 66.3125-31.21875-59.972656 1.710938-1.421876c.101562-.089843.207031-.175781.304687-.269531 4.8125-4.539062 11.296875-6.867187 17.894531-6.4375 6.757813.527344 12.996094 3.835938 17.21875 9.136719l17.90625 21.800781c2.144532 2.609375 5.695313 3.589844 8.875 2.453125 3.179688-1.136718 5.304688-4.148437 5.304688-7.527344l.101562-149.980468c.007813-8.636719 6.355469-15.660156 14.128907-15.660156 7.773437 0 14.128906 7.027343 14.128906 15.671874zm16 19.488282v-19.21875c0-8.3125 6.476563-15.300782 14.039063-15.300782h.519531c4.980469 0 9.542969 3.132813 12.0625 7.707032zm38.136719-38.351563c-5.523438-7.523437-14.246094-12.027343-23.578125-12.167969h-.519531c-4.953126.085938-9.792969 1.476563-14.039063 4.023438v-63.398438c0-17.464843-13.527344-31.675781-30.128906-31.675781-16.585938 0-30.101563 14.199219-30.113281 31.652344l-.09375 127.660156-3.742188-4.550781c-7.003906-8.714844-17.316406-14.128906-28.464844-14.941406-10.914062-.753906-21.65625 3.035156-29.683594 10.472656l-6.535156 5.425781c-2.902344 2.402344-3.730468 6.507813-1.988281 9.847657l36.527344 70.183593-48.816407 48.816407c-44.273437-58.164063-51.753906-136.398438-19.296874-201.894532 32.457031-65.5 99.238281-106.9375 172.335937-106.9375 42.84375 0 82.9375 13.464844 116.511719 39.195313zm0 0" fill="url(#b)"/><path d="m398.496094 107.507812c-2.242188-.101562-4.421875.746094-6.007813 2.335938l-282.171875 282.167969c-1.585937 1.585937-2.433594 3.765625-2.335937 6.007812.097656 2.238281 1.132812 4.335938 2.851562 5.777344 82.757813 69.191406 204.648438 63.761719 280.925781-12.515625 76.277344-76.277344 81.707032-198.164062 12.515626-280.925781-1.441407-1.71875-3.539063-2.75-5.777344-2.847657zm-75.042969 125.46875v-14.363281c0-8.636719 6.234375-15.636719 14.011719-15.636719h.492187c7.753907 0 14.078125 6.992188 14.097657 15.609376.074218 31.082031.058593 41.640624.023437 69.882812-.015625 10.5-.03125 23.398438-.046875 40.71875-.03125 31.328125-23.613281 56.789062-52.566406 56.789062h-71.769532c-18.953124 0-36.507812-11.082031-45.8125-28.957031l-4.738281-9.175781 130.308594-130.25v15.382812zm56.988281 146.988282c-68.054687 68.039062-175.914062 75.320312-252.5 17.050781l37.300782-37.300781 2.453124 4.6875c12.070313 23.191406 35.0625 37.570312 60 37.570312h71.765626c37.769531 0 68.53125-32.632812 68.566406-72.777344.019531-17.320312.035156-30.234374.050781-40.730468.035156-28.261719.050781-38.832032-.023437-69.945313-.039063-17.398437-13.511719-31.550781-30.039063-31.582031l59.472656-59.476562c58.273438 76.585937 50.988281 184.445312-17.046875 252.5zm0 0" fill="url(#c)"/><path d="m244.453125 0c-98.679687 0-187.644531 59.441406-225.40625 150.609375s-16.886719 196.105469 52.886719 265.882813c95.28125 95.277343 249.757812 95.28125 345.035156 0 95.277344-95.277344 95.277344-249.753907 0-345.03125-45.652344-45.90625-107.773438-71.636719-172.515625-71.460938zm227.976563 243.976562c-.003907 92.207032-55.546876 175.332032-140.734376 210.617188s-183.242187 15.78125-248.441406-49.417969c-58.144531-57.476562-81.058594-141.695312-60.050781-220.707031 21.011719-79.015625 82.726563-140.730469 161.738281-161.738281 79.015625-21.011719 163.230469 1.902343 220.710938 60.046875 42.894531 42.65625 66.941406 100.703125 66.777344 161.199218zm0 0" fill="url(#d)"/></svg>