<svg height="483pt" viewBox="-54 0 483 483.6" width="483pt" xmlns="http://www.w3.org/2000/svg" xmlns:xlink="http://www.w3.org/1999/xlink"><linearGradient id="a"><stop offset="0" stop-color="#00efd1"/><stop offset="1" stop-color="#00acea"/></linearGradient><linearGradient id="b" gradientUnits="userSpaceOnUse" x1="177.164442" x2="177.164442" xlink:href="#a" y1="31.314" y2="448.884"/><linearGradient id="c" gradientUnits="userSpaceOnUse" x1="188.183442" x2="188.183442" xlink:href="#a" y1="31.314" y2="448.884"/><path d="m307.632812 213.601562h-.625c-8.378906.050782-16.460937 3.121094-22.765624 8.640626-5.375-13.960938-18.375-23.78125-33.558594-23.78125-9.191406.003906-18.011719 3.632812-24.546875 10.097656-6.136719-11.835938-18.050781-19.957032-31.710938-19.957032h-.664062c-7.335938.117188-14.464844 2.445313-20.460938 6.675782v-84.652344c0-21.027344-16.03125-38.132812-35.960937-38.132812-19.90625 0-36.027344 17.09375-36.042969 38.097656l-.074219 168.585937-8.597656-10.5c-8.53125-10.628906-21.09375-17.230469-34.683594-18.226562-13.3125-.914063-26.414062 3.71875-36.191406 12.800781l-8.355469 6.933594c-2.902343 2.40625-3.726562 6.511718-1.988281 9.851562l81.449219 156.679688c14.984375 28.796875 43.507812 46.886718 74.4375 46.886718h91.347656c46.871094 0 85.042969-40.800781 85.09375-90.691406.019531-22.097656.042969-38.6875.058594-52.066406.046875-35.917969.0625-49.507812-.027344-89.066406-.050781-20.96875-16.257813-38.175782-36.132813-38.175782zm20.160157 127.121094c-.015625 13.382813-.039063 30.066406-.058594 52.171875-.039063 41.082031-31.03125 74.707031-69.09375 74.707031h-91.347656c-24.941407 0-48.027344-14.789062-60.246094-38.269531l-78.46875-150.847656 3.539063-2.988281c.101562-.085938.207031-.199219.304687-.292969 6.566406-6.183594 15.40625-9.359375 24.40625-8.773437 9.203125.703124 17.695313 5.199218 23.449219 12.410156l22.792968 27.746094c2.144532 2.609374 5.695313 3.589843 8.875 2.453124 3.183594-1.136718 5.304688-4.152343 5.304688-7.53125l.132812-190.898437c.011719-12.195313 8.867188-22.117187 19.964844-22.117187s19.953125 9.929687 19.953125 22.132812v115.089844c0 .402344-.015625.8125-.015625 1.21875 0 .183594.015625.367187.015625.546875v49.191406c0 4.417969 3.582031 8 8 8s8-3.582031 8-8v-50.683594c1-11.761719 9.652344-21.386719 20.460938-21.386719h.664062c11.097657 0 19.875 10.136719 19.875 22.34375v45.03125c0 4.417969 3.582031 8 8 8s8-3.582031 8-8v-35.332031c0-12.203125 9.367188-22.132812 20.53125-22.132812 11.101563 0 20.46875 9.925781 20.46875 22.132812v33.332031c0 4.417969 3.582031 8 8 8s8-3.582031 8-8v-18.050781c0-12.199219 8.609375-22.324219 19.707031-22.324219h.625c11.074219 0 20.101563 10 20.132813 22.164063.089844 39.527344.074219 53.058594.027344 88.957031zm0 0" fill="url(#b)"/><path d="m323.6875 0c-25.523438.0351562-47.320312 18.441406-51.628906 43.601562h-242.28125l24.777344-24.78125c2.042968-2.015624 2.847656-4.972656 2.109374-7.746093-.738281-2.773438-2.902343-4.9375-5.675781-5.675781-2.773437-.738282-5.730469.066406-7.746093 2.109374l-36.203126 36.199219c-3.433593.542969-6.121093 3.246094-6.648437 6.683594-.523437 3.4375 1.234375 6.820313 4.351563 8.363281l38.5 38.5c3.121093 3.125 8.1875 3.125 11.3125 0s3.125-8.1875 0-11.3125l-26.34375-26.339844h243.609374c3.859376 27.714844 28.832032 47.5 56.699219 44.921876 27.867188-2.582032 48.78125-26.613282 47.488281-54.570313-1.292968-27.953125-24.335937-49.95703125-52.320312-49.953125zm0 88.757812c-20.089844 0-36.378906-16.289062-36.378906-36.378906 0-20.09375 16.289062-36.378906 36.378906-36.378906s36.378906 16.285156 36.378906 36.378906c-.019531 20.082032-16.296875 36.359375-36.378906 36.382813zm0 0" fill="url(#c)"/></svg>