<svg height="464pt" viewBox="-68 0 464 464" width="464pt" xmlns="http://www.w3.org/2000/svg" xmlns:xlink="http://www.w3.org/1999/xlink"><linearGradient id="a" gradientUnits="userSpaceOnUse" x1="164.384754" x2="164.384754" y1="8.769" y2="432.194"><stop offset="0" stop-color="#00efd1"/><stop offset="1" stop-color="#00acea"/></linearGradient><path d="m328.699219 126.800781c-.054688-22.578125-17.484375-40.800781-38.859375-40.800781h-.683594c-8.535156 0-16.753906 2.644531-22.753906 7.59375v-19.582031c0-22.636719-17.484375-41.054688-38.980469-41.054688-8.273437-.042969-16.324219 2.671875-22.882813 7.714844-.28125-22.386719-17.628906-40.671875-38.882812-40.671875h-.726562c-16.011719 0-29.800782 10.445312-35.738282 25.09375-6.980468-6.703125-16.28125-10.445312-25.960937-10.449219-21.410157 0-38.839844 18.445313-38.855469 41.066407l-.085938 124.347656-49.144531 46.234375c-14.246093 13.335937-18.964843 33.988281-11.917969 52.183593l51.332032 133.59375c.105468.28125.230468.71875.371094.984376 16.304687 31.328124 47.328124 50.945312 80.96875 50.945312h100.199218c50.988282 0 92.511719-44.339844 92.5625-98.640625v-2.886719c.085938-86.863281.171875-176.6875.039063-235.671875zm-16.039063 235.507813v3.035156c-.042968 45.488281-34.390625 82.65625-76.5625 82.65625h-100.199218c-27.507813 0-52.976563-16.15625-66.570313-41.9375l-51.167969-133.238281c-4.695312-12.144531-1.550781-25.917969 7.945313-34.824219l38.167969-35.921875-.042969 63.007813c0 2.109374.847656 4.136718 2.347656 5.621093s3.53125 2.3125 5.644531 2.292969h.007813c2.117187.019531 4.15625-.804688 5.667969-2.289062 1.511718-1.484376 2.371093-3.507813 2.386718-5.628907l.113282-81.511719v-.058593l.03125-127.753907c.011718-13.796874 10.402343-25.03125 23-25.03125 12.28125 0 21.972656 10.667969 22.972656 24v183.191407c0 4.417969 3.582031 8 8 8 4.417968 0 8-3.582031 8-8v-196.558594c-.003906-13.804687 9.925781-25.359375 22.527344-25.359375h.726562c12.601562 0 22.742188 11.558594 22.742188 25.371094v191.402344c0 4.417968 3.582031 8 8 8 4.417968 0 8-3.582032 8-8v-158.761719c0-13.816407 10.359374-25.054688 23.035156-25.054688 12.601562 0 22.964844 11.242188 22.964844 25.054688v156.5625c0 4.417969 3.582031 8 8 8 4.417968 0 8-3.582031 8-8v-103.800781c0-13.8125 10.148437-24.773438 22.753906-24.773438h.683594c12.570312 0 22.824218 11.066406 22.859374 24.839844.136719 58.960937.050782 148.621094-.035156 235.46875zm0 0" fill="url(#a)"/></svg>