<svg height="492pt" viewBox="0 0 492.86157 492" width="492pt" xmlns="http://www.w3.org/2000/svg" xmlns:xlink="http://www.w3.org/1999/xlink"><linearGradient id="a"><stop offset="0" stop-color="#00efd1"/><stop offset="1" stop-color="#00acea"/></linearGradient><linearGradient id="b" gradientUnits="userSpaceOnUse" x1="316.753" x2="316.753" xlink:href="#a" y1="22.966785" y2="446.391785"/><linearGradient id="c" gradientUnits="userSpaceOnUse" x1="101.147" x2="101.147" xlink:href="#a" y1="22.966785" y2="446.391785"/><linearGradient id="d" gradientUnits="userSpaceOnUse" x1="112.968" x2="112.968" xlink:href="#a" y1="22.966785" y2="446.391785"/><path d="m482.621094 300.574219c-6.214844-40.644531-8.539063-55.855469-15.542969-100.578125-3.609375-23.066406-24.308594-39.09375-46.144531-35.726563l-.707032.109375c-9.761718 1.507813-18.570312 6.699219-24.621093 14.5-8.019531-15.300781-24.46875-24.617187-41.695313-21.960937-10.632812 1.6875-20.089844 7.695312-26.136718 16.601562-2.46875-3.65625-5.484376-6.902343-8.949219-9.628906-8.476563-6.820313-19.429688-9.769531-30.183594-8.128906l-.746094.113281c-11.078125 1.769531-20.867187 8.210938-26.867187 17.6875-8.765625-11.75-23.0625-18.433594-37.902344-16.167969l-.070312.011719c-21.871094 3.371094-36.777344 24.925781-33.230469 48.039062l4.117187 27-31.957031 30.382813c-23.941406 22.773437-28.257813 59.375-10.265625 87.089844l65.792969 101.292969c.082031.125.171875.25.257812.371093 18.8125 25.644531 47.566407 40.382813 77.382813 40.382813 4.613281 0 9.214844-.355469 13.773437-1.058594l103.234375-15.914062c52.347656-8.074219 87.980469-60.011719 79.4375-115.78125-3.824218-24.929688-6.664062-43.53125-8.976562-58.636719zm-72.902344 158.597656-103.234375 15.925781c-28.535156 4.398438-57.519531-8.164062-75.683594-32.792968l-65.667969-101.105469c-13.796874-21.25-10.488281-49.316407 7.871094-66.777344l23.871094-22.699219 7.0625 46.300782c.664062 4.367187 4.746094 7.367187 9.113281 6.703124 4.371094-.667968 7.371094-4.75 6.703125-9.117187l-9.355468-61.339844c-.011719-.082031-.023438-.164062-.035157-.242187l-4.730469-31c-2.207031-14.394532 6.675782-27.753906 19.8125-29.800782l.050782-.007812c13.164062-2.03125 25.691406 8.046875 27.914062 22.464844l1.0625 6.890625c.054688.457031.121094.914062.191406 1.371093.027344.199219.066407.386719.109376.578126l8.578124 55.625c.421876 2.835937 2.332032 5.226562 5 6.269531 2.671876 1.042969 5.695313.578125 7.929688-1.222657 2.230469-1.796874 3.332031-4.652343 2.882812-7.484374l-8.835937-57.300782c-1.613281-13.984375 7.167969-26.738281 20-28.714844l.746094-.117187c6.371093-.941406 12.847656.832031 17.851562 4.890625 5.464844 4.367188 9.0625 10.648438 10.0625 17.574219l1.671875 10.847656.019532.113281.007812.050782 6.148438 39.878906c.679687 4.363281 4.761718 7.351562 9.125 6.679687 4.363281-.675781 7.355468-4.753906 6.6875-9.117187l-6.167969-40.015625c-2.175781-14.382813 6.71875-27.714844 19.9375-29.753907 13.164062-2.03125 25.691406 8.046876 27.914062 22.464844l5.808594 37.667969c.421875 2.835937 2.332031 5.226563 5.003906 6.269531 2.667969 1.042969 5.691407.574219 7.925781-1.222656 2.234376-1.800781 3.332032-4.652344 2.882813-7.484375l-3.136719-20.34375-.007812-.054687c-1.132813-6.90625.402344-13.980469 4.300781-19.792969 3.550781-5.375 9.191406-9.015625 15.554687-10.03125l.707032-.109375c13.132812-2.023438 25.652344 8.015625 27.898437 22.386718 7 44.695313 9.320313 59.894532 15.53125 100.519532 2.308594 15.105468 5.152344 33.710937 8.972657 58.644531 7.210937 47.058594-22.421876 90.808594-66.054688 97.535156zm0 0" fill="url(#b)"/><path d="m101.148438 28.367188c-40.433594 0-73.210938 32.777343-73.210938 73.210937s32.777344 73.207031 73.210938 73.207031c40.429687 0 73.207031-32.773437 73.207031-73.207031-.046875-40.414063-32.796875-73.164063-73.207031-73.210937zm0 130.417968c-31.597657 0-57.210938-25.613281-57.210938-57.207031 0-31.597656 25.613281-57.210937 57.210938-57.210937 31.59375 0 57.207031 25.613281 57.207031 57.210937-.035157 31.582031-25.628907 57.171875-57.207031 57.207031zm0 0" fill="url(#c)"/><path d="m128.503906 99.199219h-23.070312v-32.792969c0-4.417969-3.582032-8-8-8-4.417969 0-8 3.582031-8 8v41.035156c-.035156 2.074219.777344 4.078125 2.25 5.539063 1.472656 1.464843 3.480468 2.265625 5.554687 2.21875h31.265625c4.417969 0 8-3.582031 8-8s-3.582031-8-8-8zm0 0" fill="url(#d)"/><path d="m202.292969 101.578125c0-55.863281-45.285157-101.148437-101.144531-101.148437-55.863282 0-101.148438 45.285156-101.148438 101.148437s45.285156 101.148437 101.148438 101.148437c55.835937-.066406 101.082031-45.3125 101.144531-101.148437zm-101.144531 85.148437c-47.027344 0-85.148438-38.125-85.148438-85.148437 0-47.027344 38.121094-85.148437 85.148438-85.148437 47.023437 0 85.144531 38.121093 85.144531 85.148437-.050781 47.003906-38.140625 85.09375-85.144531 85.148437zm0 0" fill="url(#c)"/></svg>