<svg height="500pt" viewBox="0 -65 500.23886 500" width="500pt" xmlns="http://www.w3.org/2000/svg" xmlns:xlink="http://www.w3.org/1999/xlink"><linearGradient id="a" gradientUnits="userSpaceOnUse" x1="250.120675" x2="250.120675" y1="-25.16657" y2="392.40343"><stop offset="0" stop-color="#00efd1"/><stop offset="1" stop-color="#00acea"/></linearGradient><path d="m475.246094 183.121094h-.378906c-4.449219.035156-8.800782 1.292968-12.582032 3.632812-3.15625-5.484375-8.25-9.585937-14.285156-11.492187v-127.773438c0-25.851562-20.859375-47.367187-46.710938-47.367187h-334.101562c-25.851562 0-47.1875 21.515625-47.1875 47.367187v237.632813h-12.234375c-2.070313-.050782-4.070313.746094-5.535156 2.207031-1.46875 1.460937-2.2734378 3.457031-2.230469 5.527344v29.898437c0 25.847656 20.796875 47.367188 46.648438 47.367188h375.183593c15.164063-.042969 29.371094-7.433594 38.109375-19.828125 23.128906-6.648438 40.214844-29.214844 40.238282-55.820313.011718-13.191406.027343-23.121094.035156-31.140625.027344-21.765625.039062-30.046875-.015625-53.980469-.03125-14.386718-11.226563-26.230468-24.953125-26.230468zm-439.246094-135.632813c0-17.03125 14.160156-31.367187 31.1875-31.367187h334.101562c17.027344 0 30.710938 14.335937 30.710938 31.367187v128.3125c-1.820312.703125-3.535156 1.667969-5.085938 2.855469-3.933593-5.648438-10.082031-9.355469-16.914062-10.207031v-118.722657c0-4.417968-3.78125-7.605468-8.199219-7.605468h-335.125c-2.046875-.078125-4.03125.695312-5.488281 2.136718-1.453125 1.441407-2.246094 3.421876-2.1875 5.46875v207.324219c-.074219 2.09375.695312 4.132813 2.140625 5.648438 1.445313 1.519531 3.441406 2.390625 5.535156 2.421875h246.539063l10.308594 20h-32.242188c-2.21875-.050782-4.355469.835937-5.882812 2.445312l-7.890626 8.582032c-5.851562 6.335937-14.078124 9.953124-22.707031 9.972656h-41.121093c-8.636719-.042969-16.863282-3.679688-22.707032-10.039063l-7.894531-8.472656c-1.519531-1.621094-3.65625-2.523437-5.875-2.488281h-141.203125zm257.882812 180.457031 11 21.175782h-229.882812v-191h319v52.25c-5-7.324219-12.320312-12.199219-21.1875-12.199219-13.75 0-25 11.726563-25 26.140625l-.09375 92.75c-5.6875-6.789062-13.886719-10.984375-22.722656-11.621094-8.871094-.617187-17.597656 2.453125-24.132813 8.484375l-4.984375 4.152344c-2.902344 2.410156-3.734375 6.515625-1.996094 9.867187zm-247.234374 126.175782c-17.03125 0-30.648438-14.339844-30.648438-31.371094v-21.628906h157.691406l5.515625 5.9375c8.890625 9.601562 21.386719 15.0625 34.472657 15.0625h41.121093c13.089844 0 25.582031-5.460938 34.476563-15.0625l5.507812-5.9375h37.066406l11.125 21.261718c9.582032 18.40625 27.851563 29.738282 47.679688 29.738282h40.953125c-3.132813 1.167968-6.433594 1.84375-9.777344 2zm437.566406-90.871094c-.007813 8.023438-.023438 17.917969-.035156 31.113281-.023438 23.011719-17.277344 41.757813-38.464844 41.757813h-55.058594c-13.839844 0-26.671875-8.164063-33.488281-21.257813l-46.109375-88.601562.15625-.136719c.101562-.089844.207031-.179688.308594-.273438 3.3125-3.132812 7.785156-4.746093 12.335937-4.453124 4.671875.367187 8.984375 2.660156 11.898437 6.332031l13.738282 16.722656c2.144531 2.609375 5.695312 3.59375 8.878906 2.457031 3.179688-1.140625 5.300781-4.152344 5.304688-7.53125l.078124-115.054687c0-5.601563 4.1875-10.15625 9.125-10.15625s9.121094 4.558593 9.121094 10.160156v69.335937c0 .253907-.011718.511719-.011718.765626 0 .140624.011718.28125.011718.417968v29.5625c0 4.417969 3.582032 8 8 8 4.417969 0 8-3.582031 8-8v-30.472656c0-5.367188 3.820313-9.816406 8.609375-9.816406h.402344c4.9375 0 8.988281 4.71875 8.988281 10.320312v27.140625c0 4.417969 3.582032 8 8 8 4.417969 0 8-3.582031 8-8v-21.300781c0-5.597656 4.042969-10.160156 9.019532-10.160156 4.9375 0 8.980468 4.558594 8.980468 10.160156v20.089844c0 4.417968 3.582032 8 8 8 4.417969 0 8-3.582032 8-8v-10.871094c0-5.601562 3.929688-10.378906 8.867188-10.378906h.375c4.925781 0 8.945312 4.652344 8.957031 10.238281.050781 23.902344.039063 32.148437.011719 53.890625zm0 0" fill="url(#a)"/></svg>