<svg height="464pt" viewBox="-44 0 464 464.163" width="464pt" xmlns="http://www.w3.org/2000/svg" xmlns:xlink="http://www.w3.org/1999/xlink"><linearGradient id="a" gradientUnits="userSpaceOnUse" x1="188.301453" x2="188.301453" y1="21.877" y2="439.447"><stop offset="0" stop-color="#00efd1"/><stop offset="1" stop-color="#00acea"/></linearGradient><path d="m336.496094 60.164062h-.710938c-22.027344 0-39.484375 19.277344-39.484375 42.558594v48.878906c-6.929687-5.425781-15.460937-8.398437-24.257812-8.460937-10.726563.050781-20.957031 4.515625-28.292969 12.335937-6.570312-13.824218-20.234375-23.3125-35.847656-23.3125h-.75c-8.972656 0-16.855469 3.097657-23.855469 8.390626v-98.328126c0-23.285156-17.960937-42.226562-40-42.226562-22.011719 0-39.953125 18.929688-39.96875 42.199219l-.148437 194.515625-11.726563-14.269532c-9.503906-11.835937-23.503906-19.191406-38.644531-20.300781-14.832032-1.019531-29.425782 4.148438-40.316406 14.269531l-9.519532 7.890626c-2.8984372 2.40625-3.726562 6.511718-1.988281 9.851562l92.515625 177.65625c16.835938 32.339844 48.863281 52.351562 83.585938 52.351562h103.757812c52.644531 0 95.515625-45.539062 95.566406-101.613281.101563-98.8125.175782-200.410156.039063-260.148437-.058594-23.222656-17.980469-42.238282-39.953125-42.238282zm23.914062 302.371094c-.042968 47.261719-35.738281 85.628906-79.566406 85.628906h-103.757812c-28.734376 0-55.324219-16.710937-69.394532-43.742187l-89.53125-171.964844 4.699219-3.875c.097656-.085937.203125-.164062.304687-.257812 7.679688-7.222657 18.015626-10.929688 28.535157-10.230469 10.75.820312 20.671875 6.074219 27.398437 14.5l25.890625 31.515625c2.144531 2.609375 5.695313 3.589844 8.875 2.453125 3.179688-1.136719 5.300781-4.148438 5.304688-7.523438l.152343-216.835937c.011719-14.449219 10.792969-26.207031 24-26.207031 13.207032 0 23.980469 11.765625 23.980469 26.230468v130.753907c0 .449219-.019531.898437-.019531 1.355469 0 .195312.019531.386718.019531.578124v55.914063c0 4.421875 3.582031 8 8 8s8-3.578125 8-8v-57.578125c0-13.953125 10.980469-25.085938 23.855469-25.085938h.75c13.207031 0 24.398438 11.722657 24.398438 26.183594v51.148438c0 4.421875 3.582031 8 8 8 4.417968 0 8-3.578125 8-8v-40.132813c0-14.460937 10.757812-26.226562 24.039062-26.226562 13.207031 0 23.960938 11.765625 23.960938 26.226562v37.859375c0 4.417969 3.582031 8 8 8 4.417968 0 8-3.582031 8-8v-120.5c-.003907-14.460937 10.273437-26.558594 23.480468-26.558594h.710938c13.171875 0 23.917968 11.855469 23.953125 26.277344.136719 59.710938.050781 161.292969-.039063 260.09375zm0 0" fill="url(#a)"/></svg>