<svg height="454pt" viewBox="-47 0 454 454" width="454pt" xmlns="http://www.w3.org/2000/svg" xmlns:xlink="http://www.w3.org/1999/xlink"><linearGradient id="a" gradientUnits="userSpaceOnUse" x1="180.249189" x2="180.249189" y1="16.714" y2="434.284"><stop offset="0" stop-color="#00efd1"/><stop offset="1" stop-color="#00acea"/></linearGradient><path d="m318.429688 0h-.753907c-23.152343 0-42.414062 19.753906-42.414062 44.238281v78.863281c-7.191407-6.183593-16.367188-9.574218-25.851563-9.566406-11.472656.089844-22.371094 5.023438-30.007812 13.582032-6.78125-14.898438-21.101563-25.121094-37.753906-25.121094h-.800782c-10.433594.003906-20.464844 4.035156-28 11.257812-5.464844-17.8125-21.308594-30.769531-39.953125-30.769531-23.136719 0-41.96875 19.886719-41.988281 44.347656l-.023438 16.058594-54.460937 51.222656c-15.445313 14.460938-20.5625 36.855469-12.925781 56.585938l56.539062 147.144531c.109375.253906.234375.5.371094.738281 17.820312 34.238281 51.714844 55.417969 88.457031 55.417969h110.371094c55.714844 0 101.085937-48.214844 101.144531-107.578125.140625-149.929687.15625-251.542969.035156-302.261719-.050781-24.417968-18.890624-44.160156-41.984374-44.160156zm25.949218 346.40625c-.050781 50.550781-38.242187 91.59375-85.144531 91.59375h-110.371094c-30.617187 0-58.957031-17.71875-74.0625-46.410156l-56.367187-146.667969c-5.292969-13.664063-1.75-29.171875 8.953125-39.179687l43.460937-40.871094-.105468 71.269531c.003906 2.105469.847656 4.121094 2.351562 5.601563 1.5 1.476562 3.53125 2.289062 5.636719 2.257812h.011719c2.105468.035156 4.132812-.773438 5.636718-2.246094 1.503906-1.46875 2.355469-3.480468 2.363282-5.585937l.160156-109.414063c.011718-15.652344 11.859375-28.347656 26.1875-28.347656 14.324218 0 26.171875 12.78125 26.171875 28.445312v17.925782c0 .476562-.019531.957031-.019531 1.441406 0 .199219.019531.398438.019531.597656v59.492188c0 4.417968 3.582031 8 8 8s8-3.582032 8-8v-61.261719c0-15.117187 11.621093-27.046875 25.589843-27.046875h.796876c14.328124 0 25.613281 12.566406 25.613281 28.230469v54.40625c0 4.417969 3.582031 8 8 8s8-3.582031 8-8v-42.6875c0-15.664063 11.632812-28.40625 26.039062-28.40625 14.332031 0 25.960938 12.742187 25.960938 28.40625v40.273437c0 4.417969 3.582031 8 8 8s8-3.582031 8-8v-153.984375c0-15.664062 12.082031-28.238281 26.414062-28.238281h.753907c14.292968 0 25.949218 12.578125 25.984374 28.199219.121094 50.699219.105469 152.292969-.035156 302.207031zm0 0" fill="url(#a)"/></svg>