<svg height="464pt" viewBox="-68 0 464 464" width="464pt" xmlns="http://www.w3.org/2000/svg" xmlns:xlink="http://www.w3.org/1999/xlink"><linearGradient id="a" gradientUnits="userSpaceOnUse" x1="164.384754" x2="164.384754" y1="21.714" y2="439.284"><stop offset="0" stop-color="#00efd1"/><stop offset="1" stop-color="#00acea"/></linearGradient><path d="m289.835938 86h-.683594c-21.425782 0-38.753906 18.136719-38.753906 40.773438v14.066406c-7-4.953125-14.464844-7.882813-23.035157-7.882813-8.539062 0-15.964843 2.921875-22.964843 7.871094v-99.457031c0-22.636719-17.316407-41.371094-38.742188-41.371094h-.726562c-16.011719 0-29.800782 10.445312-35.738282 25.09375-6.980468-6.703125-16.28125-10.445312-25.960937-10.449219-21.410157 0-38.839844 18.445313-38.855469 41.066407l-.085938 124.347656-49.144531 46.234375c-14.246093 13.335937-18.964843 33.988281-11.917969 52.183593l51.332032 133.59375c.105468.28125.230468.71875.371094.984376 16.304687 31.328124 47.328124 50.945312 80.96875 50.945312h100.199218c50.988282 0 92.511719-44.339844 92.5625-98.640625v-4.214844c.082032-86.378906.167969-175.601562.03125-234.300781-.050781-22.578125-17.480468-40.84375-38.855468-40.84375zm22.828124 275.050781v4.292969c-.050781 45.488281-34.394531 82.65625-76.566406 82.65625h-100.199218c-27.507813 0-52.976563-16.15625-66.566407-41.9375l-51.171875-133.238281c-4.695312-12.144531-1.550781-25.917969 7.945313-34.824219l38.167969-35.921875-.042969 63.007813c0 2.109374.847656 4.136718 2.347656 5.621093s3.53125 2.3125 5.644531 2.292969h.007813c2.117187.019531 4.15625-.804688 5.667969-2.289062 1.511718-1.484376 2.371093-3.507813 2.386718-5.628907l.113282-81.511719v-.0625l.03125-127.75c.011718-13.796874 10.402343-25.03125 23-25.03125 12.28125 0 21.972656 10.667969 22.972656 24v183.191407c0 4.417969 3.582031 8 8 8 4.417968 0 8-3.582031 8-8v-196.558594c-.003906-13.804687 9.925781-25.359375 22.527344-25.359375h.726562c12.601562 0 22.742188 11.558594 22.742188 25.371094v191.402344c0 4.417968 3.582031 8 8 8 4.417968 0 8-3.582032 8-8v-58.761719c0-13.816407 10.359374-25.054688 23.035156-25.054688 12.601562 0 22.964844 11.238281 22.964844 25.054688v56.5625c0 4.417969 3.582031 8 8 8 4.417968 0 8-3.582031 8-8v-103.800781c0-13.8125 10.148437-24.773438 22.753906-24.773438h.683594c12.574218 0 22.828124 11.066406 22.859374 24.839844.136719 58.675781.050782 147.84375-.03125 234.210937zm0 0" fill="url(#a)"/></svg>