<svg height="454pt" viewBox="-10 0 454 454.24316" width="454pt" xmlns="http://www.w3.org/2000/svg" xmlns:xlink="http://www.w3.org/1999/xlink"><linearGradient id="a"><stop offset="0" stop-color="#00efd1"/><stop offset="1" stop-color="#00acea"/></linearGradient><linearGradient id="b" gradientUnits="userSpaceOnUse" x1="228.121372" x2="228.121372" xlink:href="#a" y1="4.012156" y2="427.437156"/><linearGradient id="c" gradientUnits="userSpaceOnUse" x1="365.778372" x2="365.778372" xlink:href="#a" y1="4.012156" y2="427.437156"/><linearGradient id="d" gradientUnits="userSpaceOnUse" x1="69.840372" x2="69.840372" xlink:href="#a" y1="4.012156" y2="427.437156"/><path d="m358.589844 185.242188h-.625c-8.363282-.003907-16.445313 3.007812-22.765625 8.484374-5.375-13.960937-18.351563-23.859374-33.535157-23.859374-7.203124.03125-14.222656 2.285156-20.105468 6.449218v-117.046875c0-21.027343-16.253906-38.027343-36.175782-38.027343h-.664062c-17.207031 0-31.644531 12.707031-35.257812 29.734374-6.027344-4.609374-13.402344-7.113281-20.988282-7.132812-19.910156 0-36.117187 17.078125-36.132812 38.089844l-.117188 168.578125-8.625-10.5c-8.535156-10.628907-21.101562-17.230469-34.691406-18.226563-13.320312-.914062-26.421875 3.71875-36.203125 12.800782l-8.359375 6.933593c-2.898438 2.40625-3.726562 6.511719-1.988281 9.851563l81.453125 156.335937c14.988281 28.789063 43.511718 46.535157 74.441406 46.535157h91.347656c46.871094 0 85.042969-40.453126 85.089844-90.347657.023438-22.070312.042969-38.46875.0625-51.835937.046875-35.949219.0625-49.300782-.027344-88.882813-.050781-20.96875-16.257812-37.933593-36.132812-37.933593zm20.160156 126.867187c-.019531 13.367187-.039062 29.699219-.0625 51.769531-.039062 41.082032-31.027344 74.363282-69.089844 74.363282h-91.347656c-24.941406 0-48.027344-14.445313-60.246094-37.925782l-78.46875-150.679687 3.539063-2.898438c.097656-.085937.207031-.160156.304687-.25 6.566406-6.183593 15.410156-9.351562 24.40625-8.753906 9.203125.707031 17.695313 5.207031 23.449219 12.421875l22.792969 27.75c2.144531 2.609375 5.695312 3.589844 8.875 2.453125 3.179687-1.136719 5.304687-4.148437 5.304687-7.523437l.132813-190.902344c.007812-12.199219 9.027344-22.117188 20.121094-22.117188 10.8125 0 20.101562 9.421875 20.101562 21.191406v166.988282c0 4.417968 3.582031 8 8 8s8-3.582032 8-8v-188.734375c-.003906-12.203125 9.058594-22.019531 20.15625-22.019531h.664062c11.097657 0 20.175782 9.820312 20.175782 22.027343v184.03125c0 4.417969 3.582031 8 8 8 4.417968 0 8-3.582031 8-8v-35.332031c0-12.199219 8.867187-22.132812 20.035156-22.132812 11.097656 0 19.964844 9.925781 19.964844 22.132812v33.332031c0 4.417969 3.582031 8 8 8 4.417968 0 8-3.582031 8-8v-18.050781c0-12.207031 9.308594-22.007812 20.40625-22.007812h.625c11.074218 0 20.101562 9.839843 20.132812 22 .089844 39.558593.074219 52.9375.027344 88.867187zm0 0" fill="url(#b)"/><path d="m400.527344 92.308594c-3.128906-3.089844-8.167969-3.078125-11.277344.035156-3.113281 3.109375-3.128906 8.148438-.035156 11.277344l18.617187 18.621094h-103.273437c-4.417969 0-8 3.582031-8 8 0 4.417968 3.582031 8 8 8h102.976562l-18.320312 18.320312c-2.042969 2.015625-2.847656 4.972656-2.109375 7.746094.734375 2.773437 2.902343 4.941406 5.675781 5.675781 2.773438.738281 5.730469-.066406 7.746094-2.109375l32.125-32.125c3.125-3.125 3.125-8.191406 0-11.3125zm0 0" fill="url(#c)"/><path d="m400.527344 2.308594c-3.128906-3.089844-8.167969-3.078125-11.277344.035156-3.113281 3.109375-3.128906 8.148438-.035156 11.277344l18.617187 18.621094h-103.273437c-4.417969 0-8 3.582031-8 8 0 4.417968 3.582031 8 8 8h102.976562l-18.320312 18.320312c-2.042969 2.015625-2.847656 4.972656-2.109375 7.746094.734375 2.773437 2.902343 4.941406 5.675781 5.675781 2.773438.738281 5.730469-.066406 7.746094-2.109375l32.125-32.125c3.125-3.125 3.125-8.191406 0-11.3125zm0 0" fill="url(#c)"/><g fill="url(#d)"><path d="m34.589844 77.875c3.132812 3.09375 8.167968 3.078125 11.28125-.03125 3.109375-3.113281 3.125-8.152344.035156-11.28125l-18.320312-18.320312h103.972656c4.417968 0 8-3.582032 8-8 0-4.417969-3.582032-8-8-8h-104.273438l18.621094-18.621094c3.089844-3.128906 3.074219-8.167969-.035156-11.277344-3.113282-3.113281-8.148438-3.125-11.28125-.035156l-32.125 32.128906c-3.125 3.121094-3.125 8.1875 0 11.3125zm0 0"/><path d="m27.585938 138.242188h103.972656c4.417968 0 8-3.582032 8-8 0-4.417969-3.582032-8-8-8h-104.273438l18.621094-18.621094c3.089844-3.128906 3.074219-8.167969-.035156-11.277344-3.113282-3.113281-8.148438-3.125-11.28125-.035156l-32.125 32.128906c-3.125 3.121094-3.125 8.1875 0 11.3125l32.125 32.125c3.132812 3.09375 8.167968 3.078125 11.28125-.03125 3.109375-3.113281 3.125-8.152344.035156-11.28125zm0 0"/></g></svg>