<svg height="458pt" viewBox="-24 0 458 458" width="458pt" xmlns="http://www.w3.org/2000/svg" xmlns:xlink="http://www.w3.org/1999/xlink"><linearGradient id="a"><stop offset="0" stop-color="#00efd1"/><stop offset="1" stop-color="#00acea"/></linearGradient><linearGradient id="b" gradientUnits="userSpaceOnUse" x1="180.409" x2="180.409" xlink:href="#a" y1="18.714" y2="436.284"/><linearGradient id="c" gradientUnits="userSpaceOnUse" x1="205.223" x2="205.223" xlink:href="#a" y1="18.714" y2="436.284"/><path d="m192.960938 405h-25.101563c-4.417969 0-8 3.582031-8 8s3.582031 8 8 8h25.101563c4.417968 0 8-3.582031 8-8s-3.582032-8-8-8zm0 0" fill="url(#b)"/><path d="m384.355469 235h-.398438c-4.847656-.011719-9.59375 1.359375-13.691406 3.949219-2.152344-4.050781-5.351563-7.449219-9.265625-9.84375v-180.988281c0-26.378907-21.300781-48.117188-47.699219-48.117188h-265.820312c-26.378907 0-47.480469 21.738281-47.480469 48.140625v361.742187c0 26.378907 21.101562 48.117188 47.5 48.117188h276.183594c10.191406-.046875 19.929687-4.214844 27-11.550781 7.027344-7.242188 11.316406-16.808594 10.316406-26.824219v-6.308594c28-4.363281 49.253906-29.785156 49.285156-60.402344.011719-14.234374.101563-24.84375.113282-33.457031.03125-23.105469.078124-31.71875.019531-57.167969-.035157-15.066406-11.707031-27.289062-26.0625-27.289062zm-45 200.308594c-4.09375 4.273437-9.753907 6.691406-15.671875 6.691406h-276.160156c-17.605469 0-31.523438-14.554688-31.523438-32.140625v-361.695313c0-17.609374 13.917969-32.164062 31.5-32.164062h265.777344c17.609375 0 31.722656 14.554688 31.722656 32.140625v177.089844c-4.539062.570312-8.863281 2.265625-12.582031 4.925781-2.742188-4.230469-6.730469-7.507812-11.417969-9.367188v-173.957031c.015625-2.09375-.808594-4.105469-2.296875-5.578125-1.484375-1.476562-3.503906-2.289062-5.597656-2.253906h-265.394531c-2.074219-.027344-4.070313.792969-5.527344 2.273438-1.453125 1.476562-2.242188 3.484374-2.183594 5.558593v330.660157c-.046875 2.042968.757812 4.007812 2.21875 5.433593 1.464844 1.421875 3.453125 2.175781 5.492188 2.074219h197.644531c10.5 18 28.863281 29 48.699219 29h50.945312v5.738281c0 .082031.152344.199219.15625.28125.234375 5.675781-1.863281 11.199219-5.804688 15.289063zm-64.457031-291.289063c-14.378907 0-26.085938 12.277344-26.097657 27.367188l-.074219 100.511719-.5-.605469c-5.984374-7.445313-14.796874-12.070313-24.328124-12.761719-9.320313-.644531-18.496094 2.585938-25.359376 8.929688l-5.328124 4.417968c-2.890626 2.300782-3.726563 6.339844-1.988282 9.601563l45.675782 87.519531h-180.898438v-314h249v164.601562c-1.367188.359376-2.703125.824219-4 1.390626v-49.585938c0-15.101562-11.707031-27.386719-26.101562-27.386719zm119.574218 175.414063c-.007812 8.613281-.023437 19.234375-.035156 33.46875-.027344 24.863281-18.6875 45.101562-41.601562 45.101562h-58.78125c-14.980469 0-28.863282-8.804687-36.230469-22.964844l-49.425781-94.964843.5-.417969c.105468-.089844.207031-.179688.308593-.269531 3.648438-3.445313 8.566407-5.21875 13.574219-4.894531 5.136719.402343 9.875 2.921874 13.082031 6.957031l14.664063 17.851562c2.144531 2.609375 5.699218 3.589844 8.878906 2.453125 3.179688-1.136718 5.304688-4.148437 5.304688-7.527344l.089843-122.828124c0-6.273438 4.535157-11.378907 10.097657-11.378907 5.566406 0 10.101562 5.109375 10.101562 11.390625v74.007813c0 .273437-.011719.550781-.011719.828125 0 .144531.011719.292968.011719.4375v31.5625c0 4.417968 3.582031 8 8 8s8-3.582032 8-8v-32.554688c0-6.019531 4.683594-10.691406 10.089844-10.691406h.425781c5.566406 0 10.484375 4.972656 10.484375 11.25v28.976562c0 4.417969 3.582031 8 8 8s8-3.582031 8-8v-22.734374c0-6.28125 4.410156-11.390626 10.019531-11.390626 5.570313 0 9.980469 5.109376 9.980469 11.390626v21.445312c0 4.417969 3.582031 8 8 8s8-3.582031 8-8v-11.613281c0-6.28125 4.386719-11.324219 9.953125-11.324219h.402344c5.550781 0 10.082031 5.0625 10.097656 11.320312.0625 25.421876.046875 34.027344.019531 57.113282zm0 0" fill="url(#c)"/></svg>