<svg height="465pt" viewBox="-66 0 465 465.53813" width="465pt" xmlns="http://www.w3.org/2000/svg" xmlns:xlink="http://www.w3.org/1999/xlink"><linearGradient id="a"><stop offset="0" stop-color="#00efd1"/><stop offset="1" stop-color="#00acea"/></linearGradient><linearGradient id="b" gradientUnits="userSpaceOnUse" x1="166.938716" x2="166.938716" xlink:href="#a" y1="22.252131" y2="439.822131"/><linearGradient id="c" gradientUnits="userSpaceOnUse" x1="153.762716" x2="153.762716" xlink:href="#a" y1="22.252131" y2="439.822131"/><path d="m297.410156 195.539062h-.625c-8.378906.042969-16.460937 3.101563-22.769531 8.617188-5.375-13.960938-18.570313-23.792969-33.75-23.792969-7.28125.054688-14.371094 2.328125-20.328125 6.515625v-117.039062c0-21.035156-15.816406-38.300782-35.738281-38.300782h-.660157c-17.207031 0-31.644531 12.84375-35.257812 29.867188-6.035156-4.589844-13.410156-7.074219-20.992188-7.066406-19.910156 0-36.117187 17.113281-36.128906 38.125l-.121094 168.59375-8.625-10.5c-8.535156-10.625-21.101562-17.226563-34.691406-18.21875-13.320312-.917969-26.421875 3.714844-36.203125 12.796875l-8.359375 6.9375c-2.898437 2.40625-3.726562 6.507812-1.988281 9.851562l81.449219 156.699219c14.992187 28.800781 43.519531 46.914062 74.445312 46.914062h91.347656c46.875 0 85.046876-40.820312 85.09375-90.714843.019532-22.078125.039063-38.65625.058594-52.027344.046875-35.945313.0625-49.523437-.027344-89.101563-.046874-20.96875-16.257812-38.15625-36.128906-38.15625zm20.15625 127.125c-.019531 13.371094-.039062 30.066407-.058594 52.144532-.042968 41.082031-31.035156 74.730468-69.09375 74.730468h-91.347656c-24.941406 0-48.027344-14.8125-60.246094-38.292968l-78.46875-150.863282 3.539063-2.992187c.101563-.085937.199219-.199219.304687-.296875 6.566407-6.183594 15.40625-9.363281 24.40625-8.777344 9.199219.703125 17.695313 5.199219 23.449219 12.414063l22.789063 27.742187c2.144531 2.609375 5.695312 3.59375 8.875 2.453125 3.183594-1.136719 5.304687-4.148437 5.304687-7.527343l.136719-190.902344c.007812-12.191406 8.804688-22.113282 19.898438-22.113282 10.808593 0 19.878906 9.410157 19.878906 21.175782v167c0 4.417968 3.578125 8 8 8 4.417968 0 8-3.582032 8-8v-188.734375c.003906-12.199219 9.503906-22.285157 20.605468-22.285157h.660157c11.097656 0 19.738281 10.089844 19.738281 22.300782v184.023437c0 4.417969 3.582031 8 8 8s8-3.582031 8-8v-35.332031c0-12.199219 9.371094-22.132812 20.535156-22.132812 11.097656 0 20.464844 9.929687 20.464844 22.132812v33.332031c0 4.417969 3.582031 8 8 8s8-3.582031 8-8v-18.050781c0-12.199219 8.746094-22.273438 19.847656-22.273438h.625c11.070313 0 20.097656 9.96875 20.128906 22.136719.089844 39.550781.074219 53.0625.027344 88.988281zm0 0" fill="url(#b)"/><path d="m67.640625 93.402344c4.417969 0 8-3.582032 8-8-.007813-14.996094 6.898437-29.15625 18.710937-38.390625 11.816407-9.234375 27.226563-12.511719 41.777344-8.886719 3.097656.769531 6.355469-.371094 8.292969-2.90625 12.652344-16.640625 34.515625-23.347656 54.328125-16.667969 19.808594 6.683594 33.140625 25.261719 33.132812 46.167969 0 4.417969 3.582032 8 8 8 4.417969 0 8-3.582031 8-8 .007813-26.828125-16.539062-50.875-41.597656-60.453125s-53.429687-2.699219-71.316406 17.292969c-18.765625-3.125-37.953125 2.164062-52.464844 14.460937-14.507812 12.300781-22.871094 30.363281-22.863281 49.382813 0 4.417968 3.578125 8 8 8zm0 0" fill="url(#c)"/></svg>