<svg height="464pt" viewBox="-68 0 464 464" width="464pt" xmlns="http://www.w3.org/2000/svg" xmlns:xlink="http://www.w3.org/1999/xlink"><linearGradient id="a" gradientUnits="userSpaceOnUse" x1="164.384754" x2="164.384754" y1="8.769" y2="432.194"><stop offset="0" stop-color="#00efd1"/><stop offset="1" stop-color="#00acea"/></linearGradient><path d="m289.835938 170h-.683594c-8.535156 0-16.753906 2.644531-22.753906 7.59375v-103.582031c0-22.636719-17.484376-41.054688-38.980469-41.054688-8.273438-.042969-16.324219 2.671875-22.882813 7.714844-.277344-22.386719-17.625-40.671875-38.878906-40.671875h-.726562c-16.011719 0-29.800782 10.445312-35.738282 25.09375-6.980468-6.703125-16.28125-10.445312-25.960937-10.449219-21.410157 0-38.839844 18.445313-38.855469 41.066407l-.085938 124.347656-49.144531 46.234375c-14.246093 13.335937-18.964843 33.988281-11.917969 52.183593l51.332032 133.59375c.105468.28125.230468.71875.371094.984376 16.304687 31.328124 47.328124 50.945312 80.96875 50.945312h100.199218c50.988282 0 92.511719-44.339844 92.5625-98.640625.023438-24.207031.046875-42.34375.066406-57 .050782-39.4375.070313-54.09375-.03125-97.511719-.054687-22.582031-17.484374-40.847656-38.859374-40.847656zm22.890624 138.253906c-.019531 14.664063-.042968 32.882813-.066406 57.089844-.042968 45.488281-34.390625 82.65625-76.5625 82.65625h-100.199218c-27.507813 0-52.976563-16.15625-66.570313-41.9375l-51.167969-133.238281c-4.695312-12.144531-1.550781-25.917969 7.945313-34.824219l38.167969-35.921875-.042969 63.007813c0 2.109374.847656 4.136718 2.347656 5.621093s3.53125 2.3125 5.644531 2.292969h.007813c2.117187.019531 4.15625-.804688 5.667969-2.289062 1.511718-1.484376 2.371093-3.507813 2.386718-5.628907l.113282-81.511719v-.058593l.03125-127.753907c.011718-13.796874 10.402343-25.03125 23-25.03125 12.28125 0 21.972656 10.667969 22.972656 24v183.191407c0 4.417969 3.582031 8 8 8 4.417968 0 8-3.582031 8-8v-196.558594c-.003906-13.804687 9.925781-25.359375 22.527344-25.359375h.726562c12.601562 0 22.742188 11.558594 22.742188 25.371094v191.402344c0 4.417968 3.582031 8 8 8 4.417968 0 8-3.582032 8-8v-158.761719c0-13.816407 10.359374-25.054688 23.035156-25.054688 12.601562 0 22.964844 11.242188 22.964844 25.054688v156.5625c0 4.417969 3.582031 8 8 8 4.417968 0 8-3.582031 8-8v-19.800781c0-13.8125 10.148437-24.773438 22.753906-24.773438h.683594c12.570312 0 22.824218 11.066406 22.859374 24.839844.101563 43.390625.078126 58 .03125 97.414062zm0 0" fill="url(#a)"/></svg>