<svg height="488pt" viewBox="-72 0 488 488" width="488pt" xmlns="http://www.w3.org/2000/svg" xmlns:xlink="http://www.w3.org/1999/xlink"><linearGradient id="a"><stop offset="0" stop-color="#00efd1"/><stop offset="1" stop-color="#00acea"/></linearGradient><linearGradient id="b" gradientUnits="userSpaceOnUse" x1="144.027" x2="144.027" xlink:href="#a" y1="33.714" y2="451.284"/><linearGradient id="c" gradientUnits="userSpaceOnUse" x1="144.026" x2="144.026" xlink:href="#a" y1="33.714" y2="451.284"/><linearGradient id="d" gradientUnits="userSpaceOnUse" x1="172.042" x2="172.042" xlink:href="#a" y1="33.714" y2="451.284"/><path d="m109.992188 53h68.070312c4.417969 0 8-3.582031 8-8s-3.582031-8-8-8h-68.070312c-4.417969 0-8 3.582031-8 8s3.582031 8 8 8zm0 0" fill="url(#b)"/><path d="m144.027344 403.558594c-15.988282.003906-28.945313 12.960937-28.945313 28.945312 0 15.988282 12.960938 28.945313 28.945313 28.945313s28.945312-12.957031 28.945312-28.945313c-.019531-15.976562-12.96875-28.925781-28.945312-28.945312zm0 41.890625c-7.152344 0-12.945313-5.796875-12.945313-12.945313 0-7.148437 5.796875-12.945312 12.945313-12.945312 7.148437 0 12.945312 5.796875 12.945312 12.945312-.007812 7.148438-5.800781 12.9375-12.945312 12.945313zm0 0" fill="url(#c)"/><path d="m317.972656 250h-.398437c-4.824219-.011719-9.550781 1.359375-13.621094 3.949219-3.328125-6.300781-9.09375-10.960938-15.953125-12.894531v-192.6875c0-26.46875-21.363281-48.367188-47.832031-48.367188h-192.285157c-26.464843 0-47.882812 21.898438-47.882812 48.367188v391.265624c0 26.46875 21.417969 48.367188 47.882812 48.367188h192.285157c26.46875 0 47.832031-21.898438 47.832031-48.367188v-10.703124c31-.96875 55.9375-27.960938 55.96875-61.023438.011719-14.234375.070312-24.847656.082031-33.457031.027344-23.105469.058594-31.71875 0-57.167969-.03125-15.058594-11.71875-27.28125-26.078125-27.28125zm-109.265625-90.980469c-14.382812 0-26.1875 12.277344-26.199219 27.367188l-.117187 100.511719-.519531-.605469c-5.992188-7.445313-14.808594-12.066407-24.339844-12.761719-9.324219-.644531-18.503906 2.585938-25.367188 8.929688l-5.332031 4.421874c-2.894531 2.324219-3.730469 6.378907-1.988281 9.660157l41.972656 80.457031h-150.816406v-282h256v146.863281c-2.078125.882813-4.039062 2.011719-5.84375 3.363281-4.722656-6.988281-12.589844-11.191406-21.023438-11.226562h-.425781c-3.34375-.058594-6.65625.621094-9.707031 1.988281v-49.582031c0-15.101562-11.898438-27.386719-26.292969-27.386719zm-160.824219-143.019531h192.285157c17.644531 0 31.832031 14.722656 31.832031 32.367188v30.632812h-256v-30.632812c0-17.644532 14.238281-32.367188 31.882812-32.367188zm192.285157 456h-192.285157c-17.644531 0-31.882812-14.722656-31.882812-32.367188v-46.632812h159.144531l2.101563 4.234375c10.136718 19.46875 29.457031 31.765625 50.429687 31.765625h44.324219v10.632812c0 17.644532-14.1875 32.367188-31.832031 32.367188zm87.921875-137.566406c-.011719 8.613281-.023438 19.234375-.035156 33.46875-.027344 24.863281-18.6875 45.101562-41.601563 45.101562h-58.777344c-14.980469 0-28.863281-8.804687-36.234375-22.964844l-49.425781-94.960937.503906-.421875c.101563-.085938.207031-.175781.300781-.265625 3.648438-3.445313 8.566407-5.21875 13.574219-4.894531 5.136719.402344 9.875 2.921875 13.082031 6.957031l14.671876 17.847656c2.140624 2.609375 5.695312 3.589844 8.875 2.453125 3.179687-1.136718 5.304687-4.148437 5.304687-7.527344l.085937-122.828124c0-6.277344 4.726563-11.378907 10.296876-11.378907 5.566406 0 10.289062 5.109375 10.289062 11.386719v74.015625c0 .269531-.011719.546875-.011719.820313 0 .148437.011719.292968.011719.4375v31.566406c0 4.417968 3.582031 8 8 8s8-3.582032 8-8v-32.550782c0-6.023437 4.300781-10.695312 9.707031-10.695312h.425781c5.566407 0 9.867188 4.972656 9.867188 11.25v28.976562c0 4.417969 3.582031 8 8 8s8-3.582031 8-8v-22.734374c0-6.28125 4.410156-11.390626 10.019531-11.390626 5.570313 0 9.980469 5.109376 9.980469 11.390626v21.445312c0 4.417969 3.582031 8 8 8s8-3.582031 8-8v-11.613281c0-6.28125 5-11.324219 10.570312-11.324219h.402344c5.554688 0 10.085938 5.0625 10.097656 11.320312.0625 25.421876.050782 34.027344.019532 57.113282zm0 0" fill="url(#d)"/></svg>