<svg height="449pt" viewBox="-59 0 449 449.99324" width="449pt" xmlns="http://www.w3.org/2000/svg" xmlns:xlink="http://www.w3.org/1999/xlink"><linearGradient id="a" gradientUnits="userSpaceOnUse" x1="165.663995" x2="165.663995" y1="14.708244" y2="432.278244"><stop offset="0" stop-color="#00efd1"/><stop offset="1" stop-color="#00acea"/></linearGradient><path d="m323.515625 12.171875-141.144531-12.140625c-4.375-.382812-8.238282 2.835938-8.648438 7.207031l-9.800781 102.246094c-1.660156 19.289063 5.0625 38.113281 18.933594 53 1.90625 2.035156 3.914062 3.96875 6.023437 5.789063-1.511718.507812-3.242187 1.085937-4.722656 1.738281l-103.65625 37.996093v-2.339843c.09375-2.035157-.667969-4.019531-2.09375-5.476563-1.429688-1.457031-3.402344-2.253906-5.441406-2.195312h-64.792969c-2.054687-.0625-4.039063.726562-5.492187 2.179687-1.453126 1.453125-2.242188 3.441407-2.179688 5.492188v225.882812c0 4.417969 3.253906 8.445313 7.671875 8.445313h64.792969c4.417968 0 7.535156-4.027344 7.535156-8.445313v-7.089843c46 .1875 92.039062.285156 129.023438.34375l-.375 5.542968-26.734376-2.300781c-4.339843-.265625-8.101562 2.984375-8.460937 7.320313-.359375 4.335937 2.808594 8.164062 7.132813 8.621093l69.476562 5.976563c.234375.019531.46875.027344.699219.027344 4.285156 0 7.808593-3.378907 7.992187-7.660157s-3.042968-7.945312-7.3125-8.308593l-26.734375-2.300782.613281-6.828125c12.671876.019531 23.9375.101563 33.285157.101563h.039062c18.578125 0 33.734375-14.40625 33.800781-32.050782v-.566406c.011719-6.90625-2.285156-13.613281-6.527343-19.058594 3.53125-1.53125 6.777343-3.648437 9.601562-6.265624 12.632813-11.460938 13.644531-30.972657 2.261719-43.675782 2.238281-1.277344 4.320312-2.808594 6.210938-4.5625 6.445312-5.855468 10.136718-14.144531 10.179687-22.851562v-.570313c0-8.023437-3.097656-15.738281-8.652344-21.527343 1.746094-1.109376 3.390625-2.371094 4.90625-3.777344 6.445313-5.859375 10.140625-14.152344 10.179688-22.863282.058593-17.683593-15.046875-32.136718-33.671875-32.214843l-19.414063-.097657-18.164062-26.335937c-.105469-.152344-.21875-.300781-.324219-.449219 15.828125-.9375 31.035156-6.492187 43.738281-15.980468 16.210938-12.246094 26.0625-29.699219 27.726563-49.074219l9.796875-102.167969c.203125-2.125-.453125-4.246094-1.820313-5.886719-1.363281-1.640625-3.332031-2.664062-5.457031-2.847656zm-259.015625 411.824219h-48v-210h48zm199.160156-193.101563h.21875l23.480469.117188c9.816406.042969 17.777344 7.292969 17.746094 16.167969-.046875 4.238281-1.882813 8.257812-5.058594 11.066406-3.492187 3.140625-8.046875 4.835937-12.742187 4.75h-.070313l-5.210937.09375c-.347657-.011719-.703126.035156-1.050782.035156-.152344 0-.332031 0-.5.011719l-42.109375-.140625h-.027343c-4.398438.039062-7.941407 3.609375-7.949219 8.007812-.007813 4.394532 3.527343 7.976563 7.921875 8.035156l43.390625.152344c9.457031.398438 17 7.503906 16.972656 16.144532v.570312c-.046875 4.269531-1.882813 8.324219-5.058594 11.175781-3.503906 3.183594-8.078125 4.933594-12.8125 4.898438l-8.246093.011719h-30.363282c-4.382812-.007813-7.941406 3.539062-7.949218 7.921874-.003907 4.378907 3.539062 7.9375 7.921874 7.945313l30.285157.078125c4.726562-.03125 9.289062 1.734375 12.765625 4.941406 3.167968 2.886719 4.972656 6.972656 4.980468 11.261719-.046874 4.242187-1.886718 8.265625-5.058593 11.082031-3.488281 3.144532-8.039063 4.851563-12.738281 4.773438h-28.660157c-4.417969-.007813-8.003906 3.566406-8.011719 7.984375-.007812 4.417969 3.566407 8.007812 7.988282 8.015625h15.464844c9.820312 0 17.789062 7.347656 17.757812 16.222656v.636719c-.03125 8.851562-8.011719 16.140625-17.800781 16.140625h-.019531c-38.265626 0-108.617188-.246094-178.617188-.535156v-183.410157l109.414062-40.109375c.171876-.0625.453126-.128906.617188-.199218 6.367188-2.835938 13.398438-3.839844 20.300781-2.898438 4.117188 1.695312 8.359375 3.0625 12.691407 4.089844 5.257812 2.808594 9.765624 6.832031 13.148437 11.734375l11.835937 17.324219-31.238281.007812h-.042969c-2.84375-.050781-5.492187 1.433594-6.933593 3.882812-1.4375 2.453126-1.445313 5.488282-.019531 7.949219 1.429687 2.457031 4.070312 3.953125 6.914062 3.917969zm19.964844-71.507812c-12.746094 9.625-29.0625 14.132812-45.964844 12.675781-2.898437-.253906-5.78125-.683594-8.628906-1.289062-4.320312-2.070313-8.898438-3.554688-13.609375-4.40625-7.878906-3.476563-14.972656-8.503907-20.859375-14.785157-10.746094-11.535156-15.96875-26-14.707031-40.648437l1.605469-16.773438c3.574218 1.867188 6.167968 4.757813 9.300781 8.25 5.757812 6.417969 12.925781 14.40625 27.84375 15.691406 14.914062 1.28125 23.34375-5.367187 30.113281-10.707031 5.9375-4.683593 10.21875-8.070312 18.835938-7.328125 8.613281.746094 12.253906 4.808594 17.296874 10.4375 4.617188 5.144532 10.152344 11.292969 19.84375 14.191406-1.996093 13.640626-9.394531 25.867188-21.070312 34.6875zm22.726562-51.179688c-3.71875-1.863281-6.371093-4.808593-9.585937-8.390625-5.757813-6.417968-12.925781-14.40625-27.839844-15.691406-14.917969-1.28125-23.34375 5.367188-30.117187 10.707031-5.9375 4.683594-10.222656 8.070313-18.832032 7.328125-8.613281-.746094-12.253906-4.808594-17.304687-10.4375-4.582031-5.105468-10.066406-11.191406-19.621094-14.121094l5.839844-60.949218 125.203125 10.769531zm0 0" fill="url(#a)"/></svg>