<svg height="462pt" viewBox="0 0 462.8546 462" width="462pt" xmlns="http://www.w3.org/2000/svg" xmlns:xlink="http://www.w3.org/1999/xlink"><linearGradient id="a"><stop offset="0" stop-color="#00efd1"/><stop offset="1" stop-color="#00acea"/></linearGradient><linearGradient id="b" gradientUnits="userSpaceOnUse" x1="303.143" x2="303.143" xlink:href="#a" y1="20.7223" y2="438.2923"/><linearGradient id="c" gradientUnits="userSpaceOnUse" x1="101.149" x2="101.149" xlink:href="#a" y1="20.7223" y2="438.2923"/><linearGradient id="d" gradientUnits="userSpaceOnUse" x1="112.966" x2="112.966" xlink:href="#a" y1="20.7223" y2="438.2923"/><path d="m427.894531 203.007812h-.597656c-7.933594.066407-15.589844 2.925782-21.625 8.078126-5.300781-13.234376-17.734375-22.480469-32.234375-22.480469-8.707031-.03125-17.085938 3.320312-23.375 9.34375-5.992188-11.199219-17.382812-18.941407-30.417969-18.941407h-.632812c-6.699219.074219-13.203125 2.261719-18.582031 6.257813v-80.273437c0-20.300782-15.800782-36.8125-35.050782-36.8125-19.230468 0-34.957031 16.5-34.972656 36.785156l-.148438 160.21875-7.648437-9.289063c-8.222656-10.234375-20.332031-16.59375-33.425781-17.550781-12.828125-.878906-25.445313 3.582031-34.871094 12.328125l-7.988281 6.625c-2.898438 2.402344-3.730469 6.507813-1.988281 9.847656l77.878906 149.832031c14.390625 27.648438 41.78125 45.03125 71.484375 45.03125h87.347656c45.011719 0 81.667969-39.179687 81.714844-87.082031.019531-21.136719.039062-37 .058593-49.792969.042969-34.347656.058594-47.390624-.03125-85.21875-.046874-20.242187-15.699218-36.90625-34.894531-36.90625zm18.925781 122c-.019531 12.792969-.039062 28.765626-.058593 49.902344-.035157 39.089844-29.515625 71.097656-65.714844 71.097656h-87.347656c-23.714844 0-45.667969-14.085937-57.292969-36.417968l-74.898438-144 3.167969-2.679688c.097657-.085937.199219-.199218.296875-.292968 6.210938-5.847657 14.566406-8.851563 23.078125-8.300782 8.699219.667969 16.730469 4.917969 22.171875 11.742188l21.804688 26.527344c2.144531 2.609374 5.695312 3.589843 8.878906 2.453124 3.179688-1.136718 5.300781-4.148437 5.304688-7.527343l.125-182.535157c.007812-11.46875 8.632812-20.800781 19.050781-20.800781s19.042969 9.339844 19.042969 20.816407v110.070312c0 .378906-.019532.761719-.019532 1.144531 0 .171875.019532.347657.019532.519531v47.035157c0 4.417969 3.578124 8 8 8 4.417968 0 8-3.582031 8-8v-48.433594c0-11.066406 8.429687-20.320313 18.582031-20.320313h.632812c10.421875 0 18.785157 9.730469 18.785157 21.207032v43.058594c0 4.417968 3.578124 8 8 8 4.417968 0 8-3.582032 8-8v-33.785157c0-11.476562 8.546874-20.8125 19.03125-20.8125 10.417968 0 18.96875 9.332031 18.96875 20.8125v31.871094c0 4.417969 3.578124 8 8 8 4.417968 0 8-3.582031 8-8v-17.257813c0-11.476562 8.445312-21.09375 18.867187-21.09375h.597656c10.394531 0 18.871094 9.449219 18.902344 20.890626.082031 37.796874.066406 50.78125.023437 85.109374zm0 0" fill="url(#b)"/><path d="m101.148438 28.367188c-40.433594 0-73.207032 32.777343-73.207032 73.210937 0 40.429687 32.773438 73.207031 73.207032 73.207031 40.433593 0 73.210937-32.777344 73.210937-73.207031-.046875-40.414063-32.796875-73.164063-73.210937-73.210937zm0 130.417968c-31.59375 0-57.207032-25.613281-57.207032-57.207031 0-31.597656 25.613282-57.210937 57.207032-57.210937 31.597656 0 57.210937 25.613281 57.210937 57.210937-.039063 31.578125-25.628906 57.171875-57.210937 57.207031zm0 0" fill="url(#c)"/><path d="m128.503906 99.007812h-23.074218v-32.597656c0-4.421875-3.582032-8-8-8-4.421876 0-8 3.578125-8 8v41.03125c-.027344 2.058594.796874 4.035156 2.273437 5.464844 1.480469 1.433594 3.480469 2.191406 5.535156 2.101562h31.265625c4.417969 0 8-3.582031 8-8 0-4.417968-3.582031-8-8-8zm0 0" fill="url(#d)"/><path d="m202.296875 101.578125c0-55.863281-45.285156-101.152344-101.148437-101.152344-55.863282 0-101.148438 45.285157-101.148438 101.148438s45.285156 101.148437 101.148438 101.148437c55.835937-.0625 101.085937-45.3125 101.148437-101.144531zm-101.148437 85.144531c-47.023438 0-85.144532-38.121094-85.144532-85.144531 0-47.027344 38.121094-85.148437 85.144532-85.148437 47.027343 0 85.148437 38.121093 85.148437 85.148437-.054687 47-38.144531 85.089844-85.148437 85.144531zm0 0" fill="url(#c)"/></svg>