<svg height="475pt" viewBox="-39 0 475 475.12601" width="475pt" xmlns="http://www.w3.org/2000/svg" xmlns:xlink="http://www.w3.org/1999/xlink"><linearGradient id="a"><stop offset="0" stop-color="#00efd1"/><stop offset="1" stop-color="#00acea"/></linearGradient><linearGradient id="b" gradientUnits="userSpaceOnUse" x1="256.52629" x2="256.52629" xlink:href="#a" y1="14.352084" y2="437.777084"/><linearGradient id="c" gradientUnits="userSpaceOnUse" x1="305.95829" x2="305.95829" xlink:href="#a" y1="14.352084" y2="437.777084"/><linearGradient id="d" gradientUnits="userSpaceOnUse" x1="64.67329" x2="64.67329" xlink:href="#a" y1="14.352084" y2="437.777084"/><path d="m384.316406 295.621094-.4375-.324219c-5.691406-4.160156-12.617187-6.28125-19.664062-6.019531.894531-3.855469 1.113281-7.839844.648437-11.773438-1.839843-17.257812-17.328125-29.75-34.582031-27.902344 1.503906-11.527343-3.316406-22.972656-12.613281-29.957031l-.464844-.339843c-4.710937-3.453126-10.292969-5.515626-16.117187-5.945313l42.554687-57.933594c11.183594-15.230469 8.527344-36.257812-5.933594-46.875-14.441406-10.609375-35.296875-6.867187-46.523437 8.398438l-96.691406 133.84375-7.921876-50.101563c-.628906-11.996094-6.164062-23.210937-15.304687-31.007812-9.089844-7.691406-20.957031-11.28125-32.785156-9.925782l-9.425781.558594c-4.144532.242188-7.414063 3.617188-7.527344 7.765625l-4.761719 174.375c-4.175781 28.160157 6.789063 55.589844 28.699219 71.679688l64.183594 47.144531c12.390624 9.070312 27.363281 13.921875 42.71875 13.84375 24.375 0 49.054687-11.789062 65.199218-33.730469 11.417969-15.515625 19.9375-27.085937 26.855469-36.476562 18.570313-25.21875 25.519531-34.652344 45.875-62.5 11.121094-15.210938 8.4375-36.207031-5.980469-46.796875zm-6.9375 37.363281c-20.335937 27.820313-27.28125 37.25-45.839844 62.453125-6.917968 9.390625-15.4375 20.957031-26.859374 36.476562-20.890626 28.390626-59.273438 35.777344-85.558594 16.472657l-64.183594-47.140625c-17.210938-12.644532-25.75-34.429688-22.277344-56.851563.050782-.332031.082032-.664062.089844-1l4.566406-167.527343 2.300782-.132813c.136718-.007813.269531-.019531.40625-.035156 7.523437-.925781 15.09375 1.320312 20.898437 6.199219 5.882813 5.0625 9.398437 12.34375 9.707031 20.101562.011719.273438.042969.542969.085938.816406l11.011718 69.640625c.507813 3.199219 2.894532 5.78125 6.046876 6.53125 3.148437.753907 6.445312-.46875 8.339843-3.09375l108-149.519531c5.964844-8.105469 16.785157-10.320312 24.128907-4.925781 7.339843 5.390625 8.464843 16.386719 2.5 24.5l-59.386719 80.851562c-.21875.28125-.4375.566407-.652344.859375-.097656.136719-.195313.277344-.289063.421875l-25.363281 34.53125c-2.617187 3.5625-1.847656 8.570313 1.714844 11.1875 3.5625 2.613281 8.570313 1.847657 11.183594-1.714843l26.144531-35.59375c6.046875-7.589844 16.492188-9.546876 23.636719-4.300782l.464843.339844c7.34375 5.394531 8.464844 16.390625 2.5 24.507812l-4.984374 6.785157-.023438.027343-.007812.015626-18.222657 24.816406c-2.621093 3.558594-1.855469 8.570312 1.707031 11.1875 3.5625 2.617187 8.574219 1.847656 11.1875-1.714844l18.253907-24.855469c2.832031-3.925781 7.050781-6.628906 11.800781-7.566406 4.304688-.90625 8.789062.066406 12.335938 2.667969 3.546874 2.605468 5.8125 6.59375 6.234374 10.972656.53125 4.824219-.796874 9.667969-3.710937 13.550781l-7.816406 10.648438-.066407.089843-.03125.042969-9.285156 12.636719c-2.621094 3.5625-1.855468 8.574219 1.707032 11.191406 3.5625 2.617188 8.574218 1.847656 11.1875-1.71875l9.363281-12.75c5.976562-8.0625 16.761719-10.253906 24.082031-4.875l.441406.324219c7.320313 5.378906 8.457032 16.351563 2.53125 24.46875zm0 0" fill="url(#b)"/><path d="m245.910156 61.84375 41.867188 17.648438c4.070312 1.71875 8.761718-.191407 10.476562-4.261719 1.71875-4.074219-.191406-8.765625-4.261718-10.480469l-24.226563-10.210938 96.148437-39.128906c4.09375-1.664062 6.058594-6.332031 4.394532-10.425781-1.664063-4.09375-6.332032-6.058594-10.425782-4.394531l-95.925781 39.039062 10.078125-23.914062c1.117188-2.636719.738282-5.667969-.988281-7.949219s-4.539063-3.464844-7.378906-3.109375c-2.835938.359375-5.269531 2.203125-6.375 4.84375l-17.648438 41.867188c-1.714843 4.070312.195313 8.761718 4.265625 10.476562zm0 0" fill="url(#c)"/><path d="m124.304688 99.117188-41.867188-17.644532c-4.074219-1.71875-8.765625.191406-10.480469 4.265625-1.714843 4.070313.191407 8.761719 4.265625 10.476563l23.914063 10.082031-95 38.660156c-2.679688 1.054688-4.589844 3.46875-4.996094 6.320313-.402344 2.851562.757813 5.703125 3.039063 7.460937 2.28125 1.761719 5.332031 2.15625 7.988281 1.039063l95.21875-38.75-10.210938 24.222656c-1.714843 4.074219.195313 8.765625 4.265625 10.480469 4.070313 1.714843 8.761719-.191407 10.480469-4.265625l17.644531-41.867188c1.714844-4.070312-.191406-8.761718-4.261718-10.480468zm0 0" fill="url(#d)"/></svg>