<svg height="492pt" viewBox="-48 0 492 492.61088" width="492pt" xmlns="http://www.w3.org/2000/svg" xmlns:xlink="http://www.w3.org/1999/xlink"><linearGradient id="a"><stop offset="0" stop-color="#00efd1"/><stop offset="1" stop-color="#00acea"/></linearGradient><linearGradient id="b" gradientUnits="userSpaceOnUse" x1="256.598859" x2="256.598859" xlink:href="#a" y1="36.036981" y2="453.606981"/><linearGradient id="c" gradientUnits="userSpaceOnUse" x1="305.972859" x2="305.972859" xlink:href="#a" y1="36.036981" y2="453.606981"/><linearGradient id="d" gradientUnits="userSpaceOnUse" x1="64.766859" x2="64.766859" xlink:href="#a" y1="36.036981" y2="453.606981"/><path d="m384.378906 313.101562-.433594-.316406c-5.683593-4.183594-12.621093-6.3125-19.675781-6.042968 2.878907-12.585938-1.386719-25.960938-12.011719-33.761719-6.320312-4.617188-14.128906-6.707031-21.910156-5.871094 1.511719-11.539063-3.308594-23-12.617187-29.988281l-.457031-.335938c-4.707032-3.453125-10.292969-5.515625-16.117188-5.941406l42.554688-57.9375c11.171874-15.210938 8.53125-36.207031-5.875-46.835938l-.054688-.039062c-14.445312-10.609375-35.300781-6.863281-46.523438 8.398438l-96.691406 133.847656-7.925781-50.097656c-.628906-12-6.164063-23.210938-15.304687-31.007813-9.089844-7.691406-20.957032-11.28125-32.785157-9.925781l-9.429687.558594c-4.144532.246093-7.410156 3.617187-7.523438 7.769531l-4.753906 174.367187c-4.179688 28.160156 6.789062 55.589844 28.699219 71.679688l64.183593 47.140625c12.386719 9.070312 27.359376 13.925781 42.714844 13.847656 24.375 0 49.050782-11.785156 65.199219-33.730469 11.378906-15.464844 19.878906-27 26.785156-36.378906 18.601563-25.261719 25.566407-34.714844 45.941407-62.597656 11.121093-15.210938 8.441406-36.207032-5.988282-46.800782zm-6.929687 37.363282c-20.363281 27.855468-27.320313 37.296875-45.910157 62.546875-6.902343 9.375-15.40625 20.917969-26.789062 36.382812-20.890625 28.390625-59.273438 35.777344-85.558594 16.472657l-64.179687-47.144532c-17.214844-12.644531-25.75-34.425781-22.28125-56.851562.050781-.332032.082031-.664063.09375-1l4.566406-167.523438 2.300781-.136718c.132813-.007813.269532-.019532.402344-.035157 7.527344-.925781 15.097656 1.320313 20.902344 6.199219 5.878906 5.066406 9.394531 12.34375 9.699218 20.101562.015626.273438.042969.546876.085938.816407l11.015625 69.644531c.503906 3.199219 2.890625 5.777344 6.042969 6.527344 3.148437.753906 6.445312-.46875 8.339844-3.09375l108-149.507813c5.953124-8.097656 16.746093-10.3125 24.085937-4.960937l.042969.03125c7.347656 5.390625 8.472656 16.390625 2.507812 24.503906l-59.375 80.839844c-.226562.289062-.445312.578125-.660156.871094-.101562.140624-.203125.285156-.292969.425781l-25.363281 34.53125c-1.734375 2.300781-2.101562 5.359375-.953125 8.003906s3.628906 4.46875 6.496094 4.773437c2.867187.300782 5.675781-.960937 7.351562-3.308593l26.152344-35.597657c6.050781-7.582031 16.488281-9.535156 23.632813-4.285156l.460937.335938c7.34375 5.394531 8.464844 16.386718 2.5 24.5l-4.886719 6.65625-.117187.160156-.058594.074219-18.175781 24.75c-2.570313 3.5625-1.785156 8.527343 1.753906 11.128906 3.539062 2.597656 8.511719 1.859375 11.140625-1.65625l18.320313-24.945313c5.984374-8.019531 16.738281-10.191406 24.089843-4.792968 7.355469 5.402344 8.46875 16.386718 2.5 24.5l-7.847656 10.6875-.039063.050781-.015624.027344-9.300782 12.65625c-2.621094 3.558593-1.855468 8.570312 1.707032 11.1875 3.5625 2.617187 8.574218 1.847656 11.1875-1.714844l9.355468-12.714844c2.832032-3.917969 7.046875-6.617187 11.789063-7.554687 4.296875-.875 8.761719.085937 12.3125 2.65625l.433593.320312c7.328126 5.378906 8.464844 16.351563 2.535157 24.460938zm0 0" fill="url(#b)"/><path d="m249.046875 79.851562c1.035156-.003906 2.054687-.203124 3.011719-.59375l96.035156-39.082031-10.214844 24.226563c-1.113281 2.632812-.738281 5.664062.988282 7.945312 1.726562 2.28125 4.542968 3.46875 7.378906 3.109375 2.839844-.355469 5.273437-2.203125 6.378906-4.839843l17.648438-41.867188c1.714843-4.070312-.195313-8.765625-4.265626-10.480469l-41.867187-17.648437c-4.070313-1.707032-8.753906.207031-10.46875 4.273437-1.710937 4.066407.191406 8.75 4.253906 10.472657l23.917969 10.082031-95.816406 38.988281c-3.542969 1.441406-5.574219 5.195312-4.835938 8.949219.734375 3.757812 4.027344 6.464843 7.855469 6.464843zm0 0" fill="url(#c)"/><path d="m53.28125 180.222656-24.222656-10.210937 95.179687-38.734375c4.09375-1.667969 6.0625-6.335938 4.394531-10.425782-1.664062-4.09375-6.332031-6.0625-10.425781-4.394531l-94.960937 38.644531 10.082031-23.914062c1.714844-4.074219-.195313-8.765625-4.265625-10.480469-4.074219-1.714843-8.765625.191407-10.480469 4.265625l-17.648437 41.867188c-1.71875 4.074218.191406 8.765625 4.265625 10.484375l41.867187 17.644531c4.074219 1.71875 8.765625-.191406 10.480469-4.265625 1.714844-4.070313-.195313-8.765625-4.265625-10.480469zm0 0" fill="url(#d)"/></svg>