<svg height="512pt" viewBox="-149 0 512 512" width="512pt" xmlns="http://www.w3.org/2000/svg"><path d="m93.4375 340.371094h27.261719v171.628906h-27.261719zm0 0" fill="#c6c2c6"/><path d="m111.691406 372.84375h-9.246094c-28.886718 0-52.519531-23.632812-52.519531-52.519531v-37.582031c0-28.886719 23.632813-52.519532 52.519531-52.519532h9.246094c28.886719 0 52.519532 23.632813 52.519532 52.519532v37.582031c0 28.886719-23.632813 52.519531-52.519532 52.519531zm0 0" fill="#8a7e88"/><g fill="#635663"><path d="m111.691406 230.222656h-9.246094c-4.839843 0-9.527343.675782-13.988281 1.917969 22.148438 6.164063 38.53125 26.554687 38.53125 50.601563v37.582031c0 24.042969-16.382812 44.4375-38.53125 50.601562 4.460938 1.242188 9.148438 1.917969 13.988281 1.917969h9.246094c28.886719 0 52.519532-23.632812 52.519532-52.519531v-37.582031c0-28.886719-23.632813-52.519532-52.519532-52.519532zm0 0"/><path d="m174.230469 10.210938c0-5.5-4.5-10-10-10h-6.929688c-5.5 0-10 4.5-10 10v121.238281c0 5.5 4.5 10 10 10h6.929688c5.5 0 10-4.5 10-10zm0 0"/><path d="m119.371094 10.210938c0-5.5-4.5-10-10-10h-6.929688c-5.5 0-10 4.5-10 10v122.238281c0 5.5 4.5 10 10 10h6.929688c5.5 0 10-4.5 10-10zm0 0"/><path d="m66.507812 10c0-5.5-4.5-10-10-10h-6.929687c-5.5 0-10 4.5-10 10v122.449219c0 5.5 4.5 10 10 10h6.929687c5.5 0 10-4.5 10-10zm0 0"/></g><path d="m174.238281 313.601562h-134.339843c-16.457032 0-29.921876-13.496093-29.921876-29.988281l-9.976562-112.246093c0-27.488282 22.441406-49.980469 49.871094-49.980469h114.390625c27.429687 0 49.875 22.492187 49.875 49.980469l-9.976563 112.246093c0 16.492188-13.464844 29.988281-29.921875 29.988281zm0 0" fill="#f1eff2"/><path d="m164.265625 121.386719h-51.511719c27.429688 0 49.875 22.492187 49.875 49.980469l-9.976562 112.246093c0 16.492188-13.464844 29.988281-29.921875 29.988281h51.507812c16.457031 0 29.921875-13.496093 29.921875-29.988281l9.976563-112.246093c0-27.488282-22.441407-49.980469-49.871094-49.980469zm0 0" fill="#e0dee1"/></svg>