<svg height="512pt" viewBox="0 -50 512.001 512" width="512pt" xmlns="http://www.w3.org/2000/svg"><path d="m504.386719 411.695312h-301.917969l42-15.222656h259.921875c4.203125 0 7.609375 3.40625 7.609375 7.609375s-3.40625 7.613281-7.613281 7.613281zm0 0" fill="#635663"/><path d="m205.953125 0c-113.742187 0-205.953125 92.160156-205.953125 205.847656s92.210938 205.847656 205.953125 205.847656c113.746094 0 205.957031-92.160156 205.957031-205.847656s-92.207031-205.847656-205.957031-205.847656zm0 305.820312c-55.238281 0-100.019531-44.761718-100.019531-99.972656 0-55.210937 44.78125-99.972656 100.019531-99.972656 55.242187 0 100.027344 44.761719 100.027344 99.972656 0 55.210938-44.785157 99.972656-100.027344 99.972656zm0 0" fill="#8a7e88"/><path d="m205.953125 372.246094c-90.796875 0-164.667969-73.832032-164.667969-164.585938s73.871094-164.585937 164.667969-164.585937c90.800781 0 164.671875 73.832031 164.671875 164.585937s-73.871094 164.585938-164.671875 164.585938zm0-314.171875c-82.523437 0-149.667969 67.101562-149.667969 149.585937 0 82.480469 67.144532 149.585938 149.667969 149.585938 82.527344 0 149.671875-67.105469 149.671875-149.585938 0-82.484375-67.144531-149.585937-149.671875-149.585937zm0 0" fill="#635663"/><path d="m205.953125 0c-8.585937 0-17.046875.535156-25.355469 1.558594 101.765625 12.5 180.570313 99.195312 180.570313 204.289062 0 105.097656-78.804688 191.789063-180.570313 204.289063 8.308594 1.023437 16.769532 1.558593 25.355469 1.558593 113.746094 0 205.957031-92.160156 205.957031-205.847656s-92.207031-205.847656-205.957031-205.847656zm0 0" fill="#635663"/><path d="m205.953125 93.625c-62.007813 0-112.277344 50.242188-112.277344 112.222656 0 61.976563 50.269531 112.222656 112.277344 112.222656 62.011719 0 112.28125-50.246093 112.28125-112.222656 0-61.976562-50.269531-112.222656-112.28125-112.222656zm-.234375 200.8125c-48.953125 0-88.640625-39.664062-88.640625-88.589844 0-48.925781 39.683594-88.589844 88.640625-88.589844 48.953125 0 88.636719 39.664063 88.636719 88.589844 0 48.925782-39.683594 88.589844-88.636719 88.589844zm0 0" fill="#ffd779"/></svg>