<svg height="512pt" viewBox="0 0 512.00011 512" width="512pt" xmlns="http://www.w3.org/2000/svg"><path d="m50.4375 468.4375c-1.921875 0-3.839844-.734375-5.308594-2.199219-2.925781-2.929687-2.925781-7.679687.007813-10.605469l274.65625-274.414062c2.929687-2.929688 7.679687-2.925781 10.605469.003906 2.929687 2.929688 2.925781 7.679688-.003907 10.605469l-274.65625 274.414063c-1.464843 1.460937-3.382812 2.195312-5.300781 2.195312zm0 0" fill="#c6c2c6"/><path d="m61.441406 438.484375 11.246094 11.238281c5.75 5.742188 5.046875 15.246094-1.480469 20.085938l-52.589843 39.003906c-4.644532 3.441406-11.109376 2.96875-15.199219-1.117188l-.003907-.003906c-4.085937-4.082031-4.5625-10.542968-1.117187-15.183594l39.039063-52.542968c4.847656-6.523438 14.359374-7.222656 20.105468-1.480469zm0 0" fill="#c6c2c6"/><path d="m502.921875 43.617188-34.539063-34.539063c-11.921874-11.921875-31.191406-12.128906-43.363281-.460937l-194.4375 184.988281 86.796875 87.519531 186.007813-194.144531c11.664062-12.175781 11.457031-31.441407-.464844-43.363281zm0 0" fill="#ffd779"/><path d="m474.160156 57.757812-185.886718 194.019532 29.105468 29.347656 186.007813-194.144531c11.664062-12.171875 11.457031-31.441407-.464844-43.363281l-29.226563-29.226563c11.921876 11.921875 12.128907 31.191406.464844 43.367187zm0 0" fill="#fcc151"/><path d="m233.40625 183.835938 94.136719 94.054687c5.203125 5.199219 5.203125 13.632813 0 18.828125l-.042969.046875c-5.195312 5.191406-13.613281 5.191406-18.808594 0l-94.140625-94.058594c-5.203125-5.195312-5.203125-13.628906 0-18.828125l.042969-.042968c5.195312-5.191407 13.617188-5.191407 18.8125 0zm0 0" fill="#cfab4b"/><path d="m327.542969 277.890625-36.226563-36.195313c4.882813 5.21875 4.789063 13.402344-.304687 18.492188l-.042969.042969c-5.195312 5.191406-13.617188 5.191406-18.8125 0l36.53125 36.53125c5.199219 5.191406 13.617188 5.191406 18.8125 0l.042969-.042969c5.203125-5.195312 5.203125-13.628906 0-18.828125zm0 0" fill="#c59731"/></svg>