<svg height="512pt" viewBox="0 -60 512 512" width="512pt" xmlns="http://www.w3.org/2000/svg"><path d="m512 341.605469c0 27.582031-22.386719 49.941406-50 49.941406h-412c-27.613281 0-50-22.359375-50-49.941406v-291.664063c0-27.582031 22.386719-49.941406 50-49.941406h412c27.613281 0 50 22.359375 50 49.941406zm0 0" fill="#f1eff2"/><path d="m462 0h-51.507812c27.613281 0 50 22.359375 50 49.941406v291.664063c0 27.582031-22.386719 49.941406-50 49.941406h51.507812c27.613281 0 50-22.359375 50-49.941406v-291.664063c0-27.582031-22.386719-49.941406-50-49.941406zm0 0" fill="#e0dee1"/><path d="m384.800781 195.773438c0-71.050782-57.667969-128.648438-128.800781-128.648438s-128.800781 57.597656-128.800781 128.648438c0 71.050781 57.667969 128.652343 128.800781 128.652343s128.800781-57.601562 128.800781-128.652343zm0 0" fill="#c6c2c6"/><path d="m256 67.125c-8.796875 0-17.375.90625-25.671875 2.589844 58.75 11.949218 102.960937 63.847656 102.960937 126.058594 0 62.210937-44.210937 114.109374-102.960937 126.058593 8.296875 1.683594 16.875 2.59375 25.671875 2.59375 71.132812 0 128.800781-57.601562 128.800781-128.652343 0-71.050782-57.667969-128.648438-128.800781-128.648438zm0 0" fill="#a298a1"/><g fill="#635663"><path d="m275.539062 195.773438c0-10.78125-8.746093-19.519532-19.539062-19.519532s-19.539062 8.738282-19.539062 19.519532 8.746093 19.519531 19.539062 19.519531 19.539062-8.738281 19.539062-19.519531zm0 0"/><path d="m275.539062 266.851562c0-10.777343-8.746093-19.515624-19.539062-19.515624s-19.539062 8.738281-19.539062 19.515624c0 10.78125 8.746093 19.519532 19.539062 19.519532s19.539062-8.738282 19.539062-19.519532zm0 0"/><path d="m275.539062 124.695312c0-10.78125-8.746093-19.519531-19.539062-19.519531s-19.539062 8.738281-19.539062 19.519531 8.746093 19.519532 19.539062 19.519532 19.539062-8.738282 19.539062-19.519532zm0 0"/></g></svg>