<svg height="512pt" viewBox="-56 0 512 512" width="512pt" xmlns="http://www.w3.org/2000/svg"><path d="m349.574219 512h-299.601563c-27.484375 0-49.972656-22.488281-49.972656-49.972656v-412.054688c0-27.484375 22.488281-49.972656 49.972656-49.972656h299.601563c27.484375 0 49.972656 22.488281 49.972656 49.972656v412.054688c0 27.484375-22.488281 49.972656-49.972656 49.972656zm0 0" fill="#f1eff2"/><path d="m336.917969 470.699219h-274.949219c-16.488281 0-29.980469-13.492188-29.980469-29.984375v-106.863282c0-16.492187 13.492188-29.984374 29.980469-29.984374h274.949219c16.492187 0 29.984375 13.492187 29.984375 29.984374v106.863282c0 16.492187-13.492188 29.984375-29.984375 29.984375zm0 0" fill="#c6c2c6"/><path d="m335.410156 178.066406h-271.273437c-14.28125 0-25.96875-11.6875-25.96875-25.96875v-87.964844c0-14.285156 11.6875-25.96875 25.96875-25.96875h271.273437c14.285156 0 25.96875 11.683594 25.96875 25.96875v87.964844c0 14.28125-11.683594 25.96875-25.96875 25.96875zm0 0" fill="#ffd779"/><path d="m349.605469 0h-51.511719c27.46875 0 49.945312 22.5 49.945312 50v412c0 27.5-22.476562 50-49.945312 50h51.511719c27.46875 0 49.941406-22.5 49.941406-50v-412c0-27.5-22.472656-50-49.941406-50zm0 0" fill="#e0dee1"/><path d="m336.933594 303.867188h-51.507813c16.480469 0 29.964844 13.5 29.964844 30v106.832031c0 16.5-13.484375 30-29.964844 30h51.507813c16.480468 0 29.96875-13.5 29.96875-30v-106.832031c0-16.5-13.488282-30-29.96875-30zm0 0" fill="#a298a1"/><path d="m335.425781 38.164062h-51.507812c14.273437 0 25.953125 11.691407 25.953125 25.980469v87.9375c0 14.289063-11.679688 25.980469-25.953125 25.980469h51.507812c14.273438 0 25.953125-11.691406 25.953125-25.980469v-87.9375c0-14.289062-11.679687-25.980469-25.953125-25.980469zm0 0" fill="#fcc151"/><g fill="#635663"><path d="m334.425781 354.011719c0 7.457031-6.035156 13.5-13.484375 13.5h-242.335937c-7.449219 0-13.484375-6.042969-13.484375-13.5 0-7.453125 6.035156-13.5 13.484375-13.5h242.335937c7.449219 0 13.484375 6.046875 13.484375 13.5zm0 0"/><path d="m117.746094 348.21875c7.449218 0 13.484375 6.046875 13.484375 13.5v64.988281c0 7.453125-6.035157 13.5-13.484375 13.5-7.445313 0-13.480469-6.046875-13.480469-13.5v-64.988281c0-7.453125 6.035156-13.5 13.480469-13.5zm0 0"/><path d="m281.800781 348.21875c7.445313 0 13.484375 6.046875 13.484375 13.5v64.988281c0 7.453125-6.039062 13.5-13.484375 13.5-7.449219 0-13.484375-6.046875-13.484375-13.5v-64.988281c0-7.453125 6.035156-13.5 13.484375-13.5zm0 0"/></g><path d="m336.917969 235c0-11.597656-9.390625-20.996094-20.976563-20.996094-11.582031 0-20.972656 9.398438-20.972656 20.996094s9.390625 21 20.972656 21c11.585938 0 20.976563-9.402344 20.976563-21zm0 0" fill="#e73332"/><path d="m251.835938 235c0-11.597656-9.394532-20.996094-20.976563-20.996094-11.585937 0-20.976563 9.398438-20.976563 20.996094s9.390626 21 20.976563 21c11.582031 0 20.976563-9.402344 20.976563-21zm0 0" fill="#a3cf95"/></svg>