<svg height="512pt" viewBox="0 -148 512.001 512" width="512pt" xmlns="http://www.w3.org/2000/svg"><path d="m20.5 67.40625c-11.046875 0-20.5 9.011719-20.5 20.035156v38.363282c0 11.023437 9.453125 20.4375 20.5 20.4375h42.5v-78.835938zm0 0" fill="#8a7e88"/><path d="m512 205.6875v-195.699219c0-6.953125-6.949219-11.777343-13.484375-9.355469l-99.515625 36.914063v139.707031l99.441406 37.761719c6.546875 2.484375 13.558594-2.339844 13.558594-9.328125zm0 0" fill="#ffd779"/><path d="m498.515625.632812-35.410156 13.136719v187.824219l35.339843 13.417969c6.542969 2.488281 13.554688-2.335938 13.554688-9.324219v-195.699219c0-6.953125-6.949219-11.777343-13.484375-9.355469zm0 0" fill="#fcc151"/><path d="m195.4375 54.886719v15.539062h-63.410156v-15.539062c0-8.277344 6.707031-14.984375 14.984375-14.984375h33.441406c8.277344 0 14.984375 6.707031 14.984375 14.984375zm0 0" fill="#8a7e88"/><path d="m180.453125 39.902344h-29.730469c8.273438 0 14.984375 6.707031 14.984375 14.984375v15.539062h29.730469v-15.539062c0-8.277344-6.707031-14.984375-14.984375-14.984375zm0 0" fill="#635663"/><path d="m40 67.40625h230v78.835938h-230zm0 0" fill="#c6c2c6"/><path d="m213.367188 67.40625h56.632812v78.835938h-56.632812zm0 0" fill="#a298a1"/><path d="m263 141.183594v-67.042969c0-15.140625 10.773438-28.148437 25.675781-31l109.367188-21.949219c9.285156-1.863281 17.957031 5.222656 17.957031 14.675782v143.140624c0 9.425782-8.628906 16.507813-17.898438 14.683594l-109.304687-21.484375c-14.957031-2.800781-25.796875-15.835937-25.796875-31.023437zm0 0" fill="#8a7e88"/><path d="m398.042969 21.191406-35.601563 7.144532c1.289063 2.199218 2.050782 4.757812 2.050782 7.53125v143.140624c0 2.824219-.789063 5.433594-2.125 7.660157l35.734374 7.027343c9.269532 1.820313 17.898438-5.257812 17.898438-14.6875v-143.140624c0-9.453126-8.671875-16.539063-17.957031-14.675782zm0 0" fill="#635663"/></svg>