<svg height="512pt" viewBox="0 -86 512.001 512" width="512pt" xmlns="http://www.w3.org/2000/svg"><path d="m23.203125 146.636719h465.59375l-19.324219 164.625c-1.933594 16.449219-19.597656 29.039062-40.75 29.039062h-345.445312c-21.152344 0-38.816406-12.589843-40.75-29.039062zm0 0" fill="#f1eff2"/><path d="m437.289062 146.636719-19.324218 164.625c-1.933594 16.449219-19.601563 29.039062-40.753906 29.039062h51.511718c21.152344 0 38.816406-12.589843 40.75-29.039062l19.324219-164.625zm0 0" fill="#e0dee1"/><path d="m360.75 76.898438h-26v-33.953126c0-9.363281-7.625-16.980468-17-16.980468h-123.5c-9.375 0-17 7.617187-17 16.980468v33.953126h-26v-33.953126c0-23.679687 19.289062-42.945312 43-42.945312h123.5c23.710938 0 43 19.265625 43 42.945312zm0 0" fill="#ffd779"/><path d="m317.75 0h-12.960938v25.964844h12.960938c9.375 0 17 7.617187 17 16.976562v33.957032h26v-33.957032c0-23.675781-19.289062-42.941406-43-42.941406zm0 0" fill="#fcc151"/><path d="m491.921875 86.667969h-471.84375c-11.089844 0-20.078125 8.988281-20.078125 20.078125v22.195312c0 11.089844 8.988281 20.078125 20.078125 20.078125h471.84375c11.089844 0 20.078125-8.988281 20.078125-20.078125v-22.195312c0-11.089844-8.988281-20.078125-20.078125-20.078125zm0 0" fill="#8a7e88"/><path d="m23.203125 88.5c2.105469-16.449219 21.371094-29.039062 44.441406-29.039062h376.714844c23.066406 0 42.332031 12.589843 44.4375 29.039062zm0 0" fill="#8a7e88"/><path d="m491.90625 86.667969h-51.507812c11.097656 0 20.09375 8.984375 20.09375 20.066406v22.21875c0 11.082031-8.996094 20.066406-20.09375 20.066406h51.507812c11.097656 0 20.09375-8.984375 20.09375-20.066406v-22.21875c0-11.082031-8.996094-20.066406-20.09375-20.066406zm0 0" fill="#635663"/><path d="m444.355469 59.460938h-51.507813c23.066406 0 42.335938 12.589843 44.4375 29.039062h51.511719c-2.105469-16.449219-21.371094-29.039062-44.441406-29.039062zm0 0" fill="#635663"/><path d="m281.070312 198.015625h-50.140624c-11.039063 0-19.988282-8.945313-19.988282-19.984375v-43.691406c0-11.039063 8.949219-19.988282 19.988282-19.988282h50.140624c11.035157 0 19.984376 8.949219 19.984376 19.988282v43.691406c0 11.039062-8.945313 19.984375-19.984376 19.984375zm0 0" fill="#ffd779"/><path d="m281.035156 114.351562h-43.023437c11.046875 0 20 8.945313 20 19.976563v43.714844c0 11.03125-8.953125 19.972656-20 19.972656h43.023437c11.046875 0 20-8.941406 20-19.972656v-43.714844c0-11.03125-8.953125-19.976563-20-19.976563zm0 0" fill="#fcc151"/></svg>