<svg height="512pt" viewBox="0 -62 512 512" width="512pt" xmlns="http://www.w3.org/2000/svg"><path d="m38.492188 62.96875h435.015624v302.867188h-435.015624zm0 0" fill="#f1eff2"/><path d="m421.996094 62.96875h51.511718v302.867188h-51.511718zm0 0" fill="#e0dee1"/><path d="m412.273438 0h-79.78125c-8.523438 0-15.433594 6.910156-15.433594 15.433594v57.179687h110.652344v-57.179687c0-8.523438-6.910157-15.433594-15.4375-15.433594zm0 0" fill="#f1eff2"/><path d="m179.507812 0h-79.78125c-8.527343 0-15.4375 6.910156-15.4375 15.433594v57.179687h110.652344v-57.179687c0-8.523438-6.910156-15.433594-15.433594-15.433594zm0 0" fill="#f1eff2"/><path d="m412.273438 0h-51.507813c8.523437 0 15.433594 6.910156 15.433594 15.433594v57.183594h51.511719v-57.183594c0-8.523438-6.910157-15.433594-15.4375-15.433594zm0 0" fill="#e0dee1"/><path d="m179.507812 0h-51.511718c8.527344 0 15.4375 6.910156 15.4375 15.433594v57.183594h51.507812v-57.183594c0-8.523438-6.910156-15.433594-15.433594-15.433594zm0 0" fill="#e0dee1"/><path d="m490 48.320312h-468c-12.148438 0-22 9.851563-22 22 0 12.152344 9.851562 22 22 22h468c12.148438 0 22-9.847656 22-22 0-12.148437-9.851562-22-22-22zm0 0" fill="#ffd779"/><path d="m490 343.835938h-468c-12.148438 0-22 9.847656-22 22 0 12.148437 9.851562 22 22 22h468c12.148438 0 22-9.851563 22-22 0-12.152344-9.851562-22-22-22zm0 0" fill="#ffd779"/><path d="m489.976562 48.320312h-51.511718c12.164062 0 22.027344 9.851563 22.027344 22 0 12.152344-9.863282 22-22.027344 22h51.511718c12.164063 0 22.023438-9.847656 22.023438-22 0-12.148437-9.859375-22-22.023438-22zm0 0" fill="#fcc151"/><path d="m489.976562 343.835938h-51.511718c12.164062 0 22.027344 9.847656 22.027344 22 0 12.148437-9.863282 22-22.027344 22h51.511718c12.164063 0 22.023438-9.851563 22.023438-22 0-12.152344-9.859375-22-22.023438-22zm0 0" fill="#fcc151"/><path d="m190.203125 233.769531h-86.683594c-6.589843 0-11.984375-5.394531-11.984375-11.984375s5.394532-11.984375 11.984375-11.984375h86.683594c6.589844 0 11.984375 5.394531 11.984375 11.984375s-5.394531 11.984375-11.984375 11.984375zm0 0" fill="#e73332"/><path d="m408.46875 209.800781h-31.332031v-31.292969c0-6.59375-5.398438-11.984374-11.996094-11.984374-6.601563 0-12 5.390624-12 11.984374v31.292969h-31.328125c-6.597656 0-12 5.390625-12 11.984375 0 6.589844 5.398438 11.984375 12 11.984375h31.328125v31.292969c0 6.589844 5.398437 11.984375 12 11.984375 6.597656 0 11.996094-5.394531 11.996094-11.984375v-31.292969h31.332031c6.597656 0 11.996094-5.394531 11.996094-11.984375 0-6.59375-5.398438-11.984375-11.996094-11.984375zm0 0" fill="#8fccba"/></svg>