<svg height="512pt" viewBox="-186 0 512 512" width="512pt" xmlns="http://www.w3.org/2000/svg"><path d="m87.265625 0h-32.679687c-29.648438 0-54.585938 101.511719-54.585938 131.246094v52.113281h139.851562v-52.113281c0-29.734375-22.941406-131.246094-52.585937-131.246094zm-17.339844 25.398438c6.613281 0 11.976563 5.378906 11.976563 12.011718 0 6.636719-5.363282 12.011719-11.976563 12.011719s-11.976562-5.375-11.976562-12.011719c0-6.632812 5.363281-12.011718 11.976562-12.011718zm0 44.007812c6.933594 0 12.554688 5.636719 12.554688 12.59375 0 6.953125-5.621094 12.589844-12.554688 12.589844-6.933593 0-12.554687-5.636719-12.554687-12.589844 0-6.957031 5.621094-12.59375 12.554687-12.59375zm0 79.757812c-9.261719 0-16.765625-7.527343-16.765625-16.816406 0-9.289062 7.503906-16.820312 16.765625-16.820312s16.765625 7.53125 16.765625 16.820312c0 9.289063-7.503906 16.816406-16.765625 16.816406zm0 0" fill="#c6c2c6"/><path d="m87.265625 0h-19.882813c29.648438 0 52.585938 101.511719 52.585938 131.246094v52.113281h19.882812v-52.113281c0-29.734375-22.941406-131.246094-52.585937-131.246094zm0 0" fill="#a298a1"/><path d="m69.925781 149.164062c-9.261719 0-16.765625-7.527343-16.765625-16.816406 0-9.289062 7.503906-16.820312 16.765625-16.820312v-20.9375c-6.933593 0-12.554687-5.636719-12.554687-12.59375 0-6.953125 5.621094-12.589844 12.554687-12.589844v-19.980469c-6.613281 0-11.976562-5.378906-11.976562-12.015625 0-6.632812 5.363281-12.011718 11.976562-12.011718v-25.398438h-15.339843c-29.648438 0-54.585938 101.511719-54.585938 131.246094v52.113281h69.925781zm0 0" fill="#f1eff2"/><path d="m69.925781 149.164062c-9.261719 0-16.765625-7.527343-16.765625-16.816406 0-9.289062 7.503906-16.820312 16.765625-16.820312v-20.9375c-6.933593 0-12.554687-5.636719-12.554687-12.59375 0-6.953125 5.621094-12.589844 12.554687-12.589844v-19.980469c-6.613281 0-11.976562-5.378906-11.976562-12.015625 0-6.632812 5.363281-12.011718 11.976562-12.011718v-25.398438h-15.339843c-29.648438 0-54.585938 101.511719-54.585938 131.246094v52.113281h69.925781zm0 0" fill="#f1eff2"/><path d="m56.941406 226.441406h-56.941406v264.546875c0 11.558594 9.453125 21.011719 21.011719 21.011719h16.453125c10.753906 0 19.476562-8.722656 19.476562-19.476562zm0 0" fill="#8fccba"/><path d="m139.851562 226.441406h-56.941406v264.546875c0 11.558594 9.457032 21.011719 21.011719 21.011719h17.015625c10.445312 0 18.914062-8.46875 18.914062-18.914062zm0 0" fill="#8fccba"/><path d="m29.40625 226.441406v264.519532c0 9.171874-5.78125 17.585937-14.039062 20.199218 1.773437.539063 3.628906.839844 5.515624.839844h16.609376c11.035156 0 19.449218-9.972656 19.449218-21.039062v-264.519532zm0 0" fill="#64bda1"/><path d="m112.320312 226.441406v264.519532c0 9.171874-5.394531 17.585937-13.523437 20.199218 1.804687.539063 3.671875.839844 5.5625.839844h16.605469c11.035156 0 18.886718-9.972656 18.886718-21.039062v-264.519532zm0 0" fill="#64bda1"/><path d="m0 226.441406h56.941406v65.128906h-56.941406zm0 0" fill="#c6c2c6"/><path d="m82.910156 226.441406h56.941406v65.128906h-56.941406zm0 0" fill="#f1eff2"/><path d="m27.847656 226.441406h29.09375v65.128906h-29.09375zm0 0" fill="#a298a1"/><path d="m100.089844 226.441406h39.761718v65.128906h-39.761718zm0 0" fill="#e0dee1"/><path d="m139.851562 172.335938h-139.851562v60.8125c0 7.335937 6 13.332031 13.332031 13.332031h126.519531zm0 0" fill="#f1eff2"/><path d="m100.089844 172.335938h39.761718v74.144531h-39.761718zm0 0" fill="#e0dee1"/><path d="m83.378906 213.757812c0-7.453124-6.023437-13.496093-13.453125-13.496093-7.429687 0-13.453125 6.042969-13.453125 13.496093 0 7.453126 6.023438 13.492188 13.453125 13.492188 7.429688 0 13.453125-6.039062 13.453125-13.492188zm0 0" fill="#635663"/></svg>