<svg height="512pt" viewBox="0 -91 512 512" width="512pt" xmlns="http://www.w3.org/2000/svg"><path d="m462.035156 330.078125h-412.070312c-27.59375 0-49.964844-22.367187-49.964844-49.964844v-230.148437c0-27.59375 22.371094-49.964844 49.964844-49.964844h412.070312c27.59375 0 49.964844 22.371094 49.964844 49.964844v230.148437c0 27.597657-22.371094 49.964844-49.964844 49.964844zm0 0" fill="#f1eff2"/><path d="m113.042969 54.15625h91.914062c9.753907 0 17.660157 7.90625 17.660157 17.660156v187.039063c0 9.753906-7.90625 17.660156-17.660157 17.660156h-91.914062c-9.753907 0-17.660157-7.90625-17.660157-17.660156v-187.039063c0-9.753906 7.90625-17.660156 17.660157-17.660156zm0 0" fill="#8a7e88"/><path d="m222.617188 165.339844v-93.535156c0-9.746094-7.910157-17.648438-17.671876-17.648438h-91.890624c-9.761719 0-17.671876 7.902344-17.671876 17.648438v93.535156zm0 0" fill="#c6c2c6"/><path d="m307.042969 54.15625h91.914062c9.753907 0 17.660157 7.90625 17.660157 17.660156v187.039063c0 9.753906-7.90625 17.660156-17.660157 17.660156h-91.914062c-9.753907 0-17.660157-7.90625-17.660157-17.660156v-187.039063c0-9.753906 7.90625-17.660156 17.660157-17.660156zm0 0" fill="#8a7e88"/><path d="m416.617188 165.339844v-93.535156c0-9.746094-7.910157-17.648438-17.671876-17.648438h-91.890624c-9.761719 0-17.671876 7.902344-17.671876 17.648438v93.535156zm0 0" fill="#c6c2c6"/><path d="m462 0h-51.507812c27.613281 0 50 22.355469 50 49.929688v230.21875c0 27.574218-22.386719 49.929687-50 49.929687h51.507812c27.613281 0 50-22.355469 50-49.929687v-230.21875c0-27.574219-22.386719-49.929688-50-49.929688zm0 0" fill="#e0dee1"/><path d="m204.945312 54.15625h-51.507812c9.757812 0 17.671875 7.902344 17.671875 17.648438v187.0625c0 9.746093-7.914063 17.648437-17.671875 17.648437h51.507812c9.761719 0 17.671876-7.902344 17.671876-17.648437v-187.0625c0-9.746094-7.910157-17.648438-17.671876-17.648438zm0 0" fill="#635663"/><path d="m398.945312 54.15625h-51.507812c9.757812 0 17.671875 7.902344 17.671875 17.648438v187.0625c0 9.746093-7.914063 17.648437-17.671875 17.648437h51.507812c9.761719 0 17.671876-7.902344 17.671876-17.648437v-187.0625c0-9.746094-7.910157-17.648438-17.671876-17.648438zm0 0" fill="#635663"/><path d="m204.945312 54.15625h-51.507812c9.757812 0 17.671875 7.902344 17.671875 17.648438v93.535156h51.507813v-93.535156c0-9.746094-7.910157-17.648438-17.671876-17.648438zm0 0" fill="#a298a1"/><path d="m398.945312 54.15625h-51.507812c9.757812 0 17.671875 7.902344 17.671875 17.648438v93.535156h51.507813v-93.535156c0-9.746094-7.910157-17.648438-17.671876-17.648438zm0 0" fill="#a298a1"/><g fill="#ffd779"><path d="m159 137.210938c-15.164062 0-27.5-12.320313-27.5-27.460938 0-15.144531 12.335938-27.464844 27.5-27.464844s27.5 12.320313 27.5 27.464844c0 15.140625-12.335938 27.460938-27.5 27.460938zm0-43.941407c-9.097656 0-16.5 7.394531-16.5 16.476563 0 9.085937 7.402344 16.480468 16.5 16.480468s16.5-7.394531 16.5-16.480468c0-9.082032-7.402344-16.476563-16.5-16.476563zm0 0"/><path d="m351.90625 137.210938c-15.164062 0-27.5-12.320313-27.5-27.460938 0-15.144531 12.335938-27.464844 27.5-27.464844s27.5 12.320313 27.5 27.464844c0 15.140625-12.335938 27.460938-27.5 27.460938zm0-43.941407c-9.097656 0-16.5 7.394531-16.5 16.476563 0 9.085937 7.402344 16.480468 16.5 16.480468s16.5-7.394531 16.5-16.480468c0-9.082032-7.402344-16.476563-16.5-16.476563zm0 0"/><path d="m159.003906 248.484375h-.007812c-3.035156 0-5.496094-2.460937-5.496094-5.496094v-43.933593c0-3.035157 2.460938-5.496094 5.496094-5.496094h.007812c3.035156 0 5.496094 2.460937 5.496094 5.496094v43.933593c0 3.035157-2.460938 5.496094-5.496094 5.496094zm0 0"/><path d="m351.910156 248.484375h-.007812c-3.035156 0-5.496094-2.460937-5.496094-5.496094v-43.933593c0-3.035157 2.460938-5.496094 5.496094-5.496094h.007812c3.035156 0 5.496094 2.460937 5.496094 5.496094v43.933593c0 3.035157-2.460938 5.496094-5.496094 5.496094zm0 0"/></g></svg>