<svg height="512pt" viewBox="0 0 512.00013 512" width="512pt" xmlns="http://www.w3.org/2000/svg"><path d="m497.339844 15.175781c-20.414063-20.429687-53.734375-20.203125-74.421875.5l-273.855469 274.046875c-39.140625-12.363281-83.933594-2.792968-115.285156 28.578125-33.523438 33.546875-42.125 82.480469-25.660156 123.429688 1.699218 4.230469 7.144531 5.382812 10.367187 2.15625l68.367187-68.414063c13.71875-13.726562 36.011719-13.875 49.546876-.335937 13.53125 13.542969 13.382812 35.855469-.335938 49.582031l-68.367188 68.414062c-3.222656 3.226563-2.070312 8.671876 2.160157 10.375 40.917969 16.476563 89.816406 7.871094 123.339843-25.679687 31.351563-31.371094 40.910157-76.195313 28.558594-115.363281l275.101563-275.296875c20-20.015625 20.21875-52.246094.484375-71.992188zm0 0" fill="#c6c2c6"/><path d="m497.339844 15.175781c-17.386719-17.398437-44.132813-19.804687-64.46875-7.34375 3.292968 2.050781 6.40625 4.484375 9.261718 7.34375 19.730469 19.746094 19.515626 51.976563-.488281 71.992188l-275.101562 275.296875c12.351562 39.167968 2.792969 83.992187-28.558594 115.363281-15.375 15.386719-33.988281 25.511719-53.582031 30.390625 37.527344 9.414062 79.164062-.738281 108.792968-30.390625 31.347657-31.371094 40.910157-76.195313 28.558594-115.363281l275.101563-275.296875c20-20.015625 20.21875-52.246094.484375-71.992188zm0 0" fill="#a298a1"/><path d="m441.980469 39.699219c8.179687-8.183594 21.441406-8.183594 29.621093 0 8.179688 8.1875 8.179688 21.457031 0 29.644531-8.179687 8.183594-21.441406 8.183594-29.621093 0-8.179688-8.1875-8.179688-21.457031 0-29.644531zm0 0" fill="#635663"/></svg>