<svg height="512pt" viewBox="-86 0 512 512.00086" width="512pt" xmlns="http://www.w3.org/2000/svg"><path d="m24.699219 511.542969c-16.289063-2.910157-27.136719-18.492188-24.226563-34.804688l20.789063-116.59375c9.285156-52.074219 31.519531-101.527343 64.300781-143.011719l58.097656-73.527343 46.207032 36.609375-58.097657 73.523437c-26.765625 33.875-44.921875 74.253907-52.503906 116.777344l-20.964844 117.578125c-2.8125 15.765625-17.855469 26.265625-33.601562 23.449219zm0 0" fill="#8fccba"/><path d="m143.660156 143.601562-11.863281 15.015626 27.253906 21.59375-58.097656 73.527343c-26.765625 33.875-44.921875 74.253907-52.503906 116.777344l-20.964844 117.578125c-1.5 8.398438-6.472656 15.304688-13.171875 19.496094 3.101562 1.902344 6.59375 3.277344 10.386719 3.953125 15.746093 2.816406 30.789062-7.683594 33.601562-23.449219l20.964844-117.578125c7.582031-42.523437 25.738281-82.902344 52.503906-116.777344l58.097657-73.527343zm0 0" fill="#64bda1"/><path d="m93.675781 319.878906c9.40625-23.726562 22.238281-46.074218 38.09375-66.140625l58.097657-73.527343-46.207032-36.609376-58.097656 73.527344c-18.6875 23.652344-33.945312 49.898438-45.332031 77.742188zm0 0" fill="#f1eff2"/><path d="m143.660156 143.601562-11.480468 14.527344 27.875 22.082032-58.097657 73.527343c-13.238281 16.75-24.359375 35.097657-33.144531 54.503907l24.863281 11.636718c9.40625-23.726562 22.238281-46.074218 38.09375-66.140625l58.097657-73.527343zm0 0" fill="#e0dee1"/><path d="m315.453125 511.542969c16.289063-2.910157 27.136719-18.492188 24.226563-34.804688l-20.789063-116.59375c-9.285156-52.074219-31.519531-101.527343-64.300781-143.011719l-58.097656-73.527343-46.207032 36.609375 58.097656 73.523437c26.765626 33.875 44.921876 74.253907 52.503907 116.777344l20.964843 117.578125c2.8125 15.765625 17.855469 26.265625 33.601563 23.449219zm0 0" fill="#8fccba"/><path d="m339.679688 476.738281-20.789063-116.59375c-9.285156-52.074219-31.519531-101.527343-64.300781-143.011719l-58.097656-73.527343-16.71875 13.242187 47.632812 60.285156c32.78125 41.484376 55.015625 90.9375 64.300781 143.011719l20.789063 116.59375c2.359375 13.238281-4.34375 26-15.660156 31.890625 5.511718 2.921875 12 4.097656 18.617187 2.914063 16.289063-2.910157 27.136719-18.496094 24.226563-34.804688zm0 0" fill="#64bda1"/><path d="m246.476562 319.878906c-9.40625-23.726562-22.238281-46.074218-38.09375-66.140625l-58.097656-73.527343 46.207032-36.609376 58.097656 73.527344c18.6875 23.652344 33.945312 49.898438 45.332031 77.742188zm0 0" fill="#c6c2c6"/><path d="m177.140625 161.910156 58.097656 73.523438c16.953125 21.457031 31.070313 45.050781 42.046875 70.027344l22.636719-10.589844c-11.386719-27.84375-26.644531-54.089844-45.332031-77.742188l-58.097656-73.527344-46.207032 36.609376 1.445313 1.828124zm0 0" fill="#a298a1"/><path d="m221.882812 4.460938c1.824219-4.027344 6.730469-5.691407 10.546876-3.46875 35.058593 20.421874 49.664062 64.527343 32.546874 102.3125-18.253906 40.300781-65.679687 58.152343-105.925781 39.875zm0 0" fill="#f1eff2"/><path d="m232.429688.992188c-3.816407-2.222657-8.722657-.558594-10.546876 3.46875l-5.75 12.695312c20.210938 22.933594 26.328126 56.484375 12.894532 86.148438-10.714844 23.652343-31.480469 39.558593-54.941406 44.980468 36.382812 8.457032 74.871093-9.613281 90.890624-44.980468 17.117188-37.785157 2.511719-81.890626-32.546874-102.3125zm0 0" fill="#e0dee1"/><path d="m118.269531 4.460938c-1.824219-4.027344-6.730469-5.691407-10.546875-3.46875-35.058594 20.421874-49.664062 64.527343-32.546875 102.3125 18.253907 40.300781 65.679688 58.152343 105.925781 39.875zm0 0" fill="#c6c2c6"/><path d="m118.269531 4.460938c-1.824219-4.023438-6.730469-5.691407-10.546875-3.46875-7.277344 4.238281-13.65625 9.511718-19.070312 15.519531l57.375 126.667969c-5.070313 2.304687-10.253906 4.027343-15.476563 5.210937 16.390625 3.691406 34.074219 2.273437 50.550781-5.210937zm0 0" fill="#a298a1"/><path d="m232.660156 161.910156c0-34.609375-28.019531-62.667968-62.585937-62.667968-34.5625 0-62.582031 28.058593-62.582031 62.667968s28.019531 62.664063 62.582031 62.664063c34.566406 0 62.585937-28.054688 62.585937-62.664063zm0 0" fill="#c6c2c6"/><path d="m170.074219 99.242188c-6.554688 0-12.875 1.015624-18.8125 2.886718 25.367187 8 43.765625 31.734375 43.765625 59.78125 0 28.042969-18.398438 51.777344-43.765625 59.777344 5.9375 1.871094 12.257812 2.886719 18.8125 2.886719 34.566406 0 62.585937-28.054688 62.585937-62.664063 0-34.613281-28.019531-62.667968-62.585937-62.667968zm0 0" fill="#a298a1"/><path d="m191.324219 161.910156c0-11.753906-9.515625-21.277344-21.25-21.277344s-21.246094 9.523438-21.246094 21.277344c0 11.75 9.511719 21.273438 21.246094 21.273438s21.25-9.523438 21.25-21.273438zm0 0" fill="#635663"/></svg>