<svg height="512pt" viewBox="-37 0 512 512.001" width="512pt" xmlns="http://www.w3.org/2000/svg"><path d="m409.164062 255.164062v164.332032c0 42.734375-34.75 77.503906-77.460937 77.503906-42.714844 0-77.464844-34.765625-77.464844-77.503906v-47.683594h-14.992187v47.683594c0 51.007812 41.476562 92.503906 92.457031 92.503906 50.976563 0 92.453125-41.496094 92.453125-92.503906v-164.332032zm0 0" fill="#8a7e88"/><path d="m416.285156 166.851562c-5.796875 0-10.496094-4.699218-10.496094-10.496093v-46.023438c0-5.796875 4.699219-10.496093 10.496094-10.496093s10.496094 4.699218 10.496094 10.496093v46.023438c0 5.796875-4.699219 10.496093-10.496094 10.496093zm0 0" fill="#c6c2c6"/><path d="m419.570312 279.953125h-6.570312c-9.9375 0-17.992188-8.054687-17.992188-17.988281v-100.34375c0-9.933594 8.054688-17.988282 17.992188-17.988282h6.570312c9.9375 0 17.988282 8.054688 17.988282 17.988282v100.34375c0 9.933594-8.050782 17.988281-17.988282 17.988281zm0 0" fill="#8fccba"/><path d="m340.535156 255.164062v164.332032c0 42.734375-34.75 77.503906-77.464844 77.503906-42.710937 0-77.460937-34.765625-77.460937-77.503906v-47.683594h-14.992187v47.683594c0 51.007812 41.472656 92.503906 92.453124 92.503906 50.980469 0 92.457032-41.496094 92.457032-92.503906v-164.332032zm0 0" fill="#f1eff2"/><path d="m347.636719 166.851562c-5.796875 0-10.496094-4.699218-10.496094-10.496093v-46.023438c0-5.796875 4.699219-10.496093 10.496094-10.496093s10.5 4.699218 10.5 10.496093v46.023438c0 5.796875-4.699219 10.496093-10.5 10.496093zm0 0" fill="#c6c2c6"/><path d="m350.925781 279.953125h-6.574219c-9.933593 0-17.988281-8.054687-17.988281-17.988281v-100.34375c0-9.933594 8.054688-17.988282 17.988281-17.988282h6.574219c9.933594 0 17.988281 8.054688 17.988281 17.988282v100.34375c0 9.933594-8.054687 17.988281-17.988281 17.988281zm0 0" fill="#e73332"/><path d="m419.578125 143.636719h-6.582031c-2.621094 0-5.105469.570312-7.347656 1.578125 6.265624 2.8125 10.636718 9.097656 10.636718 16.414062v100.332032c0 7.3125-4.371094 13.597656-10.636718 16.410156 2.246093 1.007812 4.726562 1.582031 7.347656 1.582031h6.582031c9.929687 0 17.980469-8.058594 17.980469-17.992187v-100.332032c0-9.9375-8.050782-17.992187-17.980469-17.992187zm0 0" fill="#64bda1"/><path d="m350.929688 143.636719h-6.582032c-2.621094 0-5.101562.570312-7.347656 1.578125 6.265625 2.8125 10.640625 9.097656 10.640625 16.414062v100.332032c0 7.3125-4.375 13.597656-10.640625 16.410156 2.246094 1.007812 4.726562 1.582031 7.347656 1.582031h6.582032c9.933593 0 17.984374-8.058594 17.984374-17.992187v-100.332032c0-9.9375-8.050781-17.992187-17.984374-17.992187zm0 0" fill="#971e1e"/><path d="m264.15625 420.722656h-231.800781c-17.867188 0-32.355469-14.488281-32.355469-32.355468v-356.011719c0-17.871094 14.488281-32.355469 32.355469-32.355469h231.800781c17.867188 0 32.351562 14.484375 32.351562 32.355469v356.011719c0 17.867187-14.484374 32.355468-32.351562 32.355468zm0 0" fill="#ffd779"/><path d="m236.339844 158.933594h-176.167969c-8.933594 0-16.179687-7.242188-16.179687-16.175782v-81.011718c0-8.933594 7.246093-16.175782 16.179687-16.175782h176.167969c8.933594 0 16.175781 7.242188 16.175781 16.175782v81.011718c0 8.933594-7.242187 16.175782-16.175781 16.175782zm0 0" fill="#f1eff2"/><path d="m205.691406 323.539062c0-31.738281-25.714844-57.46875-57.4375-57.46875-31.71875 0-57.433594 25.730469-57.433594 57.46875 0 31.738282 25.714844 57.46875 57.433594 57.46875 31.722656 0 57.4375-25.730468 57.4375-57.46875zm0 0" fill="#c6c2c6"/><path d="m148.253906 266.070312c-6.324218 0-12.40625 1.042969-18.09375 2.933594 22.839844 7.59375 39.324219 29.132813 39.324219 54.535156 0 25.402344-16.484375 46.941407-39.324219 54.53125 5.6875 1.894532 11.769532 2.933594 18.09375 2.933594 31.722656 0 57.4375-25.730468 57.4375-57.46875 0-31.734375-25.714844-57.464844-57.4375-57.464844zm0 0" fill="#a298a1"/><path d="m173.398438 230.480469h-50.289063c-11.105469 0-20.113281-9.007813-20.113281-20.113281v-.011719c0-11.109375 9.007812-20.113281 20.113281-20.113281h50.289063c11.109374 0 20.113281 9.003906 20.113281 20.113281v.011719c0 11.105468-9.003907 20.113281-20.113281 20.113281zm0 0" fill="#8a7e88"/><path d="m173.40625 190.242188h-27.375c11.105469 0 20.105469 9.007812 20.105469 20.117187 0 11.113281-9 20.117187-20.105469 20.117187h27.375c11.101562 0 20.105469-9.003906 20.105469-20.117187 0-11.109375-9.003907-20.117187-20.105469-20.117187zm0 0" fill="#635663"/><path d="m264.164062 0h-50.765624c17.863281 0 32.347656 14.488281 32.347656 32.363281v355.996094c0 17.871094-14.484375 32.363281-32.347656 32.363281h50.765624c17.863282 0 32.34375-14.492187 32.34375-32.363281v-355.996094c0-17.875-14.480468-32.363281-32.34375-32.363281zm0 0" fill="#fcc151"/><path d="m236.34375 45.566406h-50.765625c8.933594 0 16.175781 7.246094 16.175781 16.183594v81.003906c0 8.9375-7.242187 16.179688-16.175781 16.179688h50.765625c8.933594 0 16.171875-7.242188 16.171875-16.179688v-81.003906c0-8.9375-7.238281-16.183594-16.171875-16.183594zm0 0" fill="#e0dee1"/><path d="m162.726562 349.015625c1.464844 1.464844 3.382813 2.199219 5.304688 2.199219 1.917969 0 3.839844-.734375 5.304688-2.199219 2.925781-2.929687 2.925781-7.675781 0-10.605469l-38.269532-38.269531c-2.929687-2.925781-7.679687-2.929687-10.609375 0-2.925781 2.929687-2.925781 7.675781 0 10.605469zm0 0" fill="#635663"/></svg>