<svg height="512pt" viewBox="-141 0 511 512" width="512pt" xmlns="http://www.w3.org/2000/svg"><path d="m162.3125 257.710938c-1.917969 0-3.839844-.734376-5.304688-2.195313l-47.515624-47.519531c-1.40625-1.40625-2.195313-3.3125-2.195313-5.304688v-92.070312c0-4.140625 3.355469-7.5 7.5-7.5 4.140625 0 7.5 3.359375 7.5 7.5v88.964844l45.320313 45.320312c2.925781 2.929688 2.925781 7.679688 0 10.605469-1.464844 1.464843-3.386719 2.199219-5.304688 2.199219zm0 0" fill="#7ec39d"/><path d="m221.589844 242.707031c-1.917969 0-3.835938-.730469-5.300782-2.195312l-47.519531-47.519531c-1.40625-1.40625-2.195312-3.3125-2.195312-5.300782v-92.070312c0-4.144532 3.359375-7.5 7.5-7.5 4.144531 0 7.5 3.355468 7.5 7.5v88.964844l45.320312 45.316406c2.929688 2.929687 2.929688 7.679687 0 10.609375-1.464843 1.460937-3.382812 2.195312-5.304687 2.195312zm0 0" fill="#479ac8"/><path d="m8.308594 231.703125c-1.917969 0-3.839844-.730469-5.304688-2.195313-2.9296872-2.929687-2.9296872-7.675781 0-10.605468l45.320313-45.320313v-88.964843c0-4.140626 3.355469-7.5 7.5-7.5 4.140625 0 7.5 3.359374 7.5 7.5v92.070312c0 1.988281-.789063 3.898438-2.195313 5.304688l-47.519531 47.515624c-1.460937 1.464844-3.382813 2.195313-5.300781 2.195313zm0 0" fill="#e73332"/><path d="m209.597656 161.203125-59.253906-52.046875c-3.078125-2.703125-7.496094-3.238281-11.128906-1.351562l-70.738282 36.753906c-2.59375 1.347656-5.644531 1.484375-8.347656.375l-50.457031-20.71875c-3.734375-1.535156-6.171875-5.175782-6.171875-9.21875v-114.996094h222.589844v153.714844c0 8.558594-10.066406 13.132812-16.492188 7.488281zm0 0" fill="#8a7e88"/><path d="m114.796875 408.878906c-4.144531 0-7.5-3.359375-7.5-7.5v-88.964844l-45.320313-45.320312c-2.929687-2.929688-2.929687-7.679688 0-10.605469 2.929688-2.929687 7.675782-2.929687 10.605469 0l47.519531 47.515625c1.402344 1.40625 2.195313 3.3125 2.195313 5.304688v92.070312c0 4.140625-3.359375 7.5-7.5 7.5zm0 0" fill="#7ec39d"/><path d="m55.515625 423.878906c-4.140625 0-7.5-3.355468-7.5-7.5v-88.964844l-45.320313-45.316406c-2.925781-2.929687-2.925781-7.679687 0-10.609375 2.929688-2.925781 7.679688-2.925781 10.609376 0l47.515624 47.519531c1.40625 1.40625 2.195313 3.3125 2.195313 5.304688v92.070312c0 4.140626-3.355469 7.496094-7.5 7.496094zm0 0" fill="#e73332"/><path d="m173.769531 434.882812c-4.144531 0-7.5-3.359374-7.5-7.5v-92.070312c0-1.988281.789063-3.898438 2.195313-5.304688l47.515625-47.515624c2.929687-2.929688 7.679687-2.929688 10.605469 0 2.929687 2.929687 2.929687 7.675781 0 10.605468l-45.316407 45.320313v88.964843c0 4.140626-3.359375 7.5-7.5 7.5zm0 0" fill="#479ac8"/><path d="m19.992188 350.796875 59.257812 52.046875c3.078125 2.703125 7.492188 3.238281 11.125 1.351562l70.742188-36.753906c2.589843-1.347656 5.644531-1.484375 8.34375-.375l50.457031 20.71875c3.734375 1.535156 6.171875 5.175782 6.171875 9.21875v114.996094h-222.589844v-153.714844c0-8.558594 10.070312-13.132812 16.492188-7.488281zm0 0" fill="#8a7e88"/><g fill="#635663"><path d="m174.578125 0v130.445312l35.019531 30.757813c6.425782 5.644531 16.492188 1.070313 16.492188-7.488281v-153.714844zm0 0"/><path d="m219.917969 387.789062-45.339844-18.621093v142.832031h51.511719v-114.996094c0-4.042968-2.4375-7.683594-6.171875-9.214844zm0 0"/></g></svg>