<svg height="512pt" viewBox="-64 0 512 512" width="512pt" xmlns="http://www.w3.org/2000/svg"><path d="m354.113281 512h-324.121093c-16.5625 0-29.992188-13.429688-29.992188-29.992188v-452.015624c0-16.5625 13.425781-29.992188 29.992188-29.992188h324.121093c16.566407 0 29.992188 13.429688 29.992188 29.992188v452.015624c0 16.5625-13.425781 29.992188-29.992188 29.992188zm0 0" fill="#8fccba"/><path d="m354.121094 0h-51.507813c16.558594 0 29.984375 13.429688 29.984375 30v452c0 16.570312-13.425781 30-29.984375 30h51.507813c16.5625 0 29.984375-13.429688 29.984375-30v-452c0-16.570312-13.421875-30-29.984375-30zm0 0" fill="#64bda1"/><path d="m132.332031 361.15625c-4.140625 0-7.5-3.355469-7.5-7.5v-78.3125c0-4.144531 3.359375-7.5 7.5-7.5 4.144531 0 7.5 3.355469 7.5 7.5v78.3125c0 4.144531-3.355469 7.5-7.5 7.5zm0 0" fill="#635663"/><path d="m157.320312 353.65625c0-13.804688-11.1875-25-24.988281-25s-24.984375 11.195312-24.984375 25c0 13.808594 11.183594 25 24.984375 25s24.988281-11.191406 24.988281-25zm0 0" fill="#ffd465"/><path d="m315.914062 455.480469c-4.144531 0-7.5-3.359375-7.5-7.5v-172.636719c0-4.144531 3.355469-7.5 7.5-7.5 4.144532 0 7.5 3.355469 7.5 7.5v172.636719c0 4.140625-3.355468 7.5-7.5 7.5zm0 0" fill="#635663"/><path d="m340.902344 447.980469c0-13.808594-11.1875-25-24.988282-25-13.800781 0-24.988281 11.191406-24.988281 25 0 13.808593 11.1875 25 24.988281 25 13.800782 0 24.988282-11.191407 24.988282-25zm0 0" fill="#ffd465"/><path d="m60.121094 455.480469c-4.144532 0-7.5-3.359375-7.5-7.5v-172.636719c0-4.144531 3.355468-7.5 7.5-7.5h255.792968c4.144532 0 7.5 3.355469 7.5 7.5 0 4.140625-3.355468 7.5-7.5 7.5h-248.292968v165.136719c0 4.140625-3.359375 7.5-7.5 7.5zm0 0" fill="#635663"/><path d="m85.105469 447.980469c0-13.808594-11.183594-25-24.984375-25-13.800782 0-24.988282 11.191406-24.988282 25 0 13.808593 11.1875 25 24.988282 25 13.800781 0 24.984375-11.191407 24.984375-25zm0 0" fill="#ffd465"/><path d="m192.054688 416.148438c-4.144532 0-7.5-3.359376-7.5-7.5v-293.808594c0-4.144532 3.355468-7.5 7.5-7.5 4.140624 0 7.5 3.355468 7.5 7.5v293.808594c0 4.140624-3.359376 7.5-7.5 7.5zm0 0" fill="#635663"/><path d="m217.039062 408.648438c0-13.808594-11.1875-25-24.984374-25-13.800782 0-24.988282 11.191406-24.988282 25 0 13.804687 11.1875 25 24.988282 25 13.796874 0 24.984374-11.195313 24.984374-25zm0 0" fill="#ffd465"/><path d="m292.003906 206.480469h-64.09375c-4.140625 0-7.5-3.359375-7.5-7.5v-84.140625c0-4.144532 3.359375-7.5 7.5-7.5 4.144532 0 7.5 3.355468 7.5 7.5v76.640625h56.59375c4.140625 0 7.5 3.359375 7.5 7.5 0 4.144531-3.359375 7.5-7.5 7.5zm0 0" fill="#635663"/><path d="m316.988281 198.980469c0-13.808594-11.1875-25-24.984375-25-13.800781 0-24.988281 11.191406-24.988281 25 0 13.808593 11.1875 25 24.988281 25 13.796875 0 24.984375-11.191407 24.984375-25zm0 0" fill="#ffd465"/><path d="m97.601562 218.15625c-4.144531 0-7.5-3.355469-7.5-7.5v-116.261719c0-4.144531 3.355469-7.5 7.5-7.5h46.476563c4.144531 0 7.5 3.355469 7.5 7.5 0 4.140625-3.355469 7.5-7.5 7.5h-38.976563v108.761719c0 4.144531-3.359374 7.5-7.5 7.5zm0 0" fill="#635663"/><path d="m122.589844 210.65625c0-13.804688-11.1875-25-24.988282-25-13.800781 0-24.988281 11.195312-24.988281 25 0 13.808594 11.1875 25 24.988281 25 13.800782 0 24.988282-11.191406 24.988282-25zm0 0" fill="#ffd465"/><path d="m237.832031 133.3125h-91.558593c-11.902344 0-21.550782-9.648438-21.550782-21.546875v-34.738281c0-11.902344 9.648438-21.550782 21.550782-21.550782h91.5625c11.898437 0 21.546874 9.648438 21.546874 21.550782v34.738281c0 11.898437-9.648437 21.546875-21.550781 21.546875zm0 0" fill="#f1eff2"/></svg>