<svg height="512pt" viewBox="-73 0 512 512" width="512pt" xmlns="http://www.w3.org/2000/svg"><path d="m333.03125 512h-300.453125c-17.992187 0-32.578125-14.585938-32.578125-32.578125v-446.84375c0-17.992187 14.585938-32.578125 32.578125-32.578125h300.453125c17.992188 0 32.578125 14.585938 32.578125 32.578125v446.84375c0 17.992187-14.585937 32.578125-32.578125 32.578125zm0 0" fill="#ffd779"/><path d="m333.050781 0h-51.511719c17.984376 0 32.5625 14.597656 32.5625 32.601562v446.796876c0 18.003906-14.578124 32.601562-32.5625 32.601562h51.511719c17.980469 0 32.558594-14.597656 32.558594-32.601562v-446.796876c0-18.003906-14.578125-32.601562-32.558594-32.601562zm0 0" fill="#fcc151"/><g fill="#635663"><path d="m133.835938 473.671875 13.132812-49.078125c.730469-2.722656 4.132812-3.632812 6.125-1.640625l35.882812 35.925781c1.988282 1.992188 1.078126 5.390625-1.640624 6.121094l-49.019532 13.148438c-2.71875.730468-5.207031-1.757813-4.480468-4.476563zm0 0"/><path d="m170.726562 448.332031c-1.976562 0-3.953124-.753906-5.460937-2.257812-3.019531-3.015625-3.023437-7.910157-.007813-10.929688l49.261719-49.324219h-77.113281c-3.125 0-5.941406-1.878906-7.136719-4.765624-1.199219-2.886719-.539062-6.207032 1.667969-8.417969l69.863281-69.949219c3.015625-3.023438 7.910157-3.023438 10.925781-.007812 3.019532 3.015624 3.023438 7.90625.007813 10.925781l-56.691406 56.761719h77.113281c3.125 0 5.941406 1.882812 7.136719 4.769531 1.199219 2.886719.539062 6.207031-1.667969 8.417969l-62.433594 62.511718c-1.507812 1.511719-3.488281 2.265625-5.464844 2.265625zm0 0"/><path d="m159.699219 197.097656h36.574219c15.933593 0 28.847656 12.914063 28.847656 28.84375v6.617188c0 3.363281-2.726563 6.089844-6.089844 6.089844h-82.089844c-3.363281 0-6.089844-2.726563-6.089844-6.089844v-6.617188c0-15.929687 12.914063-28.84375 28.847657-28.84375zm0 0"/><path d="m274.980469 131.429688c0-53.632813-43.425781-97.113282-96.996094-97.113282-53.566406 0-96.992187 43.480469-96.992187 97.113282 0 53.636718 43.425781 97.113281 96.992187 97.113281 53.570313 0 96.996094-43.476563 96.996094-97.113281zm0 0"/></g><path d="m151.457031 131.429688c0 11.378906-9.226562 20.605468-20.605469 20.605468-11.378906 0-20.601562-9.226562-20.601562-20.605468 0-11.378907 9.222656-20.605469 20.601562-20.605469 11.378907 0 20.605469 9.226562 20.605469 20.605469zm0 0" fill="#ffd465"/><path d="m245.722656 131.429688c0 11.378906-9.222656 20.605468-20.601562 20.605468s-20.605469-9.226562-20.605469-20.605468c0-11.378907 9.226563-20.605469 20.605469-20.605469s20.601562 9.226562 20.601562 20.605469zm0 0" fill="#ffd465"/><path d="m182.316406 163.347656 11.101563 19.257813c1.921875 3.328125-.480469 7.492187-4.328125 7.492187h-22.207032c-3.847656 0-6.25-4.164062-4.332031-7.492187l11.105469-19.257813c1.921875-3.335937 6.734375-3.335937 8.660156 0zm0 0" fill="#ffd465"/><path d="m215.769531 275.855469h-75.566406c-4.269531 0-7.726563-3.457031-7.726563-7.722657 0-4.269531 3.460938-7.726562 7.726563-7.726562h75.566406c4.269531 0 7.726563 3.457031 7.726563 7.726562 0 4.265626-3.457032 7.722657-7.726563 7.722657zm0 0" fill="#635663"/></svg>