<svg height="511pt" viewBox="-106 0 511 511.99964" width="511pt" xmlns="http://www.w3.org/2000/svg"><path d="m82.484375 370.539062h134.796875v108.285157h-134.796875zm0 0" fill="#f1eff2"/><path d="m82.484375 478.824219c0 18.324219 14.832031 33.175781 33.125 33.175781h68.546875c18.296875 0 33.125-14.851562 33.125-33.175781v-14.578125h-134.796875zm0 0" fill="#8a7e88"/><path d="m165.773438 370.539062h51.507812v108.285157h-51.507812zm0 0" fill="#e0dee1"/><path d="m165.773438 464.246094v14.578125c0 18.324219-14.828126 33.175781-33.125 33.175781h51.507812c18.296875 0 33.125-14.851562 33.125-33.175781v-14.578125zm0 0" fill="#635663"/><path d="m299.269531 158.664062c0-99.199218-85.714843-177.136718-182.773437-154.820312-55.957032 12.867188-100.03125 59.523438-112.289063 118.925781-11.433593 55.40625 4.417969 107.351563 36.003907 143.609375 10.273437 11.792969 16.039062 43.917969 16.042968 44.261719.414063 53.851563 41.738282 97.945313 92.4375 98.617187 52.257813.691407 94.824219-44.097656 94.824219-99.441406 0 0 4.539063-30.726562 13.890625-41.023437 25.917969-28.53125 41.863281-67.351563 41.863281-110.128907zm0 0" fill="#ffd779"/><path d="m123.980469 2.34375c70.300781 12.894531 123.777343 77.964844 123.777343 156.320312 0 42.777344-15.945312 81.597657-41.859374 110.132813-9.355469 10.296875-13.890626 41.019531-13.890626 41.019531 0 45.394532-28.636718 83.675782-67.769531 95.597656 7.792969 2.382813 15.988281 3.730469 24.453125 3.84375 52.257813.691407 94.824219-44.097656 94.824219-99.441406 0 0 4.539063-30.722656 13.890625-41.019531 25.914062-28.535156 41.859375-67.355469 41.859375-110.132813.003906-96.640624-81.347656-173.074218-175.285156-156.320312zm0 0" fill="#fcc151"/><path d="m149.882812 369.582031c-3.039062 0-5.777343-1.832031-6.933593-4.640625l-75.871094-184.15625c-1.578125-3.828125.246094-8.214844 4.078125-9.792968 3.828125-1.578126 8.210938.25 9.789062 4.078124l68.9375 167.324219 68.9375-167.324219c1.578126-3.828124 5.960938-5.652343 9.792969-4.074218 3.828125 1.578125 5.65625 5.960937 4.078125 9.789062l-75.871094 184.15625c-1.160156 2.808594-3.898437 4.640625-6.9375 4.640625zm0 0" fill="#635663"/><path d="m56.261719 311c.59375 53.6875 41.84375 97.589844 92.429687 98.257812 51.882813.683594 94.207032-43.460937 94.8125-98.257812zm0 0" fill="#f1eff2"/><path d="m191.992188 311c-.492188 44.890625-28.988282 82.625-67.800782 94.425781 7.808594 2.386719 16.023438 3.71875 24.5 3.828125 51.886719.6875 94.207032-43.457031 94.8125-98.253906zm0 0" fill="#e0dee1"/><path d="m214.753906 212.132812h-129.738281c-4.144531 0-7.5-3.359374-7.5-7.5 0-4.144531 3.355469-7.5 7.5-7.5h129.738281c4.140625 0 7.5 3.355469 7.5 7.5 0 4.140626-3.359375 7.5-7.5 7.5zm0 0" fill="#635663"/></svg>