<svg height="512pt" viewBox="0 -30 512.00052 512" width="512pt" xmlns="http://www.w3.org/2000/svg"><path d="m284.386719 16.382812 223.148437 386.121094c12.632813 21.863282-3.140625 49.203125-28.394531 49.203125h-446.296875c-25.253906 0-41.027344-27.339843-28.394531-49.203125l223.152343-386.121094c12.625-21.84375 44.15625-21.84375 56.785157 0zm0 0" fill="#ffd779"/><path d="m507.554688 402.539062-223.148438-386.117187c-11.816406-20.449219-40.222656-21.757813-54.167969-3.933594.957031 1.222657 1.847657 2.53125 2.660157 3.933594l223.148437 386.117187c12.628906 21.851563-3.160156 49.167969-28.414063 49.167969h51.511719c25.253907 0 41.039063-27.3125 28.410157-49.167969zm0 0" fill="#fcc151"/><path d="m338.445312 223.914062c-2.710937-4.820312-7.992187-7.625-13.523437-7.625h-116.527344c-.058593 0-.085937-.070312-.046875-.113281l86.171875-86.085937c5.859375-5.851563 5.859375-15.339844 0-21.191406-5.859375-5.851563-15.355469-5.851563-21.214843 0l-111.890626 111.78125c-4.710937 4.707031-5.796874 12.019531-2.460937 17.957031 2.710937 4.820312 7.992187 7.625 13.527344 7.625h116.523437c.058594 0 .085938.070312.046875.113281l-91.703125 91.609375-17.652344-17.632813c-3.1875-3.183593-8.628906-1.726562-9.796874 2.625l-21.035157 78.425782c-1.167969 4.347656 2.816407 8.332031 7.171875 7.164062l78.503906-21.011718c4.355469-1.167969 5.8125-6.605469 2.625-9.789063l-18.605468-18.585937 117.425781-117.308594c4.710937-4.707032 5.796875-12.019532 2.460937-17.957032zm0 0" fill="#635663"/></svg>