<svg height="512pt" viewBox="0 0 512 512" width="512pt" xmlns="http://www.w3.org/2000/svg"><path d="m462.023438 511.515625h-412.046876c-27.601562 0-49.976562-22.375-49.976562-49.976563v-411.5625c0-27.601562 22.375-49.976562 49.976562-49.976562h412.046876c27.601562 0 49.976562 22.375 49.976562 49.976562v411.5625c0 27.601563-22.375 49.976563-49.976562 49.976563zm0 0" fill="#ffd779"/><path d="m481 255.757812c0-124.144531-100.734375-224.785156-225-224.785156s-225 100.640625-225 224.785156c0 124.148438 100.734375 224.789063 225 224.789063s225-100.640625 225-224.789063zm0 0" fill="#f1eff2"/><path d="m462 0h-51.613281c27.613281 0 50 22.363281 50 49.953125v411.609375c0 27.589844-22.386719 49.953125-50 49.953125h51.613281c27.613281 0 50-22.363281 50-49.953125v-411.609375c0-27.589844-22.386719-49.953125-50-49.953125zm0 0" fill="#fcc151"/><path d="m256 30.972656c-8.742188 0-17.367188.5-25.847656 1.472656 112.125 12.773438 199.234375 107.871094 199.234375 223.3125 0 115.441407-87.109375 210.539063-199.238281 223.3125 8.484374.972657 17.109374 1.476563 25.851562 1.476563 124.261719 0 225-100.640625 225-224.789063 0-124.144531-100.734375-224.785156-225-224.785156zm0 0" fill="#e0dee1"/><g fill="#635663"><path d="m312.863281 384.160156h-113.730469c-8.28125 0-15 6.707032-15 14.984375 0 8.277344 6.71875 14.988281 15 14.988281h113.730469c8.285157 0 15-6.710937 15-14.988281 0-8.277343-6.714843-14.984375-15-14.984375zm0 0"/><path d="m352.5 324.21875h-193c-8.285156 0-15 6.707031-15 14.984375s6.714844 14.984375 15 14.984375h193c8.285156 0 15-6.707031 15-14.984375s-6.714844-14.984375-15-14.984375zm0 0"/><path d="m392.765625 264.65625h-121.765625v-152.285156c0-8.277344-6.714844-14.988282-15-14.988282s-15 6.710938-15 14.988282v152.285156h-121.765625c-8.285156 0-15 6.707031-15 14.984375s6.714844 14.988281 15 14.988281h273.53125c8.285156 0 15-6.710937 15-14.988281s-6.714844-14.984375-15-14.984375zm0 0"/></g></svg>