<svg height="512pt" viewBox="0 -68 512.00034 512" width="512pt" xmlns="http://www.w3.org/2000/svg"><path d="m459.265625 374.722656h-18.085937c-5.949219 0-10.773438-4.824218-10.773438-10.773437v-38.402344c0-5.953125 4.824219-10.777344 10.773438-10.777344h18.085937c5.949219 0 10.773437 4.824219 10.773437 10.777344v38.402344c0 5.949219-4.824218 10.773437-10.773437 10.773437zm0 0" fill="#8a7e88"/><path d="m289.539062 375.222656h-17.164062c-5.855469 0-10.601562-4.746094-10.601562-10.601562v-38.75c0-5.855469 4.746093-10.601563 10.601562-10.601563h17.164062c5.855469 0 10.601563 4.746094 10.601563 10.601563v38.75c0 5.855468-4.746094 10.601562-10.601563 10.601562zm0 0" fill="#8a7e88"/><path d="m459.261719 314.769531h-18.078125c-.292969 0-.582032.023438-.867188.046875 5.542969.441406 9.90625 5.070313 9.90625 10.726563v38.410156c0 5.652344-4.363281 10.28125-9.90625 10.726563.285156.023437.574219.042968.867188.042968h18.078125c5.953125 0 10.777343-4.820312 10.777343-10.769531v-38.410156c0-5.949219-4.824218-10.773438-10.777343-10.773438zm0 0" fill="#635663"/><path d="m289.535156 315.269531h-17.15625c-.453125 0-.894531.039063-1.328125.09375 5.226563.652344 9.273438 5.101563 9.273438 10.503907v38.757812c0 5.402344-4.046875 9.851562-9.273438 10.503906.433594.054688.875.09375 1.328125.09375h17.15625c5.859375 0 10.605469-4.746094 10.605469-10.597656v-38.757812c0-5.851563-4.746094-10.597657-10.605469-10.597657zm0 0" fill="#635663"/><path d="m470.222656 76.9375h-25.996094v-33.972656c0-9.367188-7.625-16.984375-16.996093-16.984375h-123.472657c-9.371093 0-16.996093 7.617187-16.996093 16.984375v33.972656h-25.992188v-33.972656c0-23.691406 19.285157-42.964844 42.988281-42.964844h123.472657c23.703125 0 42.992187 19.273438 42.992187 42.964844zm0 0" fill="#8a7e88"/><path d="m427.230469 0h-84.535157c17.667969 0 32.878907 10.714844 39.480469 25.980469h45.054688c9.371093 0 16.996093 7.617187 16.996093 16.984375v33.972656h25.996094v-33.972656c0-23.691406-19.289062-42.964844-42.992187-42.964844zm0 0" fill="#635663"/><path d="m307.105469 313.273438h-220.726563c-4.144531 0-7.5-3.355469-7.5-7.5 0-4.140626 3.355469-7.5 7.5-7.5h220.726563c4.144531 0 7.5 3.359374 7.5 7.5 0 4.144531-3.355469 7.5-7.5 7.5zm0 0" fill="#635663"/><path d="m432.042969 344.238281h-133.097657c-44.160156 0-79.957031-35.796875-79.957031-79.957031v-112.929688c0-55.199218 44.75-99.945312 99.949219-99.945312h93.113281c55.203125 0 99.949219 44.746094 99.949219 99.945312v112.929688c0 44.160156-35.796875 79.957031-79.957031 79.957031zm0 0" fill="#ffd779"/><path d="m412.023438 51.40625h-50.742188c55.214844 0 99.976562 44.734375 99.976562 99.917969v112.980469c0 44.148437-35.808593 79.933593-79.984374 79.933593h50.746093c44.171875 0 79.980469-35.785156 79.980469-79.933593v-112.980469c0-55.183594-44.761719-99.917969-99.976562-99.917969zm0 0" fill="#fcc151"/><path d="m448.855469 197.824219c0-45.324219-36.761719-82.0625-82.109375-82.0625-45.351563 0-82.113282 36.738281-82.113282 82.0625 0 45.320312 36.761719 82.0625 82.113282 82.0625 45.347656 0 82.109375-36.742188 82.109375-82.0625zm0 0" fill="#c6c2c6"/><path d="m366.746094 115.761719c-8.859375 0-17.382813 1.414062-25.375 4.007812 32.929687 10.6875 56.742187 41.582031 56.742187 78.054688 0 36.46875-23.8125 67.367187-56.742187 78.050781 7.992187 2.597656 16.515625 4.011719 25.375 4.011719 45.347656 0 82.109375-36.742188 82.109375-82.0625 0-45.324219-36.761719-82.0625-82.109375-82.0625zm0 0" fill="#a298a1"/><path d="m417.21875 197.824219c0-27.859375-22.597656-50.445313-50.472656-50.445313-27.878906 0-50.476563 22.585938-50.476563 50.445313s22.597657 50.445312 50.476563 50.445312c27.875 0 50.472656-22.585937 50.472656-50.445312zm0 0" fill="#f1eff2"/><path d="m366.746094 147.378906c-8.570313 0-16.632813 2.140625-23.703125 5.902344 15.929687 8.484375 26.773437 25.246094 26.773437 44.539062 0 19.300782-10.847656 36.058594-26.773437 44.539063 7.070312 3.765625 15.132812 5.90625 23.703125 5.90625 27.875 0 50.472656-22.582031 50.472656-50.445313 0-27.855468-22.597656-50.441406-50.472656-50.441406zm0 0" fill="#e0dee1"/><g fill="#635663"><path d="m374.183594 197.828125c0-4.140625-3.359375-7.496094-7.5-7.496094-4.144532 0-7.503906 3.355469-7.503906 7.496094s3.359374 7.496094 7.503906 7.496094c4.140625 0 7.5-3.355469 7.5-7.496094zm0 0"/><path d="m374.183594 217.453125c0-4.140625-3.359375-7.496094-7.5-7.496094-4.144532 0-7.503906 3.355469-7.503906 7.496094s3.359374 7.496094 7.503906 7.496094c4.140625 0 7.5-3.355469 7.5-7.496094zm0 0"/><path d="m374.183594 178.199219c0-4.140625-3.359375-7.496094-7.5-7.496094-4.144532 0-7.503906 3.355469-7.503906 7.496094s3.359374 7.496093 7.503906 7.496093c4.140625 0 7.5-3.355468 7.5-7.496093zm0 0"/><path d="m7.664062 331.5625c-4.050781 0-7.351562-3.261719-7.390624-7.316406-.039063-4.082032 3.238281-7.425782 7.320312-7.464844l36.25-.347656h.074219c4.050781 0 7.351562 3.261718 7.390625 7.320312.039062 4.082032-3.238282 7.421875-7.320313 7.460938l-36.25.347656c-.027343 0-.050781 0-.074219 0zm0 0"/><path d="m7.390625 295.46875c-4.050781 0-7.3515625-3.265625-7.390625-7.320312-.0390625-4.082032 3.238281-7.425782 7.320312-7.464844l36.253907-.347656h.070312c4.050781 0 7.351563 3.261718 7.390625 7.320312.039063 4.082031-3.238281 7.421875-7.320312 7.460938l-36.25.351562c-.027344 0-.050782 0-.074219 0zm0 0"/></g><path d="m104.359375 305.136719c.054687 4.890625-2.5625 9.421875-6.824219 11.824219l-40.28125 22.703124c-8.886718 5.011719-19.894531-1.335937-20.003906-11.53125l-.488281-44.527343c-.109375-10.195313 10.757812-16.777344 19.75-11.964844l40.769531 21.824219c4.3125 2.308594 7.027344 6.78125 7.078125 11.671875zm0 0" fill="#8a7e88"/></svg>