<svg height="512pt" viewBox="-156 0 512 512" width="512pt" xmlns="http://www.w3.org/2000/svg"><path d="m129.707031 512c-4.085937 0-7.394531-3.308594-7.394531-7.390625v-323.507813c0-4.085937 3.308594-7.394531 7.394531-7.394531 4.082031 0 7.390625 3.308594 7.390625 7.394531v323.507813c0 4.082031-3.308594 7.390625-7.390625 7.390625zm0 0" fill="#635663"/><path d="m70.121094 512c-4.085938 0-7.394532-3.308594-7.394532-7.390625v-323.507813c0-4.085937 3.308594-7.394531 7.394532-7.394531 4.082031 0 7.390625 3.308594 7.390625 7.394531v323.507813c0 4.082031-3.308594 7.390625-7.390625 7.390625zm0 0" fill="#635663"/><path d="m139.089844 218.601562h-77.855469c-16.601563 0-30.0625-13.460937-30.0625-30.066406v-170.484375h137.984375v170.484375c0 16.605469-13.460938 30.066406-30.066406 30.066406zm0 0" fill="#f1eff2"/><path d="m184.792969 31.085938h-169.257813c-8.582031 0-15.535156-6.953126-15.535156-15.535157v-.015625c0-8.582031 6.953125-15.535156 15.535156-15.535156h169.257813c8.578125 0 15.53125 6.953125 15.53125 15.535156v.015625c0 8.582031-6.953125 15.535157-15.53125 15.535157zm0 0" fill="#c6c2c6"/><path d="m118.414062 18.050781v170.46875c0 16.613281-13.453124 30.082031-30.050781 30.082031h50.742188c16.597656 0 30.050781-13.46875 30.050781-30.082031v-170.46875zm0 0" fill="#e0dee1"/><path d="m184.792969 31.085938h-169.257813c-8.582031 0-15.535156-6.953126-15.535156-15.535157v-.015625c0-8.582031 6.953125-15.535156 15.535156-15.535156h169.257813c8.578125 0 15.53125 6.953125 15.53125 15.535156v.015625c0 8.582031-6.953125 15.535157-15.53125 15.535157zm0 0" fill="#c6c2c6"/><path d="m184.800781 0h-50.742187c8.574218 0 15.523437 6.960938 15.523437 15.542969 0 8.585937-6.949219 15.542969-15.523437 15.542969h50.742187c8.574219 0 15.523438-6.957032 15.523438-15.542969 0-8.582031-6.949219-15.542969-15.523438-15.542969zm0 0" fill="#a298a1"/></svg>