<svg height="512pt" viewBox="0 -155 512 511" width="512pt" xmlns="http://www.w3.org/2000/svg"><path d="m462.03125 93.207031h-90.582031c-3.671875 0-6.820313 2.609375-7.5 6.21875l-9.984375 52.933594-27.464844-145.640625c-.679688-3.605469-3.828125-6.21875-7.5-6.21875h-.003906c-3.671875.003906-6.820313 2.617188-7.496094 6.230469l-27.199219 145.460937-27.433593-145.472656c-.679688-3.605469-3.832032-6.21875-7.5-6.21875-3.671876 0-6.820313 2.613281-7.5 6.21875l-27.464844 145.640625-27.464844-145.640625c-.679688-3.605469-3.832031-6.21875-7.5-6.21875-3.671875 0-6.820312 2.613281-7.5 6.21875l-16.3125 86.488281h-111.667969c-4.214843 0-7.632812 3.414063-7.632812 7.632813 0 4.214844 3.417969 7.628906 7.632812 7.628906h117.996094c3.671875 0 6.820313-2.609375 7.5-6.214844l9.984375-52.9375 27.464844 145.640625c.679687 3.605469 3.832031 6.21875 7.5 6.21875 3.667968 0 6.820312-2.613281 7.5-6.21875l27.464844-145.640625 27.46875 145.640625c.679687 3.605469 3.828124 6.21875 7.5 6.21875h.003906c3.671875-.003906 6.820312-2.621093 7.496094-6.230469l27.199218-145.460937 27.433594 145.472656c.679688 3.605469 3.832031 6.21875 7.5 6.21875 3.671875 0 6.820312-2.613281 7.5-6.21875l16.308594-86.488281h84.257812c4.214844 0 7.632813-3.414062 7.632813-7.628906 0-4.21875-3.421875-7.632813-7.636719-7.632813zm0 0" fill="#5b5b5b"/><path d="m512 100.835938c0-13.785157-11.191406-24.964844-25-24.964844s-25 11.179687-25 24.964844c0 13.789062 11.191406 24.964843 25 24.964843s25-11.175781 25-24.964843zm0 0" fill="#ffd779"/><path d="m487 75.871094c-3.765625 0-7.335938.835937-10.535156 2.324218 8.539062 3.972657 14.460937 12.613282 14.460937 22.640626 0 10.027343-5.921875 18.667968-14.460937 22.640624 3.199218 1.488282 6.769531 2.324219 10.535156 2.324219 13.808594 0 25-11.179687 25-24.964843 0-13.789063-11.191406-24.964844-25-24.964844zm0 0" fill="#fcc151"/><path d="m50 100.835938c0-13.785157-11.191406-24.964844-25-24.964844s-25 11.179687-25 24.964844c0 13.789062 11.191406 24.964843 25 24.964843s25-11.175781 25-24.964843zm0 0" fill="#ffd779"/><path d="m25 75.871094c-4.113281 0-7.992188 1-11.414062 2.757812 8.0625 4.140625 13.585937 12.527344 13.585937 22.207032 0 9.679687-5.519531 18.066406-13.585937 22.210937 3.421874 1.757813 7.300781 2.753906 11.414062 2.753906 13.808594 0 25-11.175781 25-24.964843 0-13.789063-11.191406-24.964844-25-24.964844zm0 0" fill="#fcc151"/></svg>