<svg height="512pt" viewBox="-123 0 512 512" width="512pt" xmlns="http://www.w3.org/2000/svg"><path d="m235.785156 380.664062h-34.210937v-334.507812c0-6.257812-5.082031-11.347656-11.332031-11.347656s-11.335938 5.09375-11.339844 11.351562l-.054688 212.15625c-.003906 25.148438-20.4375 45.609375-45.542968 45.609375-25.121094 0-45.550782-20.464843-45.550782-45.621093v-212.683594c0-6.257813-5.082031-11.351563-11.332031-11.351563-6.246094 0-11.328125 5.09375-11.328125 11.351563v334.507812h-34.214844v-334.507812c.003906-25.15625 20.433594-45.621094 45.546875-45.621094s45.542969 20.464844 45.542969 45.621094v212.683594c0 6.257812 5.082031 11.347656 11.332031 11.347656 6.253907 0 11.335938-5.085938 11.335938-11.34375l.054687-212.160156c.007813-25.152344 20.441406-45.613282 45.550782-45.613282 25.113281 0 45.546874 20.464844 45.546874 45.621094v334.507812zm0 0" fill="#c6c2c6"/><g fill="#a298a1"><path d="m59.882812 34.269531c-6.246093 0-11.328124 5.09375-11.328124 11.351563v334.507812h16.539062v-334.507812c0-2.988282 1.167969-5.703125 3.058594-7.734375-2.066406-2.21875-5.003906-3.617188-8.269532-3.617188zm0 0"/><path d="m105.429688 45.621094v212.683594c0 6.257812 5.082031 11.347656 11.328124 11.347656 3.265626 0 6.203126-1.394532 8.273438-3.613282-1.894531-2.027343-3.0625-4.742187-3.0625-7.734374v-212.683594c0-25.15625-20.429688-45.621094-45.542969-45.621094-2.824219 0-5.585937.273438-8.269531.769531 21.175781 3.90625 37.273438 22.527344 37.273438 44.851563zm0 0"/><path d="m190.242188.535156c-2.828126 0-5.585938.273438-8.269532.769532 21.175782 3.910156 37.273438 22.527343 37.273438 44.855468v334.503906h16.539062v-334.507812c0-25.152344-20.429687-45.621094-45.542968-45.621094zm0 0"/><path d="m173.703125 34.808594c-6.25 0-11.335937 5.09375-11.339844 11.351562l-.054687 212.15625c-.003906 22.320313-16.101563 40.933594-37.273438 44.839844 2.683594.496094 5.445313.769531 8.269532.769531 25.105468 0 45.539062-20.460937 45.542968-45.609375l.054688-212.15625c.003906-2.992187 1.171875-5.707031 3.070312-7.738281-2.070312-2.21875-5.007812-3.613281-8.269531-3.613281zm0 0"/></g><path d="m218.140625 512h-1.230469c-10.589844 0-19.171875-8.582031-19.171875-19.171875v-59.46875h39.574219v59.46875c0 10.589844-8.582031 19.171875-19.171875 19.171875zm0 0" fill="#635663"/><path d="m48.511719 512c-10.582031 0-19.15625-8.574219-19.15625-19.15625v-59.488281h38.308593v59.488281c0 10.582031-8.574218 19.15625-19.152343 19.15625zm0 0" fill="#635663"/><path d="m241.472656 447.734375h-216.28125c-5.515625 0-9.992187-4.472656-9.992187-9.992187v-57.078126h236.265625v57.078126c0 5.519531-4.472656 9.992187-9.992188 9.992187zm0 0" fill="#c6c2c6"/><path d="m199.957031 380.664062v57.070313c0 5.523437-4.46875 10-9.984375 10h51.511719c5.511719 0 9.980469-4.476563 9.980469-10v-57.070313zm0 0" fill="#a298a1"/><path d="m256.675781 406.578125h-246.683593c-5.519532 0-9.992188-4.472656-9.992188-9.988281v-37.761719c0-5.515625 4.472656-9.992187 9.992188-9.992187h246.683593c5.519531 0 9.992188 4.472656 9.992188 9.992187v37.761719c0 5.515625-4.472657 9.988281-9.992188 9.988281zm0 0" fill="#8a7e88"/><path d="m256.683594 348.835938h-51.507813c5.511719 0 9.984375 4.476562 9.984375 10v37.742187c0 5.523437-4.472656 10-9.984375 10h51.507813c5.515625 0 9.984375-4.476563 9.984375-10v-37.742187c0-5.523438-4.46875-10-9.984375-10zm0 0" fill="#635663"/></svg>