<svg height="512pt" viewBox="-166 0 512 512" width="512pt" xmlns="http://www.w3.org/2000/svg"><path d="m131.265625 470.328125c0-23.015625-18.574219-41.675781-41.492187-41.675781-22.914063 0-41.492188 18.660156-41.492188 41.675781s18.578125 41.671875 41.492188 41.671875c22.917968 0 41.492187-18.65625 41.492187-41.671875zm0 0" fill="#f1eff2"/><path d="m89.773438 428.652344c-7.3125 0-14.175782 1.90625-20.144532 5.242187 12.730469 7.117188 21.351563 20.761719 21.351563 36.433594s-8.617188 29.316406-21.351563 36.429687c5.96875 3.335938 12.832032 5.242188 20.144532 5.242188 22.917968 0 41.492187-18.65625 41.492187-41.671875s-18.574219-41.675781-41.492187-41.675781zm0 0" fill="#e0dee1"/><path d="m117.992188 470.328125h-56.433594c-24.542969 0-44.4375-9.15625-44.4375-33.804687v-90.199219c0-5.203125 4.203125-9.421875 9.382812-9.421875h126.539063c5.179687 0 9.382812 4.21875 9.382812 9.421875v90.199219c0 24.648437-19.894531 33.804687-44.433593 33.804687zm0 0" fill="#c6c2c6"/><path d="m29.9375 324.410156h-23.964844c-3.296875 0-5.972656-2.675781-5.972656-5.972656v-300.484375c0-9.914063 8.039062-17.953125 17.953125-17.953125 9.917969 0 17.957031 8.039062 17.957031 17.953125v300.484375c0 3.296875-2.675781 5.972656-5.972656 5.972656zm0 0" fill="#bee4f5"/><path d="m143.636719 324.410156h-107.726563v-270.546875c0-29.746093 24.113282-53.863281 53.863282-53.863281s53.863281 24.117188 53.863281 53.863281zm0 0" fill="#d9effc"/><path d="m89.773438 0c-9.8125 0-19.007813 2.644531-26.929688 7.242188 16.09375 9.335937 26.929688 26.773437 26.929688 46.757812v270.410156h53.863281v-270.410156c0-29.824219-24.113281-54-53.863281-54zm0 0" fill="#a7cede"/><path d="m101.753906 324.410156h-23.960937c-3.296875 0-5.972657-2.675781-5.972657-5.972656v-269.535156c0-9.917969 8.039063-17.957032 17.953126-17.957032 9.917968 0 17.957031 8.039063 17.957031 17.957032v269.535156c0 3.296875-2.675781 5.972656-5.976563 5.972656zm0 0" fill="#bee4f5"/><path d="m173.574219 324.410156h-23.960938c-3.300781 0-5.976562-2.675781-5.976562-5.972656v-300.484375c0-9.914063 8.039062-17.953125 17.957031-17.953125 9.914062 0 17.953125 8.039062 17.953125 17.953125v300.484375c0 3.296875-2.675781 5.972656-5.972656 5.972656zm0 0" fill="#bee4f5"/><path d="m153.046875 336.902344h-51.511719c5.179688 0 9.378906 4.21875 9.378906 9.421875v90.199219c0 24.648437-19.894531 33.804687-44.433593 33.804687h51.511719c24.539062 0 44.433593-9.15625 44.433593-33.804687v-90.199219c0-5.203125-4.199219-9.421875-9.378906-9.421875zm0 0" fill="#a298a1"/><path d="m14.996094 373.902344h149.558594c8.28125 0 14.992187-6.714844 14.992187-14.996094v-55.9375h-179.546875v55.9375c0 8.28125 6.714844 14.996094 14.996094 14.996094zm0 0" fill="#f1eff2"/><path d="m128.039062 302.96875v55.917969c0 8.292969-6.707031 15.015625-14.976562 15.015625h51.507812c8.273438 0 14.976563-6.722656 14.976563-15.015625v-55.917969zm0 0" fill="#e0dee1"/></svg>