<svg height="512pt" viewBox="-79 0 512 512" width="512pt" xmlns="http://www.w3.org/2000/svg"><path d="m169.703125 512h-65.359375c-24.953125 0-45.253906-20.3125-45.253906-45.277344l.15625-20.839844 14.773437-.207031.292969 21.046875c0 16.574219 13.472656 30.054688 30.03125 30.054688h65.359375c16.558594 0 30.027344-13.484375 30.027344-30.054688v-320.144531c0-24.964844 20.300781-45.273437 45.253906-45.273437h35.210937c24.949219 0 45.25 20.308593 45.25 45.273437v146.765625c0 4.207031-3.40625 7.613281-7.609374 7.613281-4.203126 0-7.613282-3.40625-7.613282-7.613281v-146.765625c0-16.570313-13.46875-30.050781-30.027344-30.050781h-35.210937c-16.558594 0-30.03125 13.480468-30.03125 30.050781v320.144531c0 24.964844-20.300781 45.277344-45.25 45.277344zm0 0" fill="#635663"/><path d="m109.09375 459.660156h-78.976562c-16.632813 0-30.117188-13.484375-30.117188-30.117187v-399.425781c0-16.632813 13.484375-30.117188 30.117188-30.117188h78.976562c16.632812 0 30.117188 13.484375 30.117188 30.117188v399.425781c0 16.632812-13.484376 30.117187-30.117188 30.117187zm0 0" fill="#f1eff2"/><path d="m109.101562 0h-49.855468c16.628906 0 30.109375 13.488281 30.109375 30.125v399.410156c0 16.636719-13.480469 30.125-30.109375 30.125h49.855468c16.628907 0 30.109376-13.488281 30.109376-30.125v-399.410156c0-16.636719-13.480469-30.125-30.109376-30.125zm0 0" fill="#e0dee1"/><path d="m101.714844 415.59375h-64.21875c-5.542969 0-10.039063-4.496094-10.039063-10.039062v-15.882813c0-5.542969 4.496094-10.039063 10.039063-10.039063h64.21875c5.542968 0 10.039062 4.496094 10.039062 10.039063v15.882813c-.003906 5.542968-4.496094 10.039062-10.039062 10.039062zm0 0" fill="#8fccba"/><path d="m101.714844 379.632812h-32.894532c5.542969 0 10.035157 4.496094 10.035157 10.042969v15.875c0 5.546875-4.492188 10.042969-10.035157 10.042969h32.894532c5.542968 0 10.035156-4.496094 10.035156-10.042969v-15.875c0-5.546875-4.492188-10.042969-10.035156-10.042969zm0 0" fill="#64bda1"/><path d="m110.269531 105.390625c0-22.472656-18.207031-40.691406-40.664062-40.691406-22.460938 0-40.667969 18.21875-40.667969 40.691406s18.207031 40.691406 40.667969 40.691406c22.457031 0 40.664062-18.21875 40.664062-40.691406zm0 0" fill="#c6c2c6"/><path d="m77.132812 105.390625c0-4.160156-3.371093-7.53125-7.527343-7.53125s-7.527344 3.371094-7.527344 7.53125 3.371094 7.53125 7.527344 7.53125 7.527343-3.371094 7.527343-7.53125zm0 0" fill="#635663"/><path d="m77.132812 125.109375c0-4.160156-3.371093-7.53125-7.527343-7.53125s-7.527344 3.371094-7.527344 7.53125c0 4.15625 3.371094 7.53125 7.527344 7.53125s7.527343-3.375 7.527343-7.53125zm0 0" fill="#635663"/><path d="m77.132812 85.675781c0-4.160156-3.371093-7.53125-7.527343-7.53125s-7.527344 3.371094-7.527344 7.53125c0 4.15625 3.371094 7.527344 7.527344 7.527344s7.527343-3.371094 7.527343-7.527344zm0 0" fill="#635663"/><path d="m110.269531 239.738281c0-22.472656-18.207031-40.691406-40.664062-40.691406-22.460938 0-40.667969 18.21875-40.667969 40.691406 0 22.476563 18.207031 40.695313 40.667969 40.695313 22.457031 0 40.664062-18.21875 40.664062-40.695313zm0 0" fill="#c6c2c6"/><g fill="#635663"><path d="m77.132812 239.738281c0-4.15625-3.371093-7.527343-7.527343-7.527343s-7.527344 3.371093-7.527344 7.527343c0 4.160157 3.371094 7.53125 7.527344 7.53125s7.527343-3.371093 7.527343-7.53125zm0 0"/><path d="m77.132812 259.457031c0-4.160156-3.371093-7.53125-7.527343-7.53125s-7.527344 3.371094-7.527344 7.53125c0 4.160157 3.371094 7.53125 7.527344 7.53125s7.527343-3.371093 7.527343-7.53125zm0 0"/><path d="m77.132812 220.023438c0-4.160157-3.371093-7.53125-7.527343-7.53125s-7.527344 3.371093-7.527344 7.53125c0 4.160156 3.371094 7.53125 7.527344 7.53125s7.527343-3.371094 7.527343-7.53125zm0 0"/><path d="m300.0625 382.097656c-4.167969 0-7.566406-3.359375-7.609375-7.539062l-.351563-36.394532c-.039062-4.203124 3.335938-7.644531 7.539063-7.683593h.074219c4.171875 0 7.570312 3.359375 7.609375 7.535156l.351562 36.398437c.042969 4.203126-3.335937 7.644532-7.539062 7.683594-.023438 0-.046875 0-.074219 0zm0 0"/><path d="m336.300781 381.824219c-4.167969 0-7.566406-3.359375-7.609375-7.535157l-.351562-36.398437c-.039063-4.203125 3.335937-7.644531 7.539062-7.683594 4.171875-.003906 7.644532 3.335938 7.683594 7.539063l.351562 36.394531c.042969 4.203125-3.335937 7.644531-7.535156 7.683594-.027344 0-.054687 0-.078125 0zm0 0"/></g><path d="m317.246094 277.3125c4.910156-.050781 9.460937 2.574219 11.875 6.855469l22.804687 40.460937c5.027344 8.925782-1.34375 19.980469-11.585937 20.089844l-44.71875.488281c-10.238282.113281-16.851563-10.800781-12.015625-19.835937l21.914062-40.945313c2.320313-4.332031 6.8125-7.058593 11.726563-7.113281zm0 0" fill="#8a7e88"/></svg>