<svg height="512pt" viewBox="-61 0 511 512" width="512pt" xmlns="http://www.w3.org/2000/svg"><path d="m233.898438 186.746094h-232.636719v139.507812h279.160156c22.871094 0 37.3125-27.355468 26.171875-49.582031l-46.523438-72.824219c-5.292968-10.558594-15.308593-17.101562-26.171874-17.101562zm0 0" fill="#ffd779"/><path d="m203.196867.500488h-141.325379v139.644051h187.898159c22.889519 0 37.345028-27.382183 26.193524-49.630451l-46.568871-72.895336c-5.298137-10.568905-15.319633-17.118264-26.197433-17.118264zm0 0" fill="#8fccba" stroke="#8fccba" stroke-linecap="round" stroke-linejoin="round" stroke-miterlimit="10" transform="matrix(.999024 0 0 .999024 -60.811126 0)"/><path d="m313.34375 372.492188h-312.082031v139.507812h358.605469c22.871093 0 37.3125-27.355469 26.171874-49.582031l-46.523437-72.824219c-5.292969-10.558594-15.304687-17.101562-26.171875-17.101562zm0 0" fill="#e73332"/><path d="m306.59375 276.671875-46.523438-72.824219c-5.292968-10.558594-15.308593-17.101562-26.171874-17.101562h-51.460938c10.867188 0 20.882812 6.542968 26.171875 17.101562l46.527344 72.824219c11.136719 22.226563-3.304688 49.582031-26.171875 49.582031h51.457031c22.871094 0 37.3125-27.355468 26.171875-49.582031zm0 0" fill="#fcc151"/><path d="m275.963171 90.514088-46.568871-72.895336c-5.298137-10.568905-15.319633-17.118264-26.197433-17.118264h-51.507282c10.87389 0 20.899295 6.549359 26.197433 17.118264l46.568871 72.895336c11.147594 22.244358-3.304005 49.630451-26.197434 49.630451h51.507282c22.893429 0 37.348938-27.382183 26.197434-49.630451zm0 0" fill="#64bda1" stroke="#8fccba" stroke-linecap="round" stroke-linejoin="round" stroke-miterlimit="10" transform="matrix(.999024 0 0 .999024 -60.811126 0)"/><path d="m386.039062 462.417969-46.523437-72.824219c-5.292969-10.558594-15.308594-17.101562-26.171875-17.101562h-51.460938c10.867188 0 20.882813 6.546874 26.171876 17.101562l46.527343 72.824219c11.136719 22.226562-3.304687 49.582031-26.171875 49.582031h51.457032c22.871093 0 37.3125-27.355469 26.171874-49.582031zm0 0" fill="#971e1e"/></svg>