<svg height="512pt" viewBox="0 -101 512.0007 512" width="512pt" xmlns="http://www.w3.org/2000/svg"><path d="m117.507812 18.628906h272.730469v272.328125h-272.730469zm0 0" fill="#c6c2c6"/><path d="m338.726562 18.628906h51.511719v272.328125h-51.511719zm0 0" fill="#a298a1"/><path d="m200.824219 231.292969h-74.480469c-4.144531 0-7.5-3.355469-7.5-7.5s3.355469-7.5 7.5-7.5h74.480469c19.554687 0 37.878906-7.675781 51.597656-21.613281s21.105469-32.378907 20.792969-51.933594c-.375-23.601563 8.539062-45.867188 25.101562-62.691406 16.558594-16.828126 38.679688-26.09375 62.289063-26.09375h26.207031c4.144531 0 7.5 3.359374 7.5 7.5 0 4.144531-3.355469 7.5-7.5 7.5h-26.207031c-19.558594 0-37.882813 7.675781-51.601563 21.613281-13.714844 13.9375-21.101562 32.382812-20.789062 51.933593.371094 23.605469-8.542969 45.871094-25.101563 62.695313-16.558593 16.824219-38.679687 26.089844-62.289062 26.089844zm0 0" fill="#635663"/><path d="m276.421875 167.371094-13.667969-23.636719c-1.925781-3.332031.476563-7.496094 4.324219-7.496094h27.335937c3.847657 0 6.25 4.164063 4.324219 7.496094l-13.667969 23.636719c-1.921874 3.328125-6.726562 3.328125-8.648437 0zm0 0" fill="#ffd465"/><path d="m155.824219 257.378906h-29.480469c-4.269531 0-7.726562-3.457031-7.726562-7.722656 0-4.269531 3.457031-7.726562 7.726562-7.726562h29.480469c19.515625 0 37.800781-7.65625 51.480469-21.554688 13.644531-13.863281 20.992187-32.207031 20.683593-51.644531-.375-23.613281 8.546875-45.890625 25.125-62.730469 16.605469-16.871094 38.800781-26.164062 62.488281-26.164062h77.253907c4.265625 0 7.726562 3.457031 7.726562 7.726562 0 4.265625-3.460937 7.726562-7.726562 7.726562h-77.253907c-19.515624 0-37.796874 7.652344-51.476562 21.550782-13.648438 13.867187-20.996094 32.207031-20.6875 51.644531.375 23.613281-8.546875 45.890625-25.121094 62.730469-16.605468 16.871094-38.800781 26.164062-62.492187 26.164062zm0 0" fill="#635663"/><path d="m240.070312 156.808594 13.667969 23.636718c1.925781 3.328126-.480469 7.496094-4.324219 7.496094h-27.335937c-3.847656 0-6.25-4.167968-4.324219-7.496094l13.667969-23.636718c1.921875-3.328125 6.726563-3.328125 8.648437 0zm0 0" fill="#ffd465"/><path d="m401.082031 207.1875v56.859375h18.824219c8.28125 0 15-6.707031 15-14.980469v-26.902344c0-8.269531-6.71875-14.976562-15-14.976562zm0 0" fill="#a298a1"/><path d="m512 91.921875h-85.03125v-36.800781h85.03125zm0 0" fill="#c6c2c6"/><path d="m401.082031 45.09375v56.859375h18.824219c8.28125 0 15-6.707031 15-14.980469v-26.902344c0-8.269531-6.71875-14.976562-15-14.976562zm0 0" fill="#a298a1"/><path d="m85.03125 254.015625h-85.03125v-36.800781h85.03125zm0 0" fill="#c6c2c6"/><path d="m110.917969 264.046875v-56.859375h-18.820313c-8.285156 0-15 6.703125-15 14.976562v26.902344c0 8.273438 6.714844 14.980469 15 14.980469zm0 0" fill="#a298a1"/><path d="m110.917969 101.953125v-56.859375h-18.820313c-8.285156 0-15 6.703125-15 14.976562v26.902344c0 8.273438 6.714844 14.980469 15 14.980469zm0 0" fill="#a298a1"/><path d="m375.796875 309.136719h-239.589844c-19.300781 0-35-15.675781-35-34.949219v-239.238281c0-19.269531 15.699219-34.949219 35-34.949219h239.589844c19.296875 0 35 15.679688 35 34.949219v239.238281c0 19.273438-15.703125 34.949219-35 34.949219zm-239.589844-279.179688c-2.757812 0-5 2.242188-5 4.992188v239.242187c0 2.75 2.242188 4.992188 5 4.992188h239.589844c2.753906 0 5-2.242188 5-4.992188v-239.242187c0-2.753907-2.246094-4.992188-5-4.992188zm0 0" fill="#f1eff2"/><path d="m375.796875 0h-125.5625c17.601563 0 32.203125 13.042969 34.636719 29.957031h90.925781c2.753906 0 5 2.238281 5 4.992188v239.238281c0 2.753906-2.246094 4.996094-5 4.996094h-90.925781c-2.433594 16.910156-17.035156 29.953125-34.636719 29.953125h125.5625c19.296875 0 35-15.675781 35-34.949219v-239.238281c0-19.269531-15.703125-34.949219-35-34.949219zm0 0" fill="#e0dee1"/></svg>