<svg height="512pt" viewBox="0 -140 512.00025 512" width="512pt" xmlns="http://www.w3.org/2000/svg"><path d="m66.011719 120.644531h223.269531v14.984375h-223.269531zm0 0" fill="#635663"/><path d="m32.023438 160.203125c-8.3125 0-16.144532-3.148437-22.179688-8.949219-6.347656-6.101562-9.84375-14.3125-9.84375-23.117187 0-8.808594 3.496094-17.015625 9.847656-23.121094 6.347656-6.097656 14.703125-9.261719 23.488282-8.917969 16.03125.636719 31 8.167969 41.0625 20.664063 5.304687 6.589843 5.304687 16.15625 0 22.746093-10.0625 12.496094-25.03125 20.03125-41.0625 20.667969-.4375.019531-.875.027344-1.3125.027344zm.019531-49.144531c-4.429688 0-8.601563 1.675781-11.8125 4.765625-3.382813 3.25-5.246094 7.621093-5.246094 12.3125 0 4.691406 1.863281 9.0625 5.246094 12.3125 3.378906 3.25 7.832031 4.941406 12.511719 4.753906 11.707031-.464844 22.636718-5.96875 29.984374-15.09375.921876-1.144531.921876-2.804687 0-3.949219-7.347656-9.125-18.277343-14.625-29.984374-15.089844-.234376-.007812-.46875-.011718-.699219-.011718zm0 0" fill="#635663"/><path d="m493.203125 127.964844c0 58.78125-48.90625 105.765625-107.664063 103.433594-58.445312-2.320313-113.03125-29.785157-149.714843-75.324219-13.21875-16.410157-13.21875-39.808594 0-56.222657 36.683593-45.539062 91.269531-73 149.714843-75.320312 58.757813-2.332031 107.664063 44.652344 107.664063 103.433594zm0 0" fill="#ffd779"/><path d="m385.539062 24.53125c-8.074218.320312-16.074218 1.132812-23.964843 2.402344 46.121093 10.304687 80.886719 51.476562 80.886719 101.03125 0 49.558594-34.765626 90.730468-80.886719 101.03125 7.886719 1.269531 15.886719 2.082031 23.964843 2.402344 58.757813 2.332031 107.664063-44.652344 107.664063-103.433594s-48.90625-105.765625-107.664063-103.433594zm0 0" fill="#fcc151"/><path d="m400.304688 111.660156c5.847656 5.847656 15.332031 5.847656 21.179687 0l86.121094-86.085937c5.855469-5.851563 5.855469-15.339844 0-21.1875-5.847657-5.847657-15.328125-5.847657-21.175781 0l-86.125 86.085937c-5.851563 5.851563-5.851563 15.335938 0 21.1875zm0 0" fill="#8a7e88"/><path d="m507.613281 4.390625c-5.191406-5.1875-13.234375-5.765625-19.074219-1.75.746094.511719 1.457032 1.089844 2.117188 1.75 5.851562 5.847656 5.851562 15.328125 0 21.179687l-86.125 86.085938c-.660156.660156-1.371094 1.234375-2.113281 1.746094 5.835937 4.015625 13.878906 3.441406 19.070312-1.746094l86.125-86.085938c5.851563-5.851562 5.851563-15.332031 0-21.179687zm0 0" fill="#635663"/><path d="m433.871094 128.1875c0-24.484375-19.855469-44.332031-44.351563-44.332031-24.492187 0-44.351562 19.847656-44.351562 44.332031s19.859375 44.332031 44.351562 44.332031c24.496094 0 44.351563-19.847656 44.351563-44.332031zm0 0" fill="#8a7e88"/><path d="m389.519531 83.855469c-5.894531 0-11.511719 1.167969-16.65625 3.261719 16.214844 6.59375 27.65625 22.492187 27.65625 41.070312s-11.441406 34.480469-27.65625 41.074219c5.144531 2.089843 10.761719 3.257812 16.65625 3.257812 24.496094 0 44.351563-19.847656 44.351563-44.332031s-19.855469-44.332031-44.351563-44.332031zm0 0" fill="#635663"/><path d="m280.203125 59.074219c-16.574219 11.191406-31.570313 24.878906-44.378906 40.78125-13.21875 16.410156-13.21875 39.808593 0 56.21875 12.808593 15.902343 27.804687 29.589843 44.378906 40.78125zm0 0" fill="#8fccba"/></svg>