<svg height="512pt" viewBox="0 -112 512.001 512" width="512pt" xmlns="http://www.w3.org/2000/svg"><g fill="#635663"><path d="m466.839844 259.746094h-148.027344v-15.050782h148.03125c16.601562 0 30.105469-13.507812 30.105469-30.109374v-35.203126c0-16.605468-13.503907-30.109374-30.105469-30.109374h-421.683594c-24.902344 0-45.160156-20.257813-45.160156-45.160157v-31.234375c0-24.902344 20.257812-45.160156 45.160156-45.160156h238.121094v15.050781h-238.121094c-16.601562 0-30.109375 13.507813-30.109375 30.109375v31.234375c0 16.601563 13.507813 30.109375 30.109375 30.109375h421.683594c24.898438 0 45.15625 20.257813 45.15625 45.160156v35.203126c0 24.902343-20.257812 45.160156-45.160156 45.160156zm0 0"/><path d="m239.113281 242.203125c-4.121093 0-7.484375-3.320313-7.523437-7.453125-.039063-4.15625 3.296875-7.558594 7.453125-7.597656l36.367187-.351563h.074219c4.121094 0 7.480469 3.320313 7.523437 7.453125.039063 4.15625-3.296874 7.558594-7.453124 7.597656l-36.367188.351563c-.023438 0-.046875 0-.074219 0zm0 0"/><path d="m239.386719 278.433594c-4.121094 0-7.484375-3.320313-7.523438-7.453125-.039062-4.15625 3.296875-7.554688 7.453125-7.597657l36.367188-.351562h.074218c4.121094 0 7.480469 3.324219 7.523438 7.453125.039062 4.15625-3.296875 7.558594-7.453125 7.601563l-36.367187.347656c-.023438 0-.050782 0-.074219 0zm0 0"/></g><path d="m335.863281 251.601562c.050781 4.894532-2.5625 9.429688-6.828125 11.832032l-40.292968 22.722656c-8.886719 5.015625-19.894532-1.335938-20.007813-11.539062l-.484375-44.5625c-.109375-10.207032 10.757812-16.792969 19.753906-11.976563l40.777344 21.839844c4.3125 2.3125 7.027344 6.789062 7.082031 11.683593zm0 0" fill="#8a7e88"/><path d="m268.921875 36.308594c-.050781-4.894532 2.5625-9.429688 6.828125-11.835938l40.289062-22.722656c8.890626-5.011719 19.898438 1.339844 20.011719 11.542969l.484375 44.5625c.109375 10.203125-10.757812 16.792969-19.753906 11.972656l-40.777344-21.839844c-4.3125-2.308593-7.027344-6.785156-7.082031-11.679687zm0 0" fill="#8a7e88"/></svg>