<svg height="512pt" viewBox="-34 0 512 512.00001" width="512pt" xmlns="http://www.w3.org/2000/svg"><path d="m345.691406 506.953125c-4.140625 0-7.5-3.355469-7.5-7.5v-109.589844c0-4.140625 3.359375-7.5 7.5-7.5 4.144532 0 7.5 3.359375 7.5 7.5v109.589844c0 4.144531-3.355468 7.5-7.5 7.5zm0 0" fill="#635663"/><path d="m392.804688 511.363281h-97.0625c-4.140626 0-7.5-3.355469-7.5-7.5 0-4.140625 3.359374-7.5 7.5-7.5h97.0625c4.144531 0 7.5 3.359375 7.5 7.5 0 4.144531-3.355469 7.5-7.5 7.5zm0 0" fill="#635663"/><path d="m0 160.382812v278.765626c0 14.277343 11.5625 25.851562 25.828125 25.851562h391.984375.007812c14.261719-.003906 25.820313-11.578125 25.820313-25.851562v-280.71875zm0 0" fill="#c6c2c6"/><path d="m392.132812 158.652344v280.496094c0 14.273437-11.5625 25.847656-25.820312 25.851562h51.507812c14.261719-.003906 25.820313-11.578125 25.820313-25.851562v-280.722657zm0 0" fill="#a298a1"/><path d="m154.890625 450.933594c0-33.730469-27.316406-61.070313-61.007813-61.070313-33.691406 0-61.003906 27.339844-61.003906 61.070313 0 33.726562 27.3125 61.066406 61.003906 61.066406 33.691407 0 61.007813-27.339844 61.007813-61.066406zm0 0" fill="#ffd779"/><path d="m93.882812 389.863281c-9.207031 0-17.9375 2.046875-25.765624 5.703125 20.824218 9.71875 35.261718 30.847656 35.261718 55.367188 0 24.515625-14.4375 45.644531-35.261718 55.363281 7.828124 3.65625 16.558593 5.703125 25.765624 5.703125 33.691407 0 61.007813-27.339844 61.007813-61.066406-.003906-33.730469-27.316406-61.070313-61.007813-61.070313zm0 0" fill="#fcc151"/><path d="m122.03125 450.933594c0-15.5625-12.601562-28.179688-28.148438-28.179688-15.546874 0-28.148437 12.617188-28.148437 28.179688s12.601563 28.175781 28.148437 28.175781c15.546876 0 28.148438-12.613281 28.148438-28.175781zm0 0" fill="#c6c2c6"/><path d="m93.882812 422.753906c-4.402343 0-8.570312 1.015625-12.28125 2.816406 9.394532 4.566407 15.871094 14.207032 15.871094 25.363282 0 11.152344-6.476562 20.792968-15.871094 25.359375 3.710938 1.804687 7.878907 2.816406 12.28125 2.816406 15.546876 0 28.148438-12.617187 28.148438-28.175781 0-15.5625-12.601562-28.179688-28.148438-28.179688zm0 0" fill="#a298a1"/><path d="m253.582031 351.980469h-154.683593c-29.304688 0-53.058594-23.753907-53.058594-53.058594v-.054687c0-29.304688 23.753906-53.058594 53.058594-53.058594h154.683593c29.304688 0 53.058594 23.753906 53.058594 53.058594v.054687c0 29.304687-23.753906 53.058594-53.058594 53.058594zm0 0" fill="#8a7e88"/><path d="m253.609375 245.808594h-40.011719c29.289063 0 53.035156 23.765625 53.035156 53.085937 0 29.320313-23.746093 53.085938-53.035156 53.085938h40.011719c29.289063 0 53.03125-23.765625 53.03125-53.085938 0-29.320312-23.742187-53.085937-53.03125-53.085937zm0 0" fill="#635663"/><path d="m425.457031 102.863281h-26.265625v-59.378906c0-9.480469-7.703125-17.191406-17.171875-17.191406h-124.761719c-9.46875 0-17.171874 7.710937-17.171874 17.191406v34.378906h-26.265626v-34.378906c0-23.976563 19.484376-43.484375 43.4375-43.484375h124.761719c23.949219 0 43.4375 19.507812 43.4375 43.484375zm0 0" fill="#ffd465"/><path d="m382.015625 0h-8.070313v26.292969h8.070313c9.472656 0 17.175781 7.710937 17.175781 17.191406v59.378906h26.265625v-59.378906c0-23.976563-19.488281-43.484375-43.441406-43.484375zm0 0" fill="#fcc151"/><path d="m443.640625 201.4375v-71.101562c0-35.695313-28.90625-64.632813-64.566406-64.632813h-314.507813c-35.660156 0-64.566406 28.9375-64.566406 64.632813v71.101562zm0 0" fill="#ffd779"/><path d="m379.074219 65.703125h-51.511719c35.660156 0 64.566406 28.9375 64.566406 64.632813v71.101562h51.511719v-71.101562c0-35.695313-28.910156-64.632813-64.566406-64.632813zm0 0" fill="#fcc151"/><g fill="#635663"><path d="m288.804688 166.082031h-223.070313c-4.144531 0-7.5-3.355469-7.5-7.5 0-4.140625 3.355469-7.5 7.5-7.5h223.070313c4.144531 0 7.5 3.359375 7.5 7.5 0 4.144531-3.355469 7.5-7.5 7.5zm0 0"/><path d="m288.804688 141.070312h-223.070313c-4.144531 0-7.5-3.355468-7.5-7.5 0-4.140624 3.355469-7.5 7.5-7.5h223.070313c4.144531 0 7.5 3.359376 7.5 7.5 0 4.144532-3.355469 7.5-7.5 7.5zm0 0"/><path d="m288.804688 116.058594h-223.070313c-4.144531 0-7.5-3.355469-7.5-7.5 0-4.144532 3.355469-7.5 7.5-7.5h223.070313c4.144531 0 7.5 3.355468 7.5 7.5 0 4.144531-3.355469 7.5-7.5 7.5zm0 0"/></g><path d="m392.808594 137.816406c0-16.15625-13.085938-29.257812-29.230469-29.257812s-29.230469 13.101562-29.230469 29.257812c0 16.160156 13.085938 29.257813 29.230469 29.257813s29.230469-13.097657 29.230469-29.257813zm0 0" fill="#8fccba"/><path d="m363.578125 108.558594c-3.746094 0-7.320313.71875-10.609375 2.003906 10.886719 4.257812 18.601562 14.851562 18.601562 27.253906 0 12.40625-7.714843 23-18.601562 27.253906 3.289062 1.289063 6.863281 2.003907 10.609375 2.003907 16.144531 0 29.230469-13.097657 29.230469-29.257813s-13.089844-29.257812-29.230469-29.257812zm0 0" fill="#64bda1"/></svg>