<svg height="512pt" viewBox="-204 0 512 512.00029" width="512pt" xmlns="http://www.w3.org/2000/svg"><path d="m51.683594 512c-4.203125 0-7.613282-3.40625-7.613282-7.609375v-43.414063c0-4.207031 3.410157-7.613281 7.613282-7.613281s7.609375 3.40625 7.609375 7.613281v43.414063c0 4.203125-3.40625 7.609375-7.609375 7.609375zm0 0" fill="#635663"/><path d="m57.839844 460.972656h-12.3125c-8.285156 0-15.003906-6.714844-15.003906-15.003906v-47.4375h42.320312v47.4375c0 8.289062-6.71875 15.003906-15.003906 15.003906zm0 0" fill="#cfab4b"/><path d="m58.210938 398.53125v47.421875c0 7.9375-6.148438 14.421875-13.929688 14.96875.40625.035156.816406.050781 1.230469.050781h12.34375c8.277343 0 14.988281-6.722656 14.988281-15.019531v-47.421875zm0 0" fill="#c59731"/><path d="m71.785156 412.777344h-40.203125c-8.289062 0-15.007812-6.71875-15.007812-15.003906v-193.585938h70.214843v193.585938c0 8.285156-6.71875 15.003906-15.003906 15.003906zm0 0" fill="#ffd779"/><path d="m61.742188 204.1875v193.570312c0 8.296876-6.710938 15.019532-14.988282 15.019532h25.046875c8.277344 0 14.988281-6.722656 14.988281-15.019532v-193.570312zm0 0" fill="#fcc151"/><path d="m67.972656 193.226562h-28.835937v-188.210937c0-4.675781 3.539062-6.800781 5.359375-3.210937l19.941406 19.304687c2.285156 4.507813 3.535156 10.195313 3.535156 16.070313zm0 0" fill="#c6c2c6"/><path d="m91.664062 217.765625h-79.960937c-6.464844 0-11.703125-5.238281-11.703125-11.703125v-8.144531c0-6.460938 5.238281-11.703125 11.703125-11.703125h80.511719c6.160156 0 11.152344 4.996094 11.152344 11.15625v8.695312c0 6.460938-5.238282 11.699219-11.703126 11.699219zm0 0" fill="#cfab4b"/><path d="m92.226562 186.214844h-38.125c6.152344 0 11.140626 5 11.140626 11.167968v8.667969c0 6.472657-5.234376 11.71875-11.6875 11.71875h38.121093c6.457031 0 11.691407-5.246093 11.691407-11.71875v-8.667969c0-6.167968-4.988282-11.167968-11.140626-11.167968zm0 0" fill="#c59731"/><path d="m59.183594 285.699219v-39.597657c0-4.144531-3.359375-7.5-7.5-7.5-4.144532 0-7.5 3.355469-7.5 7.5v39.597657c0 4.140625 3.355468 7.5 7.5 7.5 4.140625 0 7.5-3.359375 7.5-7.5zm0 0" fill="#64bda1"/></svg>