<svg height="512pt" viewBox="0 -165 512.0003 512" width="512pt" xmlns="http://www.w3.org/2000/svg"><path d="m473.726562 45.636719 37.824219 83.277343c1.496094 3.300782-.921875 7.046876-4.554687 7.046876h-77.742188v-93.25h39.921875c1.960938-.003907 3.742188 1.144531 4.550781 2.925781zm0 0" fill="#c6c2c6"/><path d="m511.550781 128.914062-37.824219-83.277343c-.808593-1.78125-2.589843-2.925781-4.554687-2.925781h-26.339844c1.960938 0 3.746094 1.144531 4.554688 2.925781l37.820312 83.277343c1.5 3.304688-.921875 7.046876-4.554687 7.046876h26.34375c3.632812 0 6.050781-3.746094 4.554687-7.046876zm0 0" fill="#a298a1"/><path d="m419.152344 42.707031h-34.246094l42.347656 93.253907h34.246094zm0 0" fill="#c6c2c6"/><g fill="#8a7e88"><path d="m434.527344 131.929688 18.660156-35.675782c2.265625-4.335937 2.265625-9.503906 0-13.839844l-18.660156-35.671874c-2.585938-4.941407-7.710938-8.042969-13.300782-8.042969h-43.417968v101.273437h43.417968c5.589844-.003906 10.714844-3.101562 13.300782-8.042968zm0 0"/><path d="m434.527344 131.929688 18.660156-35.675782c2.265625-4.335937 2.265625-9.503906 0-13.839844l-18.660156-35.671874c-2.585938-4.941407-7.710938-8.042969-13.300782-8.042969h-43.417968v101.273437h43.417968c5.589844-.003906 10.714844-3.101562 13.300782-8.042968zm0 0"/><path d="m227.800781 15.273438v15.238281h-86v-15.238281c0-8.433594 6.835938-15.273438 15.273438-15.273438h55.453125c8.4375 0 15.273437 6.839844 15.273437 15.273438zm0 0"/></g><path d="m212.507812 0h-43c8.445313 0 15.292969 6.832031 15.292969 15.253906v15.253906h43v-15.253906c0-8.421875-6.847656-15.253906-15.292969-15.253906zm0 0" fill="#635663"/><path d="m64.113281 30.132812h292.132813c32.78125 0 59.355468 26.503907 59.355468 59.203126 0 32.695312-26.574218 59.199218-59.355468 59.199218h-177.875c-10.128906 0-20.089844 2.585938-28.933594 7.507813l-34.855469 19.40625c-12.664062 7.054687-41.648437 6.136719-41.648437 6.136719zm0 0" fill="#ffd779"/><path d="m356.246094 30.132812h-51.507813c32.78125 0 59.355469 26.503907 59.355469 59.203126 0 32.695312-26.574219 59.199218-59.355469 59.199218h51.507813c32.78125 0 59.355468-26.503906 59.355468-59.199218 0-32.699219-26.574218-59.203126-59.355468-59.203126zm0 0" fill="#fcc151"/><path d="m76.464844 30.132812h-12.351563c-29.035156 0-53.8125 20.957032-58.554687 49.527344l-4.761719 28.671875c-5.160156 31.082031 15.304687 59.4375 45.839844 67.5 27.167969 7.175781 28.648437 5.609375 29.828125 5.792969zm0 0" fill="#8a7e88"/><path d="m177.640625 111.523438-20.15625-44.378907h-25.191406c-8.304688 0-15.03125 6.730469-15 15.011719l.050781 14.460938c.027344 8.242187 6.734375 14.90625 15 14.90625zm0 0" fill="#c6c2c6"/><path d="m228.714844 111.523438-20.15625-44.378907h-58.246094l20.15625 44.378907zm0 0" fill="#8a7e88"/><path d="m282.863281 111.523438-20.15625-44.378907h-59.246093l20.15625 44.378907zm0 0" fill="#c6c2c6"/><path d="m276.890625 111.523438-20.15625-44.378907h59.246094l20.15625 44.378907zm0 0" fill="#8a7e88"/><path d="m369.078125 80.179688c-3.605469-7.9375-11.53125-13.035157-20.269531-13.035157h-38.898438l20.15625 44.378907h18.742188c16.167968 0 26.941406-16.65625 20.269531-31.34375zm0 0" fill="#c6c2c6"/></svg>