<svg height="512pt" viewBox="-162 0 512 512" width="512pt" xmlns="http://www.w3.org/2000/svg"><path d="m0 455.476562h188.9375v36.546876c0 11.03125-8.945312 19.976562-19.976562 19.976562h-148.984376c-11.03125 0-19.976562-8.945312-19.976562-19.976562zm0 0" fill="#c6c2c6"/><path d="m140.160156 48.621094v-26.753906c0-12.078126-9.191406-21.867188-20.535156-21.867188h-50.3125c-11.34375 0-20.539062 9.789062-20.539062 21.867188v26.753906zm0 0" fill="#8a7e88"/><path d="m119.625 0h-34.65625c11.34375 0 20.539062 9.789062 20.539062 21.867188v26.753906h34.652344v-26.753906c0-12.078126-9.191406-21.867188-20.535156-21.867188zm0 0" fill="#635663"/><path d="m19.976562 32.039062h148.984376c11.03125 0 19.972656 8.945313 19.972656 19.976563v36.546875h-188.933594v-36.546875c0-11.035156 8.945312-19.976563 19.976562-19.976563zm0 0" fill="#c6c2c6"/><path d="m140.210938 455.476562v36.523438c0 11.046875-8.933594 20-19.953126 20h48.726563c11.019531 0 19.953125-8.953125 19.953125-20v-36.523438zm0 0" fill="#a298a1"/><path d="m168.984375 32.039062h-48.925781c11.019531 0 19.953125 8.953126 19.953125 20v36.523438h48.925781v-36.523438c0-11.046874-8.933594-20-19.953125-20zm0 0" fill="#a298a1"/><path d="m0 76.132812h188.9375v392.570313h-188.9375zm0 0" fill="#ffd779"/><path d="m140.210938 76.128906h48.726562v392.574219h-48.726562zm0 0" fill="#fcc151"/><g fill="#635663"><path d="m126.390625 421.960938h-63.84375c-4.265625 0-7.726563-3.457032-7.726563-7.726563 0-4.265625 3.460938-7.726563 7.726563-7.726563h63.84375c4.265625 0 7.722656 3.460938 7.722656 7.726563 0 4.269531-3.457031 7.726563-7.722656 7.726563zm0 0"/><path d="m126.390625 165.097656h-63.84375c-4.265625 0-7.726563-3.460937-7.726563-7.726562s3.460938-7.726563 7.726563-7.726563h63.84375c4.265625 0 7.722656 3.460938 7.722656 7.726563s-3.457031 7.726562-7.722656 7.726562zm0 0"/><path d="m94.46875 197.09375c-4.269531 0-7.726562-3.457031-7.726562-7.726562v-63.992188c0-4.269531 3.457031-7.726562 7.726562-7.726562 4.265625 0 7.726562 3.457031 7.726562 7.726562v63.992188c0 4.269531-3.460937 7.726562-7.726562 7.726562zm0 0"/></g></svg>