<svg height="512pt" viewBox="0 -36 512 512" width="512pt" xmlns="http://www.w3.org/2000/svg"><path d="m190.191406 302.65625-15.039062-4.027344 14.261718-53.207031 15.035157 4.027344c7.988281 2.140625 12.730469 10.351562 10.589843 18.339843l-6.511718 24.28125c-2.140625 7.988282-10.347656 12.726563-18.335938 10.585938zm0 0" fill="#8a7e88"/><path d="m91.328125 146.496094 116.589844 31.222656-61.320313 228.976562-116.589844-31.222656zm0 0" fill="#c6c2c6"/><path d="m174.777344 177.71875-59.160156 220.664062 30.945312 8.285157 61.382812-228.949219zm0 0" fill="#a298a1"/><path d="m41.25 345.890625h108.449219c16.539062 0 29.945312 13.40625 29.945312 29.945313v34.550781c0 16.539062-13.40625 29.945312-29.945312 29.945312h-108.449219c-16.539062 0-29.945312-13.40625-29.945312-29.945312v-34.550781c0-16.539063 13.40625-29.945313 29.945312-29.945313zm0 0" fill="#8a7e88"/><path d="m149.691406 345.890625h-33.289062c16.542968 0 29.953125 13.40625 29.953125 29.9375v34.570313c0 16.53125-13.410157 29.9375-29.953125 29.9375h33.289062c16.542969 0 29.957032-13.40625 29.957032-29.9375v-34.570313c0-16.53125-13.414063-29.9375-29.957032-29.9375zm0 0" fill="#635663"/><path d="m504.390625 108.238281h-47.480469c-4.203125 0-7.609375-3.40625-7.609375-7.609375 0-4.207031 3.40625-7.613281 7.609375-7.613281h47.480469c4.203125 0 7.609375 3.40625 7.609375 7.613281 0 4.203125-3.40625 7.609375-7.609375 7.609375zm0 0" fill="#635663"/><path d="m410.902344 156.144531h21.988281c16.539063 0 29.945313-13.40625 29.945313-29.945312v-51.144531c0-16.539063-13.40625-29.945313-29.945313-29.945313h-21.988281zm0 0" fill="#c6c2c6"/><path d="m360.664062 45.109375h68.117188v111.035156h-68.117188zm0 0" fill="#8a7e88"/><path d="m344.96875 201.253906h-315.023438c-16.539062 0-29.945312-13.40625-29.945312-29.945312v-81.472656c0-49.613282 40.222656-89.835938 89.835938-89.835938h255.132812c16.539062 0 29.945312 13.40625 29.945312 29.945312v141.363282c0 16.539062-13.40625 29.945312-29.945312 29.945312zm0 0" fill="#ffd779"/><path d="m344.960938 0h-50.746094c16.542968 0 29.957031 13.402344 29.957031 29.9375v141.378906c0 16.535156-13.414063 29.9375-29.957031 29.9375h50.746094c16.542968 0 29.953124-13.402344 29.953124-29.9375v-141.378906c0-16.535156-13.410156-29.9375-29.953124-29.9375zm0 0" fill="#fcc151"/></svg>