<svg height="512pt" viewBox="-120 0 512 512" width="512pt" xmlns="http://www.w3.org/2000/svg"><path d="m94.667969 97.808594h83.4375v384.191406h-83.4375zm0 0" fill="#ffd779"/><path d="m149.023438 97.808594h29.082031v384.191406h-29.082031zm0 0" fill="#fcc151"/><path d="m242.820312 129.066406h-212.871093c-16.539063 0-29.949219-13.429687-29.949219-30v-69.066406c0-16.570312 13.410156-30 29.949219-30h131.414062c6.78125 0 13.363281 2.304688 18.664063 6.539062l81.460937 65.027344c7.128907 5.691406 11.28125 14.328125 11.28125 23.460938v4.039062c.003907 16.570313-13.40625 30-29.949219 30zm0 0" fill="#c6c2c6"/><path d="m261.488281 71.566406-81.460937-65.027344c-5.300782-4.234374-11.882813-6.539062-18.664063-6.539062h-56.386719c6.785157 0 13.363282 2.304688 18.667969 6.539062l81.457031 65.027344c7.132813 5.691406 11.285157 14.328125 11.285157 23.460938v4.039062c0 16.570313-13.410157 30-29.949219 30h56.382812c16.542969 0 29.953126-13.429687 29.953126-30v-4.039062c0-9.132813-4.15625-17.769532-11.285157-23.460938zm0 0" fill="#a298a1"/><path d="m94.667969 361.839844v120.160156c0 16.566406 13.410156 30 29.949219 30h23.535156c16.542968 0 29.953125-13.433594 29.953125-30v-120.160156zm0 0" fill="#e73332"/><path d="m146.816406 361.839844v120.160156c0 15.234375-11.339844 27.808594-26.023437 29.734375 1.253906.160156 2.527343.265625 3.824219.265625h23.539062c16.539062 0 29.949219-13.433594 29.949219-30v-120.160156zm0 0" fill="#971e1e"/><path d="m43.703125 0h-13.753906c-16.539063 0-29.949219 13.429688-29.949219 30v69.066406c0 16.570313 13.410156 30 29.949219 30h13.753906zm0 0" fill="#8a7e88"/></svg>