<svg height="512pt" viewBox="0 -95 512 512" width="512pt" xmlns="http://www.w3.org/2000/svg"><path d="m223.300781 313.972656h-215.691406c-4.203125 0-7.609375-3.410156-7.609375-7.613281v-51.835937c0-4.203126 3.40625-7.609376 7.609375-7.609376 4.207031 0 7.613281 3.40625 7.613281 7.609376v44.222656h208.078125c4.203125 0 7.609375 3.410156 7.609375 7.613281s-3.402344 7.613281-7.609375 7.613281zm0 0" fill="#635663"/><path d="m173.976562 183.101562h25.585938v73.339844h-25.585938c-8.28125 0-14.992187-6.710937-14.992187-14.992187v-43.359375c0-8.277344 6.710937-14.988282 14.992187-14.988282zm0 0" fill="#8fccba"/><path d="m422.058594 322.660156h-202.964844c-16.558594 0-29.984375-13.421875-29.984375-29.980468v-112.792969c0-99.347657 80.539063-179.886719 179.886719-179.886719h53.0625c49.671875 0 89.941406 40.269531 89.941406 89.941406v142.777344c0 49.675781-40.269531 89.941406-89.941406 89.941406zm0 0" fill="#ffd779"/><path d="m422.023438 0h-50.761719c49.691406 0 89.972656 40.253906 89.972656 89.910156v142.839844c0 49.65625-40.28125 89.914062-89.972656 89.914062h50.761719c49.695312 0 89.976562-40.257812 89.976562-89.914062v-142.839844c0-49.65625-40.28125-89.910156-89.976562-89.910156zm0 0" fill="#fcc151"/><path d="m481.773438 161.332031c0-63.589843-51.585938-115.140625-115.222657-115.140625s-115.222656 51.550782-115.222656 115.140625c0 63.589844 51.585937 115.140625 115.222656 115.140625s115.222657-51.550781 115.222657-115.140625zm0 0" fill="#c6c2c6"/><path d="m366.550781 46.191406c-8.703125 0-17.171875.988282-25.324219 2.820313 51.394532 11.578125 89.78125 57.464843 89.78125 112.320312 0 54.851563-38.386718 100.742188-89.78125 112.316407 8.152344 1.832031 16.621094 2.824218 25.324219 2.824218 63.636719 0 115.222657-51.550781 115.222657-115.144531 0-63.589844-51.585938-115.136719-115.222657-115.136719zm0 0" fill="#a298a1"/><path d="m431.882812 161.332031c0-36.058593-29.25-65.285156-65.332031-65.285156s-65.332031 29.226563-65.332031 65.285156c0 36.054688 29.25 65.285157 65.332031 65.285157s65.332031-29.230469 65.332031-65.285157zm0 0" fill="#8a7e88"/><path d="m366.550781 96.046875c-6.074219 0-11.953125.84375-17.53125 2.394531 27.5625 7.660156 47.796875 32.90625 47.796875 62.890625s-20.234375 55.230469-47.796875 62.886719c5.582031 1.550781 11.457031 2.398438 17.53125 2.398438 36.082031 0 65.332031-29.230469 65.332031-65.285157 0-36.058593-29.25-65.285156-65.332031-65.285156zm0 0" fill="#635663"/></svg>