<svg height="512pt" viewBox="-101 0 512 512" width="512pt" xmlns="http://www.w3.org/2000/svg"><path d="m30.503906 400h42.289063v112h-42.289063zm0 0" fill="#8a7e88"/><path d="m49.121094 400h23.671875v112h-23.671875zm0 0" fill="#635663"/><path d="m71.738281 410.953125h-40.183593c-8.277344 0-14.988282-6.710937-14.988282-14.988281v-193.304688h70.164063v193.304688c0 8.277344-6.710938 14.988281-14.992188 14.988281zm0 0" fill="#e73332"/><path d="m52.925781 202.660156v193.292969c0 8.285156-6.707031 15-14.976562 15h33.800781c8.273438 0 14.980469-6.714844 14.980469-15v-193.292969zm0 0" fill="#971e1e"/><path d="m71.617188 190.410156h-39.941407v-170.4375c0-11.03125 8.941407-19.972656 19.972657-19.972656 11.027343 0 19.96875 8.941406 19.96875 19.972656zm0 0" fill="#c6c2c6"/><path d="m51.648438 0c-3.644532 0-7.046876.992188-9.988282 2.695312 5.964844 3.460938 9.988282 9.90625 9.988282 17.304688v170.410156h19.96875v-170.410156c0-11.046875-8.941407-20-19.96875-20zm0 0" fill="#a298a1"/><path d="m91.605469 216.351562h-79.914063c-6.457031 0-11.691406-5.234374-11.691406-11.691406v-8.257812c0-6.457032 5.234375-11.691406 11.691406-11.691406h80.460938c6.152344 0 11.144531 4.988281 11.144531 11.140624v8.808594c0 6.457032-5.234375 11.691406-11.691406 11.691406zm0 0" fill="#8a7e88"/><path d="m92.160156 184.710938h-44.714844c6.148438 0 11.132813 4.992187 11.132813 11.152343v8.789063c0 6.460937-5.226563 11.699218-11.679687 11.699218h44.714843c6.453125 0 11.683594-5.238281 11.683594-11.699218v-8.789063c0-6.160156-4.988281-11.152343-11.136719-11.152343zm0 0" fill="#635663"/><path d="m237.089844 400h42.292968v112h-42.292968zm0 0" fill="#8a7e88"/><path d="m252.398438 400h26.984374v112h-26.984374zm0 0" fill="#635663"/><path d="m278.328125 410.953125h-40.183594c-8.277343 0-14.988281-6.710937-14.988281-14.988281v-193.304688h70.164062v193.304688c0 8.277344-6.710937 14.988281-14.992187 14.988281zm0 0" fill="#8fccba"/><path d="m259.515625 202.660156v193.292969c0 8.285156-6.707031 15-14.976563 15h33.800782c8.273437 0 14.980468-6.714844 14.980468-15v-193.292969zm0 0" fill="#64bda1"/><path d="m278.207031 190.410156h-39.941406v-170.4375c0-11.03125 8.941406-19.972656 19.972656-19.972656 11.027344 0 19.96875 8.941406 19.96875 19.972656zm0 0" fill="#c6c2c6"/><path d="m258.238281 0c-3.890625 0-7.503906 1.128906-10.574219 3.054688 5.636719 3.535156 9.398438 9.792968 9.398438 16.945312v170.410156h21.144531v-170.410156c0-11.046875-8.941406-20-19.96875-20zm0 0" fill="#a298a1"/><path d="m298.191406 216.351562h-79.910156c-6.457031 0-11.691406-5.234374-11.691406-11.691406v-8.257812c0-6.457032 5.234375-11.691406 11.691406-11.691406h80.460938c6.152343 0 11.140624 4.988281 11.140624 11.140624v8.808594c0 6.457032-5.234374 11.691406-11.691406 11.691406zm0 0" fill="#8a7e88"/><path d="m298.75 184.710938h-43.992188c6.148438 0 11.132813 4.992187 11.132813 11.152343v8.789063c0 6.460937-5.230469 11.699218-11.683594 11.699218h43.996094c6.453125 0 11.683594-5.238281 11.683594-11.699218v-8.789063c-.003907-6.160156-4.988281-11.152343-11.136719-11.152343zm0 0" fill="#635663"/></svg>