<svg height="512pt" viewBox="0 -16 512.00101 512" width="512pt" xmlns="http://www.w3.org/2000/svg"><path d="m269.398438 480.304688c-3.503907 0-6.539063-2.421876-7.316407-5.839844l-5.890625-25.921875-5.894531 25.921875c-.777344 3.417968-3.8125 5.839844-7.3125 5.839844-3.503906 0-6.539063-2.421876-7.316406-5.839844l-6.09375-26.804688c-1.332031 2.183594-3.730469 3.59375-6.402344 3.59375h-163.824219c-15.195312 0-27.558594-12.363281-27.558594-27.558594v-183.449218c0-4.144532 3.359376-7.5 7.503907-7.5 4.140625 0 7.5 3.355468 7.5 7.5v183.449218c0 6.925782 5.632812 12.558594 12.554687 12.558594h157.835938l5.277344-23.214844c.773437-3.414062 3.8125-5.835937 7.3125-5.835937s6.539062 2.421875 7.3125 5.835937l5.894531 25.925782 5.894531-25.925782c.777344-3.414062 3.8125-5.835937 7.3125-5.835937 3.503906 0 6.539062 2.421875 7.316406 5.835937l5.859375 25.789063 5.8125-25.773437c.769531-3.417969 3.804688-5.851563 7.308594-5.851563h.007813c3.5 0 6.539062 2.421875 7.3125 5.835937l6.09375 26.808594c1.335937-2.1875 3.734374-3.59375 6.402343-3.59375h149.136719c6.921875 0 12.554688-5.632812 12.554688-12.558594v-185.140624c0-4.144532 3.355468-7.503907 7.5-7.503907 4.144531 0 7.5 3.359375 7.5 7.503907v185.140624c0 15.195313-12.359376 27.558594-27.554688 27.558594h-143.148438l-5.273437 23.214844c-.777344 3.414062-3.8125 5.835938-7.316406 5.835938-3.5 0-6.539063-2.421876-7.3125-5.835938l-5.863281-25.789062-5.808594 25.773437c-.773438 3.417969-3.808594 5.847656-7.3125 5.851563zm0 0" fill="#635663"/><path d="m76.433594 246.054688h-68.933594c-4.144531 0-7.5-3.359376-7.5-7.5 0-4.144532 3.355469-7.503907 7.5-7.503907h68.933594c4.140625 0 7.5 3.359375 7.5 7.503907 0 4.140624-3.359375 7.5-7.5 7.5zm0 0" fill="#635663"/><path d="m272.34375 100.878906 128.765625 222.941406c7.289063 12.617188-1.816406 28.394532-16.390625 28.394532h-257.53125c-14.570312 0-23.679688-15.777344-16.390625-28.394532l128.765625-222.941406c7.289062-12.613281 25.496094-12.613281 32.78125 0zm0 0" fill="#ffd779"/><path d="m401.117188 323.828125-128.765626-222.941406c-7.289062-12.617188-25.507812-12.617188-32.792968 0l-8.980469 15.546875 119.789063 207.394531c7.285156 12.613281-1.820313 28.386719-16.398438 28.386719h50.75c14.574219 0 23.683594-15.769532 16.398438-28.386719zm0 0" fill="#fcc151"/><g fill="#635663"><path d="m303.796875 219.015625c-1.128906-2.875-3.90625-4.769531-6.996094-4.769531h-72.230469l50.636719-49.949219c2.957031-2.914063 2.988281-7.671875.070313-10.625-2.917969-2.957031-7.679688-2.988281-10.632813-.070313l-63.679687 62.8125c-2.171875 2.140626-2.832032 5.382813-1.675782 8.203126 1.160157 2.820312 3.90625 4.664062 6.957032 4.664062h71.429687l-51.144531 47.554688-9.875-9.871094c-1.839844-1.839844-4.980469-.996094-5.652344 1.515625l-12.140625 45.28125c-.671875 2.511719 1.628907 4.808593 4.140625 4.136719l45.300782-12.132813c2.511718-.675781 3.355468-3.8125 1.515624-5.652344l-12.648437-12.640625 64.75-60.207031c2.261719-2.101563 3.007813-5.375 1.875-8.25zm0 0"/><path d="m471.496094 209.636719c-4.144532 0-7.5-3.355469-7.5-7.5v-174.578125c0-6.921875-5.632813-12.554688-12.558594-12.554688h-392.089844c-6.921875 0-12.554687 5.632813-12.554687 12.554688v174.578125c0 4.144531-3.359375 7.5-7.5 7.5-4.144531 0-7.503907-3.355469-7.503907-7.5v-174.578125c0-15.195313 12.363282-27.558594 27.558594-27.558594h392.089844c15.195312 0 27.558594 12.363281 27.558594 27.558594v174.578125c0 4.140625-3.359375 7.5-7.5 7.5zm0 0"/><path d="m76.433594 209.636719h-68.933594c-4.144531 0-7.5-3.355469-7.5-7.5s3.355469-7.5 7.5-7.5h68.933594c4.140625 0 7.5 3.355469 7.5 7.5s-3.359375 7.5-7.5 7.5zm0 0"/></g><path d="m512 220.707031c0-22.390625-18.15625-40.542969-40.558594-40.542969-22.398437 0-40.558594 18.152344-40.558594 40.542969s18.160157 40.542969 40.558594 40.542969c22.402344 0 40.558594-18.152344 40.558594-40.542969zm0 0" fill="#ffd779"/><path d="m471.441406 180.164062c-5.621094 0-10.976562 1.144532-15.84375 3.210938 14.523438 6.171875 24.710938 20.5625 24.710938 37.332031s-10.1875 31.160157-24.710938 37.328125c4.867188 2.070313 10.222656 3.214844 15.84375 3.214844 22.402344 0 40.558594-18.152344 40.558594-40.542969s-18.15625-40.542969-40.558594-40.542969zm0 0" fill="#fcc151"/></svg>