<svg height="512pt" viewBox="0 0 512 512" width="512pt" xmlns="http://www.w3.org/2000/svg"><path d="m140.601562 448.039062h-80.417968c-16.558594 0-29.984375-13.425781-29.984375-29.988281v-202.253906c0-16.5625 13.421875-29.988281 29.984375-29.988281h80.421875c16.558593 0 29.984375 13.425781 29.984375 29.988281v202.257813c0 16.558593-13.425782 29.984374-29.988282 29.984374zm0 0" fill="#ffd779"/><path d="m449.832031 448.039062h-80.421875c-16.558594 0-29.984375-13.425781-29.984375-29.988281v-202.253906c0-16.5625 13.425781-29.988281 29.984375-29.988281h80.421875c16.558594 0 29.984375 13.425781 29.984375 29.988281v202.257813c0 16.558593-13.425781 29.984374-29.984375 29.984374zm0 0" fill="#ffd779"/><g fill="#f1eff2"><path d="m479.816406 253.566406v-37.757812c0-16.570313-13.417968-30-29.972656-30h-80.445312c-16.554688 0-29.972657 13.429687-29.972657 30v37.757812zm0 0"/><path d="m479.816406 418.039062v-37.757812h-140.390625v37.757812c0 16.570313 13.417969 30 29.972657 30h80.445312c16.554688 0 29.972656-13.429687 29.972656-30zm0 0"/><path d="m170.589844 253.566406v-37.757812c0-16.570313-13.417969-30-29.972656-30h-80.445313c-16.554687 0-29.972656 13.429687-29.972656 30v37.757812zm0 0"/><path d="m170.589844 418.039062v-37.757812h-140.390625v37.757812c0 16.570313 13.417969 30 29.972656 30h80.445313c16.554687 0 29.972656-13.429687 29.972656-30zm0 0"/></g><path d="m409.625 0h-.007812c-8.273438 0-14.980469 6.707031-14.980469 14.984375v46.863281h29.972656v-46.863281c0-8.277344-6.710937-14.984375-14.984375-14.984375zm0 0" fill="#8a7e88"/><path d="m100.398438 0h-.007813c-8.273437 0-14.984375 6.707031-14.984375 14.984375v46.863281h29.976562v-46.863281c0-8.277344-6.710937-14.984375-14.984374-14.984375zm0 0" fill="#8a7e88"/><path d="m409.632812 0h-.023437c-2.726563 0-5.277344.742188-7.480469 2.019531 4.472656 2.589844 7.492188 7.421875 7.492188 12.972657v46.855468h14.988281v-46.859375c0-8.277343-6.707031-14.988281-14.976563-14.988281zm0 0" fill="#635663"/><path d="m100.402344 0h-.019532c-2.726562 0-5.277343.742188-7.480468 2.019531 4.472656 2.589844 7.492187 7.421875 7.492187 12.972657v46.855468h14.988281v-46.859375c0-8.277343-6.707031-14.988281-14.980468-14.988281zm0 0" fill="#635663"/><path d="m139.453125 139.179688h-78.117187v-57.398438c0-16.558594 13.425781-29.984375 29.984374-29.984375h18.144532c16.5625 0 29.988281 13.421875 29.988281 29.984375zm0 0" fill="#f1eff2"/><path d="m448.679688 139.179688h-78.117188v-57.398438c0-16.558594 13.425781-29.984375 29.988281-29.984375h18.140625c16.5625 0 29.988282 13.421875 29.988282 29.984375zm0 0" fill="#f1eff2"/><path d="m109.480469 51.796875h-18.171875c-3.671875 0-7.191406.664063-10.445313 1.875 11.40625 4.242187 19.53125 15.230469 19.53125 28.125v57.382813h39.058594v-57.382813c0-16.570313-13.417969-30-29.972656-30zm0 0" fill="#e0dee1"/><path d="m418.707031 51.796875h-18.171875c-3.671875 0-7.191406.664063-10.441406 1.875 11.402344 4.242187 19.527344 15.230469 19.527344 28.125v57.382813h39.058594v-57.382813c0-16.570313-13.417969-30-29.972657-30zm0 0" fill="#e0dee1"/><path d="m140.617188 185.808594h-51.507813c16.550781 0 29.972656 13.429687 29.972656 30v202.230468c0 16.570313-13.421875 30-29.972656 30h51.507813c16.554687 0 29.972656-13.429687 29.972656-30v-202.230468c0-16.570313-13.417969-30-29.972656-30zm0 0" fill="#fcc151"/><path d="m449.84375 185.808594h-51.507812c16.554687 0 29.972656 13.429687 29.972656 30v202.230468c0 16.570313-13.421875 30-29.972656 30h51.507812c16.554688 0 29.972656-13.429687 29.972656-30v-202.230468c0-16.570313-13.417968-30-29.972656-30zm0 0" fill="#fcc151"/><path d="m449.84375 185.808594h-51.507812c16.554687 0 29.972656 13.429687 29.972656 30v37.757812h51.507812v-37.757812c0-16.570313-13.417968-30-29.972656-30zm0 0" fill="#e0dee1"/><path d="m428.308594 380.28125v37.757812c0 16.570313-13.417969 30-29.972656 30h51.507812c16.554688 0 29.972656-13.429687 29.972656-30v-37.757812zm0 0" fill="#e0dee1"/><path d="m140.617188 185.808594h-51.507813c16.550781 0 29.972656 13.429687 29.972656 30v37.757812h51.507813v-37.757812c0-16.570313-13.417969-30-29.972656-30zm0 0" fill="#e0dee1"/><path d="m119.082031 380.28125v37.757812c0 16.570313-13.421875 30-29.972656 30h51.507813c16.554687 0 29.972656-13.429687 29.972656-30v-37.757812zm0 0" fill="#e0dee1"/><path d="m476.328125 121.847656h-441.109375c-19.449219 0-35.21875 15.765625-35.21875 35.21875v.03125c0 19.449219 15.769531 35.214844 35.21875 35.214844h441.109375c19.449219 0 35.21875-15.765625 35.21875-35.214844v-.03125c0-19.453125-15.769531-35.21875-35.21875-35.21875zm0 0" fill="#8a7e88"/><path d="m476.34375 121.847656h-51.507812c19.441406 0 35.199218 15.773438 35.199218 35.234375 0 19.457031-15.757812 35.230469-35.199218 35.230469h51.507812c19.441406 0 35.203125-15.773438 35.203125-35.230469 0-19.460937-15.761719-35.234375-35.203125-35.234375zm0 0" fill="#635663"/><path d="m476.328125 441.53125h-441.109375c-19.449219 0-35.21875 15.769531-35.21875 35.21875v.03125c0 19.449219 15.769531 35.21875 35.21875 35.21875h441.109375c19.449219 0 35.21875-15.769531 35.21875-35.21875v-.03125c0-19.449219-15.769531-35.21875-35.21875-35.21875zm0 0" fill="#8a7e88"/><path d="m476.34375 441.53125h-51.507812c19.441406 0 35.199218 15.777344 35.199218 35.234375 0 19.460937-15.757812 35.234375-35.199218 35.234375h51.507812c19.441406 0 35.203125-15.773438 35.203125-35.234375 0-19.457031-15.761719-35.234375-35.203125-35.234375zm0 0" fill="#635663"/></svg>