<svg height="512pt" viewBox="-98 0 512 512" width="512pt" xmlns="http://www.w3.org/2000/svg"><path d="m158.023438 512c-8.265626 0-14.964844-6.699219-14.964844-14.964844v-164.523437h29.925781v164.523437c0 8.265625-6.699219 14.964844-14.960937 14.964844zm0 0" fill="#c6c2c6"/><path d="m128.09375 265.363281v62.652344c0 8.285156 6.699219 15 14.964844 15h29.925781c8.265625 0 14.964844-6.714844 14.964844-15v-62.652344zm0 0" fill="#f1eff2"/><path d="m238.429688 512c-8.265626 0-14.964844-6.699219-14.964844-14.964844v-164.523437h29.929687v164.523437c0 8.265625-6.699219 14.964844-14.964843 14.964844zm0 0" fill="#c6c2c6"/><path d="m208.503906 265.363281v62.652344c0 8.285156 6.699219 15 14.964844 15h29.925781c8.261719 0 14.964844-6.714844 14.964844-15v-62.652344zm0 0" fill="#f1eff2"/><path d="m77.613281 512c-8.261719 0-14.964843-6.699219-14.964843-14.964844v-164.523437h29.929687v164.523437c0 8.265625-6.699219 14.964844-14.964844 14.964844zm0 0" fill="#c6c2c6"/><path d="m47.6875 265.363281v62.652344c0 8.285156 6.699219 15 14.964844 15h29.925781c8.265625 0 14.964844-6.714844 14.964844-15v-62.652344zm0 0" fill="#f1eff2"/><g fill="#e0dee1"><path d="m157.191406 265.363281v62.652344c0 8.144531-6.476562 14.753906-14.546875 14.976563.136719.003906.273438.023437.414063.023437h29.925781c8.265625 0 14.964844-6.714844 14.964844-15v-62.652344zm0 0"/><path d="m237.601562 265.363281v62.652344c0 8.144531-6.480468 14.753906-14.550781 14.976563.140625.003906.277344.023437.417969.023437h29.925781c8.261719 0 14.964844-6.714844 14.964844-15v-62.652344zm0 0"/><path d="m76.78125 265.363281v62.652344c0 8.144531-6.476562 14.753906-14.546875 14.976563.140625.003906.277344.023437.414063.023437h29.929687c8.261719 0 14.960937-6.714844 14.960937-15v-62.652344zm0 0"/></g><path d="m266.164062 0h-216.285156c-27.546875 0-49.878906 22.386719-49.878906 50v175.03125c0 27.613281 22.332031 50 49.878906 50h216.285156c27.550782 0 49.878907-22.386719 49.878907-50v-175.03125c.003906-27.613281-22.328125-50-49.878907-50zm-108.140624 198.808594c-35.242188 0-63.804688-28.636719-63.804688-63.960938 0-35.324218 28.566406-63.960937 63.804688-63.960937 35.238281 0 63.804687 28.636719 63.804687 63.960937 0 35.324219-28.566406 63.960938-63.804687 63.960938zm0 0" fill="#8a7e88"/><path d="m266.164062 0h-52.5625c27.546876 0 49.878907 22.386719 49.878907 50v175.03125c0 27.613281-22.332031 50-49.878907 50h52.5625c27.550782 0 49.878907-22.386719 49.878907-50v-175.03125c0-27.613281-22.328125-50-49.878907-50zm0 0" fill="#635663"/></svg>