<svg height="512pt" viewBox="0 -1 512.00001 512" width="512pt" xmlns="http://www.w3.org/2000/svg"><path d="m306 254.761719c0-27.589844-22.386719-49.957031-50-49.957031s-50 22.367187-50 49.957031c0 27.589843 22.386719 49.953125 50 49.953125s50-22.363282 50-49.953125zm0 0" fill="#c6c2c6"/><path d="m0 239.773438h112.71875v29.972656h-112.71875zm0 0" fill="#e73332"/><path d="m399.28125 239.773438h112.71875v29.972656h-112.71875zm0 0" fill="#e73332"/><path d="m397.011719 289.535156h-37.75v-69.550781h37.75c8.28125 0 14.996093 6.710937 14.996093 14.992187v39.566407c0 8.28125-6.714843 14.992187-14.996093 14.992187zm0 0" fill="#c6c2c6"/><path d="m152.738281 289.535156h-37.75c-8.28125 0-14.996093-6.710937-14.996093-14.992187v-39.566407c0-8.28125 6.714843-14.992187 14.996093-14.992187h37.75zm0 0" fill="#c6c2c6"/><path d="m350.691406 333.882812h-189.382812c-16.5625 0-29.988282-13.425781-29.988282-29.988281v-98.269531c0-16.5625 13.425782-29.988281 29.988282-29.988281h189.382812c16.5625 0 29.988282 13.425781 29.988282 29.988281v98.269531c0 16.5625-13.425782 29.988281-29.988282 29.988281zm0 0" fill="#f1eff2"/><path d="m306 79.121094c0-27.589844-22.386719-49.957032-50-49.957032s-50 22.367188-50 49.957032 22.386719 49.957031 50 49.957031 50-22.367187 50-49.957031zm0 0" fill="#c6c2c6"/><path d="m0 64.136719h112.71875v29.972656h-112.71875zm0 0" fill="#ffd779"/><path d="m399.28125 64.136719h112.71875v29.972656h-112.71875zm0 0" fill="#ffd779"/><path d="m397.011719 113.898438h-37.75v-69.554688h37.75c8.28125 0 14.996093 6.714844 14.996093 14.996094v39.5625c0 8.28125-6.714843 14.996094-14.996093 14.996094zm0 0" fill="#c6c2c6"/><path d="m152.738281 113.898438h-37.75c-8.28125 0-14.996093-6.714844-14.996093-14.992188v-39.566406c0-8.28125 6.714843-14.996094 14.996093-14.996094h37.75zm0 0" fill="#c6c2c6"/><path d="m350.691406 158.242188h-189.382812c-16.5625 0-29.988282-13.425782-29.988282-29.984376v-98.269531c0-16.5625 13.425782-29.988281 29.988282-29.988281h189.382812c16.5625 0 29.988282 13.425781 29.988282 29.988281v98.269531c0 16.558594-13.425782 29.984376-29.988282 29.984376zm0 0" fill="#f1eff2"/><path d="m306 431.414062c0-27.589843-22.386719-49.957031-50-49.957031s-50 22.367188-50 49.957031c0 27.589844 22.386719 49.953126 50 49.953126s50-22.363282 50-49.953126zm0 0" fill="#c6c2c6"/><path d="m0 416.425781h112.71875v29.972657h-112.71875zm0 0" fill="#d9effc"/><path d="m399.28125 416.425781h112.71875v29.972657h-112.71875zm0 0" fill="#d9effc"/><path d="m397.011719 466.1875h-37.75v-69.550781h37.75c8.28125 0 14.996093 6.710937 14.996093 14.992187v39.566406c0 8.28125-6.714843 14.992188-14.996093 14.992188zm0 0" fill="#c6c2c6"/><path d="m152.738281 466.1875h-37.75c-8.28125 0-14.996093-6.710938-14.996093-14.992188v-39.566406c0-8.28125 6.714843-14.992187 14.996093-14.992187h37.75zm0 0" fill="#c6c2c6"/><path d="m350.691406 510.535156h-189.382812c-16.5625 0-29.988282-13.425781-29.988282-29.988281v-98.269531c0-16.5625 13.425782-29.988282 29.988282-29.988282h189.382812c16.5625 0 29.988282 13.425782 29.988282 29.988282v98.269531c0 16.5625-13.425782 29.988281-29.988282 29.988281zm0 0" fill="#f1eff2"/><g fill="#c6c2c6"><path d="m306 254.761719c0-27.589844-22.386719-49.957031-50-49.957031s-50 22.367187-50 49.957031c0 27.589843 22.386719 49.953125 50 49.953125s50-22.363282 50-49.953125zm0 0"/><path d="m306 79.121094c0-27.589844-22.386719-49.957032-50-49.957032s-50 22.367188-50 49.957032 22.386719 49.957031 50 49.957031 50-22.367187 50-49.957031zm0 0"/><path d="m306 431.414062c0-27.589843-22.386719-49.957031-50-49.957031s-50 22.367188-50 49.957031c0 27.589844 22.386719 49.953126 50 49.953126s50-22.363282 50-49.953126zm0 0"/></g><path d="m256 204.804688c-7.53125 0-14.667969 1.675781-21.074219 4.65625 17.082031 7.941406 28.929688 25.234374 28.929688 45.300781 0 20.0625-11.847657 37.355469-28.929688 45.300781 6.40625 2.980469 13.542969 4.65625 21.074219 4.65625 27.613281 0 50-22.367188 50-49.957031 0-27.589844-22.386719-49.957031-50-49.957031zm0 0" fill="#a298a1"/><path d="m256 29.164062c-7.53125 0-14.667969 1.675782-21.074219 4.65625 17.082031 7.945313 28.929688 25.238282 28.929688 45.300782 0 20.066406-11.847657 37.359375-28.929688 45.304687 6.40625 2.976563 13.542969 4.652344 21.074219 4.652344 27.613281 0 50-22.367187 50-49.957031s-22.386719-49.957032-50-49.957032zm0 0" fill="#a298a1"/><path d="m256 381.457031c-7.53125 0-14.667969 1.675781-21.074219 4.652344 17.082031 7.945313 28.929688 25.238281 28.929688 45.304687 0 20.066407-11.847657 37.355469-28.929688 45.300782 6.40625 2.980468 13.542969 4.652344 21.074219 4.652344 27.613281 0 50-22.363282 50-49.953126 0-27.589843-22.386719-49.957031-50-49.957031zm0 0" fill="#a298a1"/><path d="m350.679688 175.640625h-51.167969c16.566406 0 30 13.417969 30 29.972656v98.296875c0 16.550782-13.433594 29.972656-30 29.972656h51.167969c16.566406 0 30-13.421874 30-29.972656v-98.296875c0-16.554687-13.429688-29.972656-30-29.972656zm0 0" fill="#e0dee1"/><path d="m350.679688 0h-51.167969c16.566406 0 30 13.421875 30 29.972656v98.296875c0 16.554688-13.433594 29.972657-30 29.972657h51.167969c16.566406 0 30-13.421876 30-29.972657v-98.296875c0-16.554687-13.429688-29.972656-30-29.972656zm0 0" fill="#e0dee1"/><path d="m350.679688 352.289062h-51.167969c16.566406 0 30 13.421876 30 29.976563v98.292969c0 16.554687-13.433594 29.972656-30 29.972656h51.167969c16.566406 0 30-13.417969 30-29.972656v-98.292969c0-16.554687-13.429688-29.976563-30-29.976563zm0 0" fill="#e0dee1"/><path d="m279.28125 262.261719h-46.5625c-4.144531 0-7.5-3.359375-7.5-7.5 0-4.144531 3.355469-7.5 7.5-7.5h46.5625c4.144531 0 7.5 3.355469 7.5 7.5 0 4.140625-3.355469 7.5-7.5 7.5zm0 0" fill="#635663"/><path d="m272.464844 455.359375c-1.921875 0-3.839844-.730469-5.304688-2.191406l-32.925781-32.898438c-2.929687-2.925781-2.929687-7.675781-.003906-10.605469 2.929687-2.933593 7.679687-2.933593 10.605469-.003906l32.925781 32.894532c2.933593 2.929687 2.933593 7.679687.007812 10.605468-1.464843 1.46875-3.386719 2.199219-5.304687 2.199219zm0 0" fill="#635663"/><path d="m239.535156 103.070312c-1.917968 0-3.839844-.734374-5.304687-2.199218-2.925781-2.929688-2.925781-7.679688.003906-10.605469l32.925781-32.898437c2.933594-2.929688 7.679688-2.925782 10.609375.003906 2.925781 2.929687 2.925781 7.679687-.007812 10.605468l-32.925781 32.898438c-1.460938 1.464844-3.382813 2.195312-5.300782 2.195312zm0 0" fill="#635663"/></svg>