<svg height="512pt" viewBox="-153 0 512 512" width="512pt" xmlns="http://www.w3.org/2000/svg"><path d="m206.863281 404.207031c-1.605469-40.457031-15.226562-79.0625-38.523437-111.179687v-88.972656h-129.734375v88.972656c-23.296875 32.117187-36.917969 70.722656-38.5234378 111.179687-2.3281252 58.828125 44.6367188 107.792969 103.3906248 107.792969s105.71875-48.964844 103.390625-107.792969zm-103.390625 68.792969c-35.824218 0-64.867187-29.101562-64.867187-65s29.042969-64.996094 64.867187-64.996094c35.828125 0 64.867188 29.097656 64.867188 64.996094s-29.042969 65-64.867188 65zm0 0" fill="#c6c2c6"/><path d="m206.863281 404.207031c-1.605469-40.457031-15.226562-79.0625-38.523437-111.179687v-88.972656h-38.605469v88.972656c23.296875 32.117187 36.917969 70.722656 38.523437 111.179687.042969 1.109375.0625 2.214844.074219 3.316407 0 .160156.007813.320312.007813.480468 0 .128906-.007813.257813-.007813.390625.003907 50.375-36.082031 92.699219-84.117187 101.792969 6.234375 1.179688 12.667968 1.8125 19.257812 1.8125 58.753906 0 105.71875-48.964844 103.390625-107.792969zm0 0" fill="#a298a1"/><path d="m38.605469 99.648438h129.734375v129.996093h-129.734375zm0 0" fill="#ffd779"/><path d="m130.144531 99.648438h38.195313v129.996093h-38.195313zm0 0" fill="#fcc151"/><path d="m163.363281 180.085938h-119.78125c-16.550781 0-29.96875-13.421876-29.96875-29.972657v-150.113281h179.722657v150.113281c-.003907 16.554688-13.421876 29.972657-29.972657 29.972657zm0 0" fill="#ffd779"/><path d="m141.824219 0v150.085938c0 16.566406-13.402344 30-29.9375 30h51.507812c16.535157 0 29.9375-13.433594 29.9375-30v-150.085938zm0 0" fill="#fcc151"/></svg>