<svg height="512pt" viewBox="0 -1 512 512" width="512pt" xmlns="http://www.w3.org/2000/svg"><path d="m51.046875 273.476562 31.339844-31.339843 189.207031 189.207031-31.339844 31.339844zm0 0" fill="#f1eff2"/><path d="m339.675781 403.753906v18.792969h-52.71875v-18.792969c0-6.640625 5.378907-12.019531 12.015625-12.019531h28.683594c6.640625 0 12.019531 5.378906 12.019531 12.019531zm0 0" fill="#e73332"/><path d="m327.660156 391.734375h-23.613281c6.636719 0 12.019531 5.378906 12.019531 12.015625v18.796875h23.609375v-18.796875c0-6.636719-5.378906-12.015625-12.015625-12.015625zm0 0" fill="#971e1e"/><path d="m389.46875 424.421875h-235.355469c-27.816406 0-50.363281 22.550781-50.363281 50.367187v20.484376c0 8.34375 6.761719 15.109374 15.109375 15.109374h235.355469c27.816406 0 50.367187-22.550781 50.367187-50.363281v-20.488281c0-8.34375-6.765625-15.109375-15.113281-15.109375zm0 0" fill="#c6c2c6"/><path d="m389.472656 424.421875h-51.347656c8.34375 0 15.109375 6.765625 15.109375 15.109375v20.484375c0 27.816406-22.550781 50.367187-50.363281 50.367187h51.34375c27.816406 0 50.367187-22.550781 50.367187-50.367187v-20.484375c0-8.34375-6.765625-15.109375-15.109375-15.109375zm0 0" fill="#a298a1"/><path d="m81.027344 231.132812-31.339844-31.339843 148.074219-148.074219 31.339843 31.339844zm0 0" fill="#f1eff2"/><path d="m325.636719 103.246094-31.339844 31.339844-52.113281-52.113282 31.339844-31.339844zm0 0" fill="#f1eff2"/><path d="m280.816406 44.886719c0-24.789063-20.09375-44.886719-44.882812-44.886719-24.789063 0-44.886719 20.097656-44.886719 44.886719 0 24.789062 20.097656 44.886719 44.886719 44.886719 24.789062 0 44.882812-20.097657 44.882812-44.886719zm0 0" fill="#8fccba"/><path d="m235.933594 0c-7.859375 0-15.246094 2.027344-21.667969 5.574219 13.835937 7.648437 23.214844 22.382812 23.214844 39.3125 0 16.929687-9.378907 31.664062-23.214844 39.3125 6.421875 3.546875 13.808594 5.574219 21.667969 5.574219 24.789062 0 44.882812-20.097657 44.882812-44.886719 0-24.789063-20.09375-44.886719-44.882812-44.886719zm0 0" fill="#64bda1"/><path d="m89.769531 235.949219c0-24.789063-20.097656-44.886719-44.886719-44.886719-24.789062 0-44.882812 20.097656-44.882812 44.886719 0 24.789062 20.09375 44.886719 44.882812 44.886719 24.789063 0 44.886719-20.097657 44.886719-44.886719zm0 0" fill="#8fccba"/><path d="m44.882812 191.0625c-8.175781 0-15.835937 2.195312-22.441406 6.019531 13.410156 7.761719 22.441406 22.253907 22.441406 38.867188s-9.03125 31.105469-22.441406 38.867187c6.605469 3.820313 14.265625 6.019532 22.441406 6.019532 24.789063 0 44.886719-20.097657 44.886719-44.886719 0-24.792969-20.097656-44.886719-44.886719-44.886719zm0 0" fill="#64bda1"/><path d="m478.363281 126.914062c44.847657 44.851563 44.847657 117.574219 0 162.425782-44.851562 44.851562-117.566406 44.851562-162.414062 0zm0 0" fill="#ffd779"/><path d="m478.363281 126.914062-21.394531 21.394532c27.019531 44.222656 21.410156 102.765625-16.851562 141.03125-17.546876 17.542968-39.355469 28.214844-62.089844 32.03125 35.390625 5.949218 73.027344-4.722656 100.335937-32.03125 44.847657-44.851563 44.847657-117.574219 0-162.425782zm0 0" fill="#fcc151"/><path d="m387.503906 106.628906-89.835937 89.839844-17.429688-17.433594c-19.667969-19.667968-19.667969-51.554687 0-71.222656l18.609375-18.609375c19.667969-19.671875 51.558594-19.671875 71.230469 0zm0 0" fill="#c6c2c6"/><path d="m387.503906 106.628906-17.425781-17.425781c-5.257813-5.257813-11.386719-9.09375-17.921875-11.539063l-83.453125 83.457032c2.449219 6.53125 6.28125 12.664062 11.535156 17.914062l17.429688 17.433594zm0 0" fill="#a298a1"/><path d="m362.117188 104.832031-68.246094 68.25c-12.933594 12.9375-17.839844 31.867188-12.8125 49.453125l25.484375 89.199219c3.164062 11.074219 17.066406 14.675781 25.210937 6.53125l175.535156-175.546875c8.144532-8.148438 4.542969-22.046875-6.53125-25.214844l-89.191406-25.484375c-17.585937-5.023437-36.511718-.121093-49.449218 12.8125zm0 0" fill="#8fccba"/><path d="m507.289062 142.71875c8.148438-8.148438 4.546876-22.046875-6.53125-25.214844l-31.785156-9.082031-171.511718 171.523437 9.082031 31.789063c3.164062 11.078125 17.066406 14.679687 25.210937 6.53125zm0 0" fill="#64bda1"/></svg>