<svg height="512pt" viewBox="-53 0 512 512.001" width="512pt" xmlns="http://www.w3.org/2000/svg"><path d="m395.605469 139.207031c0 20.953125-16.980469 37.941407-37.921875 37.941407-20.945313 0-37.921875-16.988282-37.921875-37.941407zm0 0" fill="#ffd779"/><path d="m11.292969 139.207031c0 20.953125 16.976562 37.941407 37.921875 37.941407 20.941406 0 37.917968-16.988282 37.917968-37.941407zm0 0" fill="#ffd779"/><path d="m362.082031 139.207031c0 14.933594-8.625 27.84375-21.160156 34.035157 5.054687 2.496093 10.742187 3.90625 16.761719 3.90625 20.941406 0 37.921875-16.988282 37.921875-37.941407zm0 0" fill="#fcc151"/><path d="m53.609375 139.207031c0 14.933594-8.625 27.84375-21.15625 34.035157 5.054687 2.496093 10.742187 3.90625 16.761719 3.90625 20.941406 0 37.917968-16.988282 37.917968-37.941407zm0 0" fill="#fcc151"/><path d="m211.007812 246.011719h-15.121093v-160.753907c0-47.011718 38.246093-85.257812 85.257812-85.257812 47.015625 0 85.257813 38.246094 85.257813 85.257812h-15.117188c0-38.675781-31.464844-70.140624-70.140625-70.140624-38.671875 0-70.136719 31.464843-70.136719 70.140624zm0 0" fill="#635663"/><path d="m210.628906 85.257812h-15.121094c0-38.675781-31.460937-70.140624-70.136718-70.140624-38.675782 0-70.140625 31.464843-70.140625 70.140624h-15.117188c0-47.011718 38.246094-85.257812 85.257813-85.257812 47.011718 0 85.257812 38.246094 85.257812 85.257812zm0 0" fill="#635663"/><path d="m203.636719 158.179688c-15.742188 0-28.5 12.757812-28.5 28.496093v305.972657h57v-305.972657c0-15.738281-12.761719-28.496093-28.5-28.496093zm0 0" fill="#c6c2c6"/><path d="m203.636719 158.179688c-5.667969 0-10.945313 1.660156-15.382813 4.511718 7.882813 5.070313 13.113282 13.914063 13.113282 23.984375v305.972657h30.769531v-305.972657c0-15.738281-12.761719-28.496093-28.5-28.496093zm0 0" fill="#a298a1"/><path d="m158.621094 452.867188h90.03125c5.527344 0 10.007812 4.480468 10.007812 10.007812v39.117188c0 5.527343-4.480468 10.007812-10.007812 10.007812h-90.03125c-5.527344 0-10.007813-4.480469-10.007813-10.007812v-39.117188c0-5.527344 4.480469-10.007812 10.007813-10.007812zm0 0" fill="#8a7e88"/><path d="m248.652344 452.867188h-32.597656c5.523437 0 10.003906 4.480468 10.003906 10.011718v39.113282c0 5.527343-4.480469 10.007812-10.003906 10.007812h32.597656c5.527344 0 10.007812-4.480469 10.007812-10.007812v-39.113282c0-5.53125-4.480468-10.011718-10.007812-10.011718zm0 0" fill="#635663"/><path d="m387.574219 113.15625h-59.785157v-20.304688c0-8.292968 6.722657-15.011718 15.011719-15.011718h29.761719c8.292969 0 15.011719 6.71875 15.011719 15.011718zm0 0" fill="#8a7e88"/><path d="m372.570312 77.839844h-28.3125c8.289063 0 15.007813 6.722656 15.007813 15.015625v20.300781h28.308594v-20.300781c0-8.292969-6.71875-15.015625-15.003907-15.015625zm0 0" fill="#635663"/><path d="m401.890625 146.269531h-88.414063c-3.378906 0-5.785156-3.28125-4.773437-6.503906l8.832031-28.15625c1.964844-6.257813 7.761719-10.515625 14.316406-10.515625h51.660157c6.558593 0 12.355469 4.257812 14.320312 10.515625l8.832031 28.15625c1.011719 3.222656-1.394531 6.503906-4.773437 6.503906zm0 0" fill="#c6c2c6"/><path d="m19.320312 113.15625h59.785157v-20.304688c0-8.292968-6.71875-15.011718-15.007813-15.011718h-29.765625c-8.289062 0-15.011719 6.71875-15.011719 15.011718zm0 0" fill="#8a7e88"/><path d="m64.101562 77.839844h-28.3125c8.289063 0 15.003907 6.722656 15.003907 15.015625v20.300781h28.3125v-20.300781c0-8.292969-6.71875-15.015625-15.003907-15.015625zm0 0" fill="#635663"/><path d="m5.003906 146.269531h88.417969c3.375 0 5.785156-3.28125 4.769531-6.503906l-8.832031-28.15625c-1.960937-6.257813-7.757813-10.515625-14.316406-10.515625h-51.660157c-6.554687 0-12.355468 4.257812-14.316406 10.515625l-8.832031 28.15625c-1.011719 3.222656 1.394531 6.503906 4.769531 6.503906zm0 0" fill="#c6c2c6"/><g fill="#a298a1"><path d="m406.664062 139.765625-8.832031-28.15625c-1.964843-6.257813-7.761719-10.515625-14.320312-10.515625h-27.089844c6.554687 0 12.351563 4.257812 14.316406 10.515625l8.832031 28.15625c1.011719 3.222656-1.394531 6.503906-4.773437 6.503906h27.09375c3.378906 0 5.785156-3.28125 4.773437-6.503906zm0 0"/><path d="m98.191406 139.765625-8.832031-28.15625c-1.960937-6.257813-7.757813-10.515625-14.316406-10.515625h-27.089844c6.554687 0 12.351563 4.257812 14.316406 10.515625l8.832031 28.15625c1.011719 3.222656-1.394531 6.503906-4.773437 6.503906h27.09375c3.375 0 5.785156-3.28125 4.769531-6.503906zm0 0"/></g></svg>