<svg height="512pt" viewBox="0 -9 512 512" width="512pt" xmlns="http://www.w3.org/2000/svg"><path d="m271.597656 194.152344h-28.992187v-179.664063c0-8 6.484375-14.488281 14.488281-14.488281h.011719c8.003906 0 14.492187 6.488281 14.492187 14.488281zm0 0" fill="#c6c2c6"/><path d="m257.101562 0c-2.9375 0-5.667968.878906-7.949218 2.378906 3.941406 2.589844 6.546875 7.039063 6.546875 12.105469v179.667969h15.898437v-179.667969c0-8-6.492187-14.484375-14.496094-14.484375zm0 0" fill="#a298a1"/><path d="m285.207031 460.699219h-56.214843c-4.539063 0-8.214844-3.679688-8.214844-8.21875v-252.089844c0-20.050781 16.253906-36.304687 36.304687-36.304687h.03125c20.054688 0 36.308594 16.253906 36.308594 36.304687v252.089844c0 4.539062-3.675781 8.21875-8.214844 8.21875zm0 0" fill="#c6c2c6"/><path d="m257.117188 164.085938h-.03125c-6.613282 0-12.808594 1.773437-18.148438 4.863281 10.855469 6.277343 18.164062 18.003906 18.164062 31.441406v252.09375c0 4.535156-3.679687 8.214844-8.21875 8.214844h36.324219c4.539063 0 8.21875-3.679688 8.21875-8.214844v-252.09375c-.003906-20.050781-16.257812-36.304687-36.308593-36.304687zm0 0" fill="#a298a1"/><path d="m213.605469 435.992188h86.988281c5.332031 0 9.660156 4.328124 9.660156 9.660156v37.722656c0 5.335938-4.328125 9.660156-9.660156 9.660156h-86.988281c-5.332031 0-9.660157-4.324218-9.660157-9.660156v-37.722656c0-5.335938 4.328126-9.660156 9.660157-9.660156zm0 0" fill="#8a7e88"/><path d="m300.589844 435.992188h-31.820313c5.339844 0 9.664063 4.324218 9.664063 9.65625v37.730468c0 5.332032-4.324219 9.65625-9.664063 9.65625h31.820313c5.335937 0 9.664062-4.324218 9.664062-9.65625v-37.730468c0-5.332032-4.328125-9.65625-9.664062-9.65625zm0 0" fill="#635663"/><path d="m120.414062 44.933594v-.066406c0-8.023438 6.503907-14.527344 14.527344-14.527344h244.316406c8.023438 0 14.527344 6.503906 14.527344 14.527344v.066406c0 8.023437-6.503906 14.527344-14.527344 14.527344h-244.316406c-8.023437 0-14.527344-6.503907-14.527344-14.527344zm0 0" fill="#f1eff2"/><path d="m17.277344 208.410156h-17.277344v-15h17.277344c69.164062 0 125.433594-56.214844 125.433594-125.3125v-7.5h15v7.5c0 77.367188-62.996094 140.3125-140.433594 140.3125zm0 0" fill="#635663"/><path d="m164.992188 61.335938c0-7.996094-6.617188-14.480469-14.78125-14.480469-8.164063 0-14.78125 6.484375-14.78125 14.480469 0 8 6.617187 14.484374 14.78125 14.484374 8.164062 0 14.78125-6.484374 14.78125-14.484374zm0 0" fill="#c6c2c6"/><path d="m21.53125 257.699219h-21.53125v-15h21.53125c96.367188 0 174.765625-78.328125 174.765625-174.605469v-7.5h15v7.5c0 104.546875-85.128906 189.605469-189.765625 189.605469zm0 0" fill="#635663"/><path d="m218.578125 61.335938c0-7.996094-6.617187-14.480469-14.78125-14.480469s-14.78125 6.484375-14.78125 14.480469c0 8 6.617187 14.484374 14.78125 14.484374s14.78125-6.484374 14.78125-14.484374zm0 0" fill="#c6c2c6"/><path d="m512 257.699219h-21.53125c-104.636719 0-189.765625-85.058594-189.765625-189.605469v-7.5h15v7.5c0 96.277344 78.398437 174.605469 174.765625 174.605469h21.53125zm0 0" fill="#635663"/><path d="m322.984375 61.335938c0-7.996094-6.617187-14.480469-14.78125-14.480469s-14.78125 6.484375-14.78125 14.480469c0 8 6.617187 14.484374 14.78125 14.484374s14.78125-6.484374 14.78125-14.484374zm0 0" fill="#c6c2c6"/><path d="m512 208.410156h-17.277344c-77.4375 0-140.433594-62.945312-140.433594-140.3125v-7.5h15v7.5c0 69.097656 56.269532 125.3125 125.433594 125.3125h17.277344zm0 0" fill="#635663"/><path d="m376.570312 61.335938c0-7.996094-6.617187-14.480469-14.78125-14.480469-8.164062 0-14.78125 6.484375-14.78125 14.480469 0 8 6.617188 14.484374 14.78125 14.484374 8.164063 0 14.78125-6.484374 14.78125-14.484374zm0 0" fill="#c6c2c6"/></svg>