<svg height="512pt" viewBox="0 -50 512 512" width="512pt" xmlns="http://www.w3.org/2000/svg"><path d="m167 189.707031h-49c-11.046875 0-20 9.5-20 21.222657v156.164062c0 24.550781 19.921875 44.453125 44.5 44.453125s44.5-19.902344 44.5-44.453125v-156.164062c0-11.722657-8.953125-21.222657-20-21.222657zm0 0" fill="#c6c2c6"/><path d="m392.5 189.707031h-49c-11.046875 0-20 9.5-20 21.222657v156.164062c0 24.550781 19.921875 44.453125 44.5 44.453125s44.5-19.902344 44.5-44.453125v-156.164062c0-11.722657-8.953125-21.222657-20-21.222657zm0 0" fill="#c6c2c6"/><path d="m167 189.707031h-31.25c11.046875 0 20 9.5 20 21.222657v156.164062c0 19.042969-11.992188 35.285156-28.84375 41.613281 4.855469 1.820313 10.101562 2.839844 15.59375 2.839844 24.578125 0 44.5-19.902344 44.5-44.449219v-156.167968c0-11.722657-8.953125-21.222657-20-21.222657zm0 0" fill="#a298a1"/><path d="m392.5 189.707031h-31.25c11.046875 0 20 9.5 20 21.222657v156.164062c0 19.042969-11.992188 35.285156-28.84375 41.613281 4.855469 1.820313 10.101562 2.839844 15.59375 2.839844 24.578125 0 44.5-19.902344 44.5-44.449219v-156.167968c0-11.722657-8.953125-21.222657-20-21.222657zm0 0" fill="#a298a1"/><path d="m74.667969 271.699219h363.347656c16.558594 0 29.984375-13.421875 29.984375-29.984375v-99.800782c0-6.105468-4.953125-11.058593-11.0625-11.058593h-402.875c-6.109375 0-11.0625 4.953125-11.0625 11.058593v98.117188c0 17.417969 14.25 31.667969 31.667969 31.667969zm0 0" fill="#ffd779"/><path d="m456.933594 130.855469h-51.507813c6.109375 0 11.066407 4.949219 11.066407 11.054687v99.824219c0 16.546875-13.433594 29.964844-30 29.964844h51.507812c16.570312 0 30-13.417969 30-29.964844v-99.824219c0-6.105468-4.953125-11.054687-11.066406-11.054687zm0 0" fill="#fcc151"/><path d="m17 38.957031h478v100.082031c0 16.445313-13.332031 29.773438-29.777344 29.773438h-418.429687c-16.453125 0-29.792969-13.335938-29.792969-29.792969zm0 0" fill="#ffd779"/><path d="m443.492188 38.957031v100.097657c0 16.480468-13.375 29.757812-29.875 29.757812h51.511718c16.496094 0 29.871094-13.28125 29.871094-29.757812v-100.097657zm0 0" fill="#fcc151"/><path d="m492.011719 0h-472.023438c-11.039062 0-19.988281 8.949219-19.988281 19.988281v23.953125c0 11.039063 8.949219 19.988282 19.988281 19.988282h472.023438c11.039062 0 19.988281-8.949219 19.988281-19.988282v-23.953125c0-11.039062-8.949219-19.988281-19.988281-19.988281zm0 0" fill="#cfab4b"/><path d="m492 0h-51.507812c11.042968 0 20 8.945312 20 19.976562v23.976563c0 11.03125-8.957032 19.976563-20 19.976563h51.507812c11.046875 0 20-8.945313 20-19.976563v-23.976563c0-11.03125-8.953125-19.976562-20-19.976562zm0 0" fill="#c59731"/></svg>