<svg height="512pt" viewBox="0 -197 512 512" width="512pt" xmlns="http://www.w3.org/2000/svg"><path d="m6.988281 9.226562h45.035157v100.855469h-45.035157c-3.859375 0-6.988281-3.128906-6.988281-6.988281v-86.878906c0-3.859375 3.128906-6.988282 6.988281-6.988282zm0 0" fill="#ffd779"/><path d="m505.011719 9.226562h-45.035157v100.855469h45.035157c3.859375 0 6.988281-3.128906 6.988281-6.988281v-86.878906c0-3.859375-3.128906-6.988282-6.988281-6.988282zm0 0" fill="#ffd779"/><path d="m466.980469 117.546875h-421.960938c-5.523437 0-10-4.457031-10-9.960937v-97.625c0-5.5 4.476563-9.960938 10-9.960938h123.480469l87.5 26.894531 87.5-26.894531h123.476562c5.523438 0 10 4.460938 10 9.960938v97.625c.003907 5.503906-4.476562 9.960937-9.996093 9.960937zm0 0" fill="#f1eff2"/><path d="m466.976562 0h-51.507812c5.523438 0 10 4.460938 10 9.960938v97.625c0 5.503906-4.476562 9.960937-10 9.960937h51.511719c5.523437 0 10-4.457031 10-9.960937v-97.625c-.003907-5.5-4.480469-9.960938-10.003907-9.960938zm0 0" fill="#e0dee1"/><path d="m313.808594 64.6875h-115.617188c-8.742187 0-16.46875-5.65625-19.085937-13.964844l-10.605469-50.6562498h175l-10.605469 50.6562498c-2.617187 8.308594-10.34375 13.964844-19.085937 13.964844zm0 0" fill="#d9effc"/><path d="m280.722656 38.8125h-53.949218c-4.269532 0-7.726563-3.457031-7.726563-7.722656 0-4.269532 3.457031-7.726563 7.726563-7.726563h53.949218c4.269532 0 7.726563 3.457031 7.726563 7.726563 0 4.265625-3.457031 7.722656-7.726563 7.722656zm0 0" fill="#64bda1"/></svg>